<svg width="64" height="64" viewBox="0 0 64 64" fill="none" xmlns="http://www.w3.org/2000/svg">
<path d="M13 27.269L13 47H9C7.89543 47 7 47.8954 7 49C7 50.1046 7.89543 51 9 51H13V55C13 56.1046 13.8954 57 15 57C16.1046 57 17 56.1046 17 55V51H47V55C47 56.1046 47.8954 57 49 57C50.1046 57 51 56.1046 51 55V51H55C56.1046 51 57 50.1046 57 49C57 47.8954 56.1046 47 55 47H51L51 17H55C56.1046 17 57 16.1046 57 15C57 13.8954 56.1046 13 55 13H51V9C51 7.89543 50.1046 7 49 7C47.8954 7 47 7.89543 47 9V13H31.7637C32.0788 14.3131 32.0788 15.6869 31.7637 17H47L47 47H17L17 27.8081C16.0129 27.5846 15.0634 27.1661 14.2137 26.556C13.8265 26.834 13.42 27.0716 13 27.269Z" fill="url(#paint0_linear_1104_4028)"/>
<path d="M10.8563 8.43116C10.15 7.80696 9.06627 7.86767 8.43566 8.56677C7.80504 9.26586 7.86638 10.3386 8.57265 10.9628L11.445 13.5014C12.3458 14.2975 12.3458 15.7026 11.445 16.4986L8.5726 19.0372C7.86632 19.6614 7.80497 20.7341 8.43558 21.4332C9.06619 22.1323 10.15 22.193 10.8562 21.5689L16.1405 16.8988C17.2857 15.8867 17.2857 14.1134 16.1405 13.1013L10.8563 8.43116Z" fill="url(#paint1_linear_1104_4028)"/>
<path d="M19.8569 8.43116C19.1507 7.80696 18.0669 7.86767 17.4363 8.56677C16.8057 9.26586 16.867 10.3386 17.5733 10.9628L20.4457 13.5014C21.3464 14.2975 21.3464 15.7026 20.4456 16.4986L17.5732 19.0372C16.8669 19.6614 16.8056 20.7341 17.4362 21.4332C18.0668 22.1323 19.1506 22.193 19.8569 21.5689L25.1411 16.8988C26.2863 15.8867 26.2863 14.1134 25.1411 13.1013L19.8569 8.43116Z" fill="url(#paint2_linear_1104_4028)"/>
<path d="M32 28.9092C32.5523 28.9092 33 29.3569 33 29.9092V31H34.0909C34.6432 31 35.0909 31.4477 35.0909 32C35.0909 32.5523 34.6432 33 34.0909 33H33V34.091C33 34.6433 32.5523 35.091 32 35.091C31.4477 35.091 31 34.6433 31 34.091V33H29.9091C29.3568 33 28.9091 32.5523 28.9091 32C28.9091 31.4477 29.3568 31 29.9091 31H31V29.9092C31 29.3569 31.4477 28.9092 32 28.9092Z" fill="url(#paint3_linear_1104_4028)"/>
<defs>
<linearGradient id="paint0_linear_1104_4028" x1="51.7827" y1="32.4875" x2="50.1641" y2="40.6564" gradientUnits="userSpaceOnUse">
<stop stop-color="#3AB99A"/>
<stop offset="1" stop-color="#1B9E7F"/>
</linearGradient>
<linearGradient id="paint1_linear_1104_4028" x1="51.7827" y1="32.4875" x2="50.1641" y2="40.6564" gradientUnits="userSpaceOnUse">
<stop stop-color="#3AB99A"/>
<stop offset="1" stop-color="#1B9E7F"/>
</linearGradient>
<linearGradient id="paint2_linear_1104_4028" x1="51.7827" y1="32.4875" x2="50.1641" y2="40.6564" gradientUnits="userSpaceOnUse">
<stop stop-color="#3AB99A"/>
<stop offset="1" stop-color="#1B9E7F"/>
</linearGradient>
<linearGradient id="paint3_linear_1104_4028" x1="51.7827" y1="32.4875" x2="50.1641" y2="40.6564" gradientUnits="userSpaceOnUse">
<stop stop-color="#3AB99A"/>
<stop offset="1" stop-color="#1B9E7F"/>
</linearGradient>
</defs>
</svg>
