<svg width="77" height="77" viewBox="0 0 77 77" fill="none" xmlns="http://www.w3.org/2000/svg">
<path d="M60.3299 34.1836C65.8539 34.1836 70.332 38.2289 70.332 43.2191C70.332 45.8135 69.1215 48.1526 67.1829 49.8005C68.1396 50.9184 68.1093 52.2171 68.1093 53.5932L77 48.2388V68.3176L68.1093 62.9633V64.3019C68.1093 66.5197 66.119 68.3176 63.6639 68.3176H43.6598C41.2047 68.3176 39.2144 66.5197 39.2144 64.3019V57.7641C35.3297 56.5237 32.5464 53.1768 32.5464 49.2427C32.5464 44.2526 37.0245 40.2073 42.5484 40.2073C45.6948 40.2073 48.5018 41.5197 50.3353 43.5715C50.2687 42.0018 50.6633 40.4276 51.4443 39.0666C53.1089 36.1658 56.4632 34.1836 60.3299 34.1836Z" fill="white"/>
<path fill-rule="evenodd" clip-rule="evenodd" d="M23.1 4.8125C35.8578 4.8125 46.2 14.8586 46.2 27.251V34.2425C45.1578 34.0189 44.0832 33.8897 42.9888 33.8623C43.4556 32.6395 43.725 31.1982 43.725 29.6551C43.725 25.2292 41.5088 21.6414 38.775 21.6414C36.0412 21.6414 33.825 25.2292 33.825 29.6551C33.825 31.9301 34.4106 33.9837 35.351 35.4424C30.1097 37.8588 26.1959 42.8629 26.1959 49.2428C26.1959 54.5309 28.9517 58.928 32.8639 61.6375V64.3019C32.8639 64.8872 32.9108 65.453 33 65.998V68.9225C33 70.6928 31.5225 72.128 29.7 72.128C27.8775 72.128 26.4 70.6928 26.4 68.9225V65.717C26.4 63.9466 24.9225 62.5115 23.1 62.5115C21.2775 62.5115 19.8 63.9466 19.8 65.717V68.9225C19.8 70.6928 18.3225 72.128 16.5 72.128C14.6775 72.128 13.2 70.6928 13.2 68.9225V65.717C13.2 63.9466 11.7225 62.5115 9.9 62.5115C8.07746 62.5115 6.6 63.9466 6.6 65.717V68.9225C6.6 70.6928 5.12254 72.128 3.3 72.128C1.47746 72.128 0 70.6928 0 68.9225V27.251C0 14.8586 10.3422 4.8125 23.1 4.8125ZM22.275 37.6689C25.0088 37.6689 27.225 34.081 27.225 29.6551C27.225 25.2292 25.0088 21.6414 22.275 21.6414C19.5412 21.6414 17.325 25.2292 17.325 29.6551C17.325 34.081 19.5412 37.6689 22.275 37.6689Z" fill="white"/>
</svg>
