<svg width="16" height="16" viewBox="0 0 16 16" fill="none" xmlns="http://www.w3.org/2000/svg">
<path d="M12.5361 7.10309C13.6839 7.10309 14.6144 7.94367 14.6144 8.98059C14.6144 9.5197 14.3629 10.0057 13.9601 10.3482C14.1589 10.5805 14.1526 10.8503 14.1526 11.1362L16 10.0236V14.1959L14.1526 13.0833V13.3614C14.1526 13.8223 13.739 14.1959 13.2289 14.1959H9.07216C8.56201 14.1959 8.14845 13.8223 8.14845 13.3614V12.0029C7.34123 11.7452 6.76289 11.0497 6.76289 10.2323C6.76289 9.19534 7.69339 8.35476 8.84124 8.35476C9.49502 8.35476 10.0783 8.62747 10.4593 9.05381C10.4454 8.72765 10.5274 8.40055 10.6897 8.11774C11.0356 7.51496 11.7326 7.10309 12.5361 7.10309Z" fill="#8DA5F3"/>
<path fill-rule="evenodd" clip-rule="evenodd" d="M4.8 1C7.45097 1 9.6 3.08749 9.6 5.66254V7.11532C9.38344 7.06886 9.16015 7.04201 8.93273 7.03632C9.02973 6.78223 9.08571 6.48275 9.08571 6.1621C9.08571 5.24244 8.62521 4.49691 8.05714 4.49691C7.48908 4.49691 7.02857 5.24244 7.02857 6.1621C7.02857 6.63483 7.15025 7.06155 7.34566 7.36466C6.25657 7.86676 5.4433 8.90657 5.4433 10.2323C5.4433 11.3311 6.01594 12.2448 6.82887 12.8078V13.3614C6.82887 13.4831 6.8386 13.6006 6.85714 13.7139V14.3216C6.85714 14.6894 6.55014 14.9876 6.17143 14.9876C5.79272 14.9876 5.48571 14.6894 5.48571 14.3216V13.6555C5.48571 13.2876 5.17871 12.9894 4.8 12.9894C4.42129 12.9894 4.11429 13.2876 4.11429 13.6555V14.3216C4.11429 14.6894 3.80728 14.9876 3.42857 14.9876C3.04986 14.9876 2.74286 14.6894 2.74286 14.3216V13.6555C2.74286 13.2876 2.43585 12.9894 2.05714 12.9894C1.67843 12.9894 1.37143 13.2876 1.37143 13.6555V14.3216C1.37143 14.6894 1.06442 14.9876 0.685714 14.9876C0.307005 14.9876 0 14.6894 0 14.3216V5.66254C0 3.08749 2.14903 1 4.8 1ZM4.62857 7.8273C5.19664 7.8273 5.65714 7.08176 5.65714 6.1621C5.65714 5.24244 5.19664 4.49691 4.62857 4.49691C4.06051 4.49691 3.6 5.24244 3.6 6.1621C3.6 7.08176 4.06051 7.8273 4.62857 7.8273Z" fill="#8DA5F3"/>
</svg>
