<svg width="437" height="304" viewBox="0 0 437 304" fill="none" xmlns="http://www.w3.org/2000/svg">
<rect x="1" y="1" width="435" height="302" fill="#141C21"/>
<rect x="1" y="1" width="435" height="302" stroke="url(#paint0_linear_1117_4470)" stroke-width="2"/>
<path d="M403.144 81.4124C407.736 81.4124 411.458 84.7747 411.458 88.9224C411.458 91.0788 410.452 93.0229 408.84 94.3926C409.636 95.3218 409.61 96.4012 409.61 97.545L417 93.0946V109.783L409.61 105.333V106.446C409.61 108.289 407.956 109.783 405.915 109.783H389.289C387.248 109.783 385.594 108.289 385.594 106.446V101.012C382.365 99.9807 380.052 97.1989 380.052 93.929C380.052 89.7814 383.774 86.419 388.365 86.419C390.98 86.419 393.313 87.5099 394.837 89.2152C394.782 87.9106 395.11 86.6022 395.759 85.471C397.142 83.0598 399.93 81.4124 403.144 81.4124Z" fill="url(#paint1_linear_1117_4470)"/>
<path fill-rule="evenodd" clip-rule="evenodd" d="M372.2 57C382.804 57 391.4 65.35 391.4 75.6502V81.4613C390.534 81.2754 389.641 81.168 388.731 81.1453C389.119 80.1289 389.343 78.931 389.343 77.6484C389.343 73.9698 387.501 70.9876 385.229 70.9876C382.956 70.9876 381.114 73.9698 381.114 77.6484C381.114 79.5393 381.601 81.2462 382.383 82.4586C378.026 84.4671 374.773 88.6263 374.773 93.9291C374.773 98.3244 377.064 101.979 380.315 104.231V106.446C380.315 106.932 380.354 107.403 380.429 107.855V110.286C380.429 111.758 379.201 112.951 377.686 112.951C376.171 112.951 374.943 111.758 374.943 110.286V107.622C374.943 106.15 373.715 104.958 372.2 104.958C370.685 104.958 369.457 106.15 369.457 107.622V110.286C369.457 111.758 368.229 112.951 366.714 112.951C365.199 112.951 363.971 111.758 363.971 110.286V107.622C363.971 106.15 362.743 104.958 361.229 104.958C359.714 104.958 358.486 106.15 358.486 107.622V110.286C358.486 111.758 357.258 112.951 355.743 112.951C354.228 112.951 353 111.758 353 110.286V75.6502C353 65.35 361.596 57 372.2 57ZM371.514 84.3092C373.787 84.3092 375.629 81.3271 375.629 77.6484C375.629 73.9698 373.787 70.9876 371.514 70.9876C369.242 70.9876 367.4 73.9698 367.4 77.6484C367.4 81.3271 369.242 84.3092 371.514 84.3092Z" fill="url(#paint2_linear_1117_4470)"/>
<path d="M354.583 44.192C354.087 44.192 353.703 44.056 353.431 43.784C353.175 43.496 353.047 43.104 353.047 42.608V28.64C353.047 28.128 353.183 27.744 353.455 27.488C353.727 27.216 354.111 27.08 354.607 27.08H360.391C362.247 27.08 363.679 27.544 364.687 28.472C365.695 29.4 366.199 30.696 366.199 32.36C366.199 34.024 365.695 35.328 364.687 36.272C363.679 37.2 362.247 37.664 360.391 37.664H356.119V42.608C356.119 43.104 355.991 43.496 355.735 43.784C355.479 44.056 355.095 44.192 354.583 44.192ZM356.119 35.24H359.911C360.999 35.24 361.823 35 362.383 34.52C362.943 34.024 363.223 33.304 363.223 32.36C363.223 31.416 362.943 30.704 362.383 30.224C361.823 29.744 360.999 29.504 359.911 29.504H356.119V35.24ZM376.458 44.24C374.698 44.24 373.186 43.888 371.922 43.184C370.674 42.464 369.714 41.456 369.042 40.16C368.37 38.848 368.034 37.304 368.034 35.528C368.034 34.2 368.226 33.008 368.61 31.952C368.994 30.88 369.546 29.968 370.266 29.216C370.986 28.448 371.866 27.864 372.906 27.464C373.962 27.048 375.146 26.84 376.458 26.84C377.338 26.84 378.202 26.952 379.05 27.176C379.898 27.4 380.642 27.72 381.282 28.136C381.618 28.344 381.842 28.6 381.954 28.904C382.066 29.192 382.09 29.48 382.026 29.768C381.962 30.04 381.826 30.272 381.618 30.464C381.426 30.656 381.178 30.768 380.874 30.8C380.586 30.816 380.266 30.712 379.914 30.488C379.418 30.168 378.882 29.936 378.306 29.792C377.73 29.648 377.146 29.576 376.554 29.576C375.418 29.576 374.458 29.808 373.674 30.272C372.89 30.736 372.298 31.408 371.898 32.288C371.498 33.168 371.298 34.248 371.298 35.528C371.298 36.792 371.498 37.872 371.898 38.768C372.298 39.664 372.89 40.344 373.674 40.808C374.458 41.272 375.418 41.504 376.554 41.504C377.162 41.504 377.762 41.432 378.354 41.288C378.946 41.128 379.506 40.888 380.034 40.568C380.386 40.36 380.698 40.272 380.97 40.304C381.258 40.32 381.498 40.416 381.69 40.592C381.882 40.768 382.01 40.992 382.074 41.264C382.138 41.52 382.122 41.792 382.026 42.08C381.93 42.352 381.738 42.592 381.45 42.8C380.81 43.264 380.042 43.624 379.146 43.88C378.266 44.12 377.37 44.24 376.458 44.24ZM388.053 44.24C387.205 44.24 386.445 44.08 385.773 43.76C385.117 43.424 384.597 42.976 384.213 42.416C383.845 41.856 383.661 41.224 383.661 40.52C383.661 39.656 383.885 38.976 384.333 38.48C384.781 37.968 385.509 37.6 386.517 37.376C387.525 37.152 388.877 37.04 390.573 37.04H391.773V38.768H390.597C389.605 38.768 388.813 38.816 388.221 38.912C387.629 39.008 387.205 39.176 386.949 39.416C386.709 39.64 386.589 39.96 386.589 40.376C386.589 40.904 386.773 41.336 387.141 41.672C387.509 42.008 388.021 42.176 388.677 42.176C389.205 42.176 389.669 42.056 390.069 41.816C390.485 41.56 390.813 41.216 391.053 40.784C391.293 40.352 391.413 39.856 391.413 39.296V36.536C391.413 35.736 391.237 35.16 390.885 34.808C390.533 34.456 389.941 34.28 389.109 34.28C388.645 34.28 388.141 34.336 387.597 34.448C387.069 34.56 386.509 34.752 385.917 35.024C385.613 35.168 385.341 35.208 385.101 35.144C384.877 35.08 384.701 34.952 384.573 34.76C384.445 34.552 384.381 34.328 384.381 34.088C384.381 33.848 384.445 33.616 384.573 33.392C384.701 33.152 384.917 32.976 385.221 32.864C385.957 32.56 386.661 32.344 387.333 32.216C388.021 32.088 388.645 32.024 389.205 32.024C390.357 32.024 391.301 32.2 392.037 32.552C392.789 32.904 393.349 33.44 393.717 34.16C394.085 34.864 394.269 35.776 394.269 36.896V42.656C394.269 43.152 394.149 43.536 393.909 43.808C393.669 44.064 393.325 44.192 392.877 44.192C392.429 44.192 392.077 44.064 391.821 43.808C391.581 43.536 391.461 43.152 391.461 42.656V41.504H391.653C391.541 42.064 391.317 42.552 390.981 42.968C390.661 43.368 390.253 43.68 389.757 43.904C389.261 44.128 388.693 44.24 388.053 44.24ZM398.85 44.192C398.37 44.192 398.002 44.064 397.746 43.808C397.49 43.536 397.362 43.152 397.362 42.656V33.584C397.362 33.088 397.49 32.712 397.746 32.456C398.002 32.2 398.362 32.072 398.826 32.072C399.29 32.072 399.65 32.2 399.906 32.456C400.162 32.712 400.29 33.088 400.29 33.584V35.336L400.026 34.616C400.346 33.816 400.842 33.184 401.514 32.72C402.186 32.256 402.986 32.024 403.914 32.024C404.858 32.024 405.634 32.248 406.242 32.696C406.85 33.144 407.274 33.832 407.514 34.76H407.178C407.498 33.912 408.026 33.248 408.762 32.768C409.498 32.272 410.346 32.024 411.306 32.024C412.202 32.024 412.938 32.2 413.514 32.552C414.106 32.904 414.546 33.44 414.834 34.16C415.122 34.864 415.266 35.76 415.266 36.848V42.656C415.266 43.152 415.13 43.536 414.858 43.808C414.602 44.064 414.234 44.192 413.754 44.192C413.274 44.192 412.906 44.064 412.65 43.808C412.394 43.536 412.266 43.152 412.266 42.656V36.968C412.266 36.072 412.114 35.416 411.81 35C411.522 34.584 411.026 34.376 410.322 34.376C409.538 34.376 408.922 34.656 408.474 35.216C408.026 35.76 407.802 36.52 407.802 37.496V42.656C407.802 43.152 407.674 43.536 407.418 43.808C407.162 44.064 406.794 44.192 406.314 44.192C405.834 44.192 405.458 44.064 405.186 43.808C404.93 43.536 404.802 43.152 404.802 42.656V36.968C404.802 36.072 404.65 35.416 404.346 35C404.058 34.584 403.57 34.376 402.882 34.376C402.098 34.376 401.482 34.656 401.034 35.216C400.586 35.76 400.362 36.52 400.362 37.496V42.656C400.362 43.68 399.858 44.192 398.85 44.192Z" fill="url(#paint3_linear_1117_4470)"/>
<path d="M29.9817 44.24C28.2217 44.24 26.7097 43.888 25.4457 43.184C24.1977 42.464 23.2377 41.456 22.5657 40.16C21.8937 38.848 21.5577 37.304 21.5577 35.528C21.5577 34.2 21.7497 33.008 22.1337 31.952C22.5177 30.88 23.0697 29.968 23.7897 29.216C24.5097 28.448 25.3897 27.864 26.4297 27.464C27.4857 27.048 28.6697 26.84 29.9817 26.84C30.8617 26.84 31.7257 26.952 32.5737 27.176C33.4217 27.4 34.1657 27.72 34.8057 28.136C35.1417 28.344 35.3657 28.6 35.4777 28.904C35.5897 29.192 35.6137 29.48 35.5497 29.768C35.4857 30.04 35.3497 30.272 35.1417 30.464C34.9497 30.656 34.7017 30.768 34.3977 30.8C34.1097 30.816 33.7897 30.712 33.4377 30.488C32.9417 30.168 32.4057 29.936 31.8297 29.792C31.2537 29.648 30.6697 29.576 30.0777 29.576C28.9417 29.576 27.9817 29.808 27.1977 30.272C26.4137 30.736 25.8217 31.408 25.4217 32.288C25.0217 33.168 24.8217 34.248 24.8217 35.528C24.8217 36.792 25.0217 37.872 25.4217 38.768C25.8217 39.664 26.4137 40.344 27.1977 40.808C27.9817 41.272 28.9417 41.504 30.0777 41.504C30.6857 41.504 31.2857 41.432 31.8777 41.288C32.4697 41.128 33.0297 40.888 33.5577 40.568C33.9097 40.36 34.2217 40.272 34.4937 40.304C34.7817 40.32 35.0217 40.416 35.2137 40.592C35.4057 40.768 35.5337 40.992 35.5977 41.264C35.6617 41.52 35.6457 41.792 35.5497 42.08C35.4537 42.352 35.2617 42.592 34.9737 42.8C34.3337 43.264 33.5657 43.624 32.6697 43.88C31.7897 44.12 30.8937 44.24 29.9817 44.24ZM41.5763 44.24C40.7283 44.24 39.9683 44.08 39.2963 43.76C38.6403 43.424 38.1203 42.976 37.7363 42.416C37.3683 41.856 37.1843 41.224 37.1843 40.52C37.1843 39.656 37.4083 38.976 37.8563 38.48C38.3043 37.968 39.0323 37.6 40.0403 37.376C41.0483 37.152 42.4003 37.04 44.0963 37.04H45.2963V38.768H44.1203C43.1283 38.768 42.3363 38.816 41.7443 38.912C41.1523 39.008 40.7283 39.176 40.4723 39.416C40.2323 39.64 40.1123 39.96 40.1123 40.376C40.1123 40.904 40.2963 41.336 40.6643 41.672C41.0323 42.008 41.5443 42.176 42.2003 42.176C42.7283 42.176 43.1923 42.056 43.5923 41.816C44.0083 41.56 44.3363 41.216 44.5763 40.784C44.8163 40.352 44.9363 39.856 44.9363 39.296V36.536C44.9363 35.736 44.7603 35.16 44.4083 34.808C44.0563 34.456 43.4643 34.28 42.6323 34.28C42.1683 34.28 41.6643 34.336 41.1203 34.448C40.5923 34.56 40.0323 34.752 39.4403 35.024C39.1363 35.168 38.8643 35.208 38.6243 35.144C38.4003 35.08 38.2243 34.952 38.0963 34.76C37.9683 34.552 37.9043 34.328 37.9043 34.088C37.9043 33.848 37.9683 33.616 38.0963 33.392C38.2243 33.152 38.4403 32.976 38.7443 32.864C39.4803 32.56 40.1843 32.344 40.8563 32.216C41.5443 32.088 42.1683 32.024 42.7283 32.024C43.8803 32.024 44.8243 32.2 45.5603 32.552C46.3123 32.904 46.8723 33.44 47.2403 34.16C47.6083 34.864 47.7923 35.776 47.7923 36.896V42.656C47.7923 43.152 47.6723 43.536 47.4323 43.808C47.1923 44.064 46.8483 44.192 46.4003 44.192C45.9523 44.192 45.6003 44.064 45.3443 43.808C45.1043 43.536 44.9843 43.152 44.9843 42.656V41.504H45.1763C45.0643 42.064 44.8403 42.552 44.5043 42.968C44.1843 43.368 43.7763 43.68 43.2803 43.904C42.7843 44.128 42.2163 44.24 41.5763 44.24ZM52.3733 44.192C51.8933 44.192 51.5253 44.064 51.2693 43.808C51.0133 43.536 50.8853 43.152 50.8853 42.656V33.584C50.8853 33.088 51.0133 32.712 51.2693 32.456C51.5253 32.2 51.8853 32.072 52.3493 32.072C52.8133 32.072 53.1733 32.2 53.4293 32.456C53.6853 32.712 53.8133 33.088 53.8133 33.584V35.336L53.5493 34.616C53.8693 33.816 54.3653 33.184 55.0373 32.72C55.7093 32.256 56.5093 32.024 57.4373 32.024C58.3813 32.024 59.1573 32.248 59.7653 32.696C60.3733 33.144 60.7973 33.832 61.0373 34.76H60.7013C61.0213 33.912 61.5493 33.248 62.2853 32.768C63.0213 32.272 63.8693 32.024 64.8293 32.024C65.7253 32.024 66.4613 32.2 67.0373 32.552C67.6293 32.904 68.0693 33.44 68.3573 34.16C68.6453 34.864 68.7893 35.76 68.7893 36.848V42.656C68.7893 43.152 68.6533 43.536 68.3813 43.808C68.1253 44.064 67.7573 44.192 67.2773 44.192C66.7973 44.192 66.4293 44.064 66.1733 43.808C65.9173 43.536 65.7893 43.152 65.7893 42.656V36.968C65.7893 36.072 65.6373 35.416 65.3333 35C65.0453 34.584 64.5493 34.376 63.8453 34.376C63.0613 34.376 62.4453 34.656 61.9973 35.216C61.5493 35.76 61.3253 36.52 61.3253 37.496V42.656C61.3253 43.152 61.1973 43.536 60.9413 43.808C60.6853 44.064 60.3173 44.192 59.8373 44.192C59.3573 44.192 58.9813 44.064 58.7093 43.808C58.4533 43.536 58.3253 43.152 58.3253 42.656V36.968C58.3253 36.072 58.1733 35.416 57.8693 35C57.5813 34.584 57.0933 34.376 56.4053 34.376C55.6213 34.376 55.0053 34.656 54.5573 35.216C54.1093 35.76 53.8853 36.52 53.8853 37.496V42.656C53.8853 43.68 53.3813 44.192 52.3733 44.192ZM77.6682 44.24C76.3402 44.24 75.1962 43.992 74.2362 43.496C73.2762 43 72.5322 42.296 72.0042 41.384C71.4922 40.472 71.2362 39.392 71.2362 38.144C71.2362 36.928 71.4842 35.864 71.9802 34.952C72.4922 34.04 73.1882 33.328 74.0682 32.816C74.9642 32.288 75.9802 32.024 77.1162 32.024C77.9482 32.024 78.6922 32.16 79.3482 32.432C80.0202 32.704 80.5882 33.096 81.0522 33.608C81.5322 34.12 81.8922 34.744 82.1322 35.48C82.3882 36.2 82.5162 37.016 82.5162 37.928C82.5162 38.216 82.4122 38.44 82.2042 38.6C82.0122 38.744 81.7322 38.816 81.3642 38.816H73.6602V37.088H80.4042L80.0202 37.448C80.0202 36.712 79.9082 36.096 79.6842 35.6C79.4762 35.104 79.1642 34.728 78.7482 34.472C78.3482 34.2 77.8442 34.064 77.2362 34.064C76.5642 34.064 75.9882 34.224 75.5082 34.544C75.0442 34.848 74.6842 35.288 74.4282 35.864C74.1882 36.424 74.0682 37.096 74.0682 37.88V38.048C74.0682 39.36 74.3722 40.344 74.9802 41C75.6042 41.64 76.5162 41.96 77.7162 41.96C78.1322 41.96 78.5962 41.912 79.1082 41.816C79.6362 41.704 80.1322 41.52 80.5962 41.264C80.9322 41.072 81.2282 40.992 81.4842 41.024C81.7402 41.04 81.9402 41.128 82.0842 41.288C82.2442 41.448 82.3402 41.648 82.3722 41.888C82.4042 42.112 82.3562 42.344 82.2282 42.584C82.1162 42.824 81.9162 43.032 81.6282 43.208C81.0682 43.56 80.4202 43.824 79.6842 44C78.9642 44.16 78.2922 44.24 77.6682 44.24ZM86.428 44.192C85.932 44.192 85.548 44.064 85.276 43.808C85.02 43.536 84.892 43.152 84.892 42.656V33.584C84.892 33.088 85.02 32.712 85.276 32.456C85.532 32.2 85.892 32.072 86.356 32.072C86.82 32.072 87.18 32.2 87.436 32.456C87.692 32.712 87.82 33.088 87.82 33.584V35.096H87.58C87.804 34.136 88.244 33.408 88.9 32.912C89.556 32.416 90.428 32.12 91.516 32.024C91.852 31.992 92.116 32.08 92.308 32.288C92.516 32.48 92.636 32.784 92.668 33.2C92.7 33.6 92.604 33.928 92.38 34.184C92.172 34.424 91.852 34.568 91.42 34.616L90.892 34.664C89.916 34.76 89.18 35.064 88.684 35.576C88.188 36.072 87.94 36.776 87.94 37.688V42.656C87.94 43.152 87.812 43.536 87.556 43.808C87.3 44.064 86.924 44.192 86.428 44.192ZM98.0373 44.24C97.1893 44.24 96.4293 44.08 95.7573 43.76C95.1013 43.424 94.5813 42.976 94.1973 42.416C93.8293 41.856 93.6453 41.224 93.6453 40.52C93.6453 39.656 93.8693 38.976 94.3173 38.48C94.7653 37.968 95.4933 37.6 96.5013 37.376C97.5093 37.152 98.8613 37.04 100.557 37.04H101.757V38.768H100.581C99.5893 38.768 98.7973 38.816 98.2053 38.912C97.6133 39.008 97.1893 39.176 96.9333 39.416C96.6933 39.64 96.5733 39.96 96.5733 40.376C96.5733 40.904 96.7573 41.336 97.1253 41.672C97.4933 42.008 98.0053 42.176 98.6613 42.176C99.1893 42.176 99.6533 42.056 100.053 41.816C100.469 41.56 100.797 41.216 101.037 40.784C101.277 40.352 101.397 39.856 101.397 39.296V36.536C101.397 35.736 101.221 35.16 100.869 34.808C100.517 34.456 99.9253 34.28 99.0933 34.28C98.6293 34.28 98.1253 34.336 97.5813 34.448C97.0533 34.56 96.4933 34.752 95.9013 35.024C95.5973 35.168 95.3253 35.208 95.0853 35.144C94.8613 35.08 94.6853 34.952 94.5573 34.76C94.4293 34.552 94.3653 34.328 94.3653 34.088C94.3653 33.848 94.4293 33.616 94.5573 33.392C94.6853 33.152 94.9013 32.976 95.2053 32.864C95.9413 32.56 96.6453 32.344 97.3173 32.216C98.0053 32.088 98.6293 32.024 99.1893 32.024C100.341 32.024 101.285 32.2 102.021 32.552C102.773 32.904 103.333 33.44 103.701 34.16C104.069 34.864 104.253 35.776 104.253 36.896V42.656C104.253 43.152 104.133 43.536 103.893 43.808C103.653 44.064 103.309 44.192 102.861 44.192C102.413 44.192 102.061 44.064 101.805 43.808C101.565 43.536 101.445 43.152 101.445 42.656V41.504H101.637C101.525 42.064 101.301 42.552 100.965 42.968C100.645 43.368 100.237 43.68 99.7413 43.904C99.2453 44.128 98.6773 44.24 98.0373 44.24Z" fill="url(#paint4_linear_1117_4470)"/>
<path d="M70.2 63.3999C77.3576 63.3999 83.16 68.6145 83.16 75.0469C83.16 78.3913 81.5915 81.4064 79.0797 83.5306C80.3193 84.9717 80.28 86.6457 80.28 88.4195L91.8 81.5175V107.4L80.28 100.498V102.223C80.28 105.082 77.7012 107.4 74.52 107.4H48.6C45.4188 107.4 42.84 105.082 42.84 102.223V93.796C37.8064 92.1971 34.2 87.8828 34.2 82.8116C34.2 76.3792 40.0024 71.1646 47.16 71.1646C51.2368 71.1646 54.8739 72.8564 57.2497 75.5012C57.1633 73.4778 57.6747 71.4487 58.6867 69.6943C60.8436 65.955 65.1898 63.3999 70.2 63.3999Z" fill="url(#paint5_linear_1117_4470)"/>
<path d="M97.4817 145.192C96.9857 145.192 96.6017 145.056 96.3297 144.784C96.0737 144.496 95.9457 144.104 95.9457 143.608V129.64C95.9457 129.128 96.0817 128.744 96.3537 128.488C96.6257 128.216 97.0097 128.08 97.5057 128.08H103.29C105.146 128.08 106.578 128.544 107.586 129.472C108.594 130.4 109.098 131.696 109.098 133.36C109.098 135.024 108.594 136.328 107.586 137.272C106.578 138.2 105.146 138.664 103.29 138.664H99.0177V143.608C99.0177 144.104 98.8897 144.496 98.6337 144.784C98.3777 145.056 97.9937 145.192 97.4817 145.192ZM99.0177 136.24H102.81C103.898 136.24 104.722 136 105.282 135.52C105.842 135.024 106.122 134.304 106.122 133.36C106.122 132.416 105.842 131.704 105.282 131.224C104.722 130.744 103.898 130.504 102.81 130.504H99.0177V136.24ZM119.357 145.24C117.597 145.24 116.085 144.888 114.821 144.184C113.573 143.464 112.613 142.456 111.941 141.16C111.269 139.848 110.933 138.304 110.933 136.528C110.933 135.2 111.125 134.008 111.509 132.952C111.893 131.88 112.445 130.968 113.165 130.216C113.885 129.448 114.765 128.864 115.805 128.464C116.861 128.048 118.045 127.84 119.357 127.84C120.237 127.84 121.101 127.952 121.949 128.176C122.797 128.4 123.541 128.72 124.181 129.136C124.517 129.344 124.741 129.6 124.853 129.904C124.965 130.192 124.989 130.48 124.925 130.768C124.861 131.04 124.725 131.272 124.517 131.464C124.325 131.656 124.077 131.768 123.773 131.8C123.485 131.816 123.165 131.712 122.813 131.488C122.317 131.168 121.781 130.936 121.205 130.792C120.629 130.648 120.045 130.576 119.453 130.576C118.317 130.576 117.357 130.808 116.573 131.272C115.789 131.736 115.197 132.408 114.797 133.288C114.397 134.168 114.197 135.248 114.197 136.528C114.197 137.792 114.397 138.872 114.797 139.768C115.197 140.664 115.789 141.344 116.573 141.808C117.357 142.272 118.317 142.504 119.453 142.504C120.061 142.504 120.661 142.432 121.253 142.288C121.845 142.128 122.405 141.888 122.933 141.568C123.285 141.36 123.597 141.272 123.869 141.304C124.157 141.32 124.397 141.416 124.589 141.592C124.781 141.768 124.909 141.992 124.973 142.264C125.037 142.52 125.021 142.792 124.925 143.08C124.829 143.352 124.637 143.592 124.349 143.8C123.709 144.264 122.941 144.624 122.045 144.88C121.165 145.12 120.269 145.24 119.357 145.24ZM130.951 145.24C130.103 145.24 129.343 145.08 128.671 144.76C128.015 144.424 127.495 143.976 127.111 143.416C126.743 142.856 126.559 142.224 126.559 141.52C126.559 140.656 126.783 139.976 127.231 139.48C127.679 138.968 128.407 138.6 129.415 138.376C130.423 138.152 131.775 138.04 133.471 138.04H134.671V139.768H133.495C132.503 139.768 131.711 139.816 131.119 139.912C130.527 140.008 130.103 140.176 129.847 140.416C129.607 140.64 129.487 140.96 129.487 141.376C129.487 141.904 129.671 142.336 130.039 142.672C130.407 143.008 130.919 143.176 131.575 143.176C132.103 143.176 132.567 143.056 132.967 142.816C133.383 142.56 133.711 142.216 133.951 141.784C134.191 141.352 134.311 140.856 134.311 140.296V137.536C134.311 136.736 134.135 136.16 133.783 135.808C133.431 135.456 132.839 135.28 132.007 135.28C131.543 135.28 131.039 135.336 130.495 135.448C129.967 135.56 129.407 135.752 128.815 136.024C128.511 136.168 128.239 136.208 127.999 136.144C127.775 136.08 127.599 135.952 127.471 135.76C127.343 135.552 127.279 135.328 127.279 135.088C127.279 134.848 127.343 134.616 127.471 134.392C127.599 134.152 127.815 133.976 128.119 133.864C128.855 133.56 129.559 133.344 130.231 133.216C130.919 133.088 131.543 133.024 132.103 133.024C133.255 133.024 134.199 133.2 134.935 133.552C135.687 133.904 136.247 134.44 136.615 135.16C136.983 135.864 137.167 136.776 137.167 137.896V143.656C137.167 144.152 137.047 144.536 136.807 144.808C136.567 145.064 136.223 145.192 135.775 145.192C135.327 145.192 134.975 145.064 134.719 144.808C134.479 144.536 134.359 144.152 134.359 143.656V142.504H134.551C134.439 143.064 134.215 143.552 133.879 143.968C133.559 144.368 133.151 144.68 132.655 144.904C132.159 145.128 131.591 145.24 130.951 145.24ZM141.748 145.192C141.268 145.192 140.9 145.064 140.644 144.808C140.388 144.536 140.26 144.152 140.26 143.656V134.584C140.26 134.088 140.388 133.712 140.644 133.456C140.9 133.2 141.26 133.072 141.724 133.072C142.188 133.072 142.548 133.2 142.804 133.456C143.06 133.712 143.188 134.088 143.188 134.584V136.336L142.924 135.616C143.244 134.816 143.74 134.184 144.412 133.72C145.084 133.256 145.884 133.024 146.812 133.024C147.756 133.024 148.532 133.248 149.14 133.696C149.748 134.144 150.172 134.832 150.412 135.76H150.076C150.396 134.912 150.924 134.248 151.66 133.768C152.396 133.272 153.244 133.024 154.204 133.024C155.1 133.024 155.836 133.2 156.412 133.552C157.004 133.904 157.444 134.44 157.732 135.16C158.02 135.864 158.164 136.76 158.164 137.848V143.656C158.164 144.152 158.028 144.536 157.756 144.808C157.5 145.064 157.132 145.192 156.652 145.192C156.172 145.192 155.804 145.064 155.548 144.808C155.292 144.536 155.164 144.152 155.164 143.656V137.968C155.164 137.072 155.012 136.416 154.708 136C154.42 135.584 153.924 135.376 153.22 135.376C152.436 135.376 151.82 135.656 151.372 136.216C150.924 136.76 150.7 137.52 150.7 138.496V143.656C150.7 144.152 150.572 144.536 150.316 144.808C150.06 145.064 149.692 145.192 149.212 145.192C148.732 145.192 148.356 145.064 148.084 144.808C147.828 144.536 147.7 144.152 147.7 143.656V137.968C147.7 137.072 147.548 136.416 147.244 136C146.956 135.584 146.468 135.376 145.78 135.376C144.996 135.376 144.38 135.656 143.932 136.216C143.484 136.76 143.26 137.52 143.26 138.496V143.656C143.26 144.68 142.756 145.192 141.748 145.192ZM163.083 145.192C162.587 145.192 162.203 145.056 161.931 144.784C161.675 144.496 161.547 144.104 161.547 143.608V129.472C161.547 128.96 161.675 128.568 161.931 128.296C162.203 128.024 162.587 127.888 163.083 127.888C163.579 127.888 163.955 128.024 164.211 128.296C164.483 128.568 164.619 128.96 164.619 129.472V135.136H173.331V129.472C173.331 128.96 173.459 128.568 173.715 128.296C173.987 128.024 174.371 127.888 174.867 127.888C175.363 127.888 175.739 128.024 175.995 128.296C176.267 128.568 176.403 128.96 176.403 129.472V143.608C176.403 144.104 176.267 144.496 175.995 144.784C175.739 145.056 175.363 145.192 174.867 145.192C174.371 145.192 173.987 145.056 173.715 144.784C173.459 144.496 173.331 144.104 173.331 143.608V137.704H164.619V143.608C164.619 144.104 164.491 144.496 164.235 144.784C163.979 145.056 163.595 145.192 163.083 145.192ZM185.174 145.24C183.958 145.24 182.902 144.992 182.006 144.496C181.11 144 180.414 143.296 179.918 142.384C179.422 141.456 179.174 140.368 179.174 139.12C179.174 138.176 179.31 137.336 179.582 136.6C179.87 135.848 180.278 135.208 180.806 134.68C181.334 134.136 181.966 133.728 182.702 133.456C183.438 133.168 184.262 133.024 185.174 133.024C186.39 133.024 187.446 133.272 188.342 133.768C189.238 134.264 189.934 134.968 190.43 135.88C190.926 136.792 191.174 137.872 191.174 139.12C191.174 140.064 191.03 140.912 190.742 141.664C190.47 142.416 190.07 143.064 189.542 143.608C189.014 144.136 188.382 144.544 187.646 144.832C186.91 145.104 186.086 145.24 185.174 145.24ZM185.174 142.96C185.766 142.96 186.286 142.816 186.734 142.528C187.182 142.24 187.526 141.816 187.766 141.256C188.022 140.68 188.15 139.968 188.15 139.12C188.15 137.84 187.878 136.888 187.334 136.264C186.79 135.624 186.07 135.304 185.174 135.304C184.582 135.304 184.062 135.448 183.614 135.736C183.166 136.008 182.814 136.432 182.558 137.008C182.318 137.568 182.198 138.272 182.198 139.12C182.198 140.384 182.47 141.344 183.014 142C183.558 142.64 184.278 142.96 185.174 142.96ZM197.946 145.24C197.258 145.24 196.53 145.168 195.762 145.024C194.994 144.88 194.306 144.632 193.698 144.28C193.442 144.12 193.258 143.936 193.146 143.728C193.05 143.504 193.01 143.288 193.026 143.08C193.058 142.856 193.138 142.664 193.266 142.504C193.41 142.344 193.586 142.24 193.794 142.192C194.018 142.144 194.258 142.184 194.514 142.312C195.154 142.616 195.754 142.832 196.314 142.96C196.874 143.072 197.426 143.128 197.97 143.128C198.738 143.128 199.306 143 199.674 142.744C200.058 142.472 200.25 142.12 200.25 141.688C200.25 141.32 200.122 141.04 199.866 140.848C199.626 140.64 199.258 140.488 198.762 140.392L196.362 139.936C195.37 139.744 194.61 139.384 194.082 138.856C193.57 138.312 193.314 137.616 193.314 136.768C193.314 136 193.522 135.336 193.938 134.776C194.37 134.216 194.962 133.784 195.714 133.48C196.466 133.176 197.33 133.024 198.306 133.024C199.01 133.024 199.666 133.104 200.274 133.264C200.898 133.408 201.498 133.64 202.074 133.96C202.314 134.088 202.474 134.256 202.554 134.464C202.65 134.672 202.674 134.888 202.626 135.112C202.578 135.32 202.482 135.512 202.338 135.688C202.194 135.848 202.01 135.952 201.786 136C201.578 136.032 201.338 135.984 201.066 135.856C200.57 135.6 200.09 135.416 199.626 135.304C199.178 135.192 198.746 135.136 198.33 135.136C197.546 135.136 196.962 135.272 196.578 135.544C196.21 135.816 196.026 136.176 196.026 136.624C196.026 136.96 196.138 137.24 196.362 137.464C196.586 137.688 196.93 137.84 197.394 137.92L199.794 138.376C200.834 138.568 201.618 138.92 202.146 139.432C202.69 139.944 202.962 140.632 202.962 141.496C202.962 142.664 202.506 143.584 201.594 144.256C200.682 144.912 199.466 145.24 197.946 145.24ZM210.627 145.24C209.587 145.24 208.715 145.064 208.011 144.712C207.323 144.36 206.811 143.848 206.475 143.176C206.139 142.488 205.971 141.64 205.971 140.632V135.52H204.723C204.339 135.52 204.043 135.424 203.835 135.232C203.627 135.024 203.523 134.744 203.523 134.392C203.523 134.024 203.627 133.744 203.835 133.552C204.043 133.36 204.339 133.264 204.723 133.264H205.971V131.08C205.971 130.584 206.099 130.208 206.355 129.952C206.627 129.696 207.003 129.568 207.483 129.568C207.963 129.568 208.331 129.696 208.587 129.952C208.843 130.208 208.971 130.584 208.971 131.08V133.264H211.515C211.899 133.264 212.195 133.36 212.403 133.552C212.611 133.744 212.715 134.024 212.715 134.392C212.715 134.744 212.611 135.024 212.403 135.232C212.195 135.424 211.899 135.52 211.515 135.52H208.971V140.464C208.971 141.232 209.139 141.808 209.475 142.192C209.811 142.576 210.355 142.768 211.107 142.768C211.379 142.768 211.619 142.744 211.827 142.696C212.035 142.648 212.219 142.616 212.379 142.6C212.571 142.584 212.731 142.648 212.859 142.792C212.987 142.92 213.051 143.192 213.051 143.608C213.051 143.928 212.995 144.216 212.883 144.472C212.787 144.712 212.603 144.88 212.331 144.976C212.123 145.04 211.851 145.096 211.515 145.144C211.179 145.208 210.883 145.24 210.627 145.24Z" fill="url(#paint6_linear_1117_4470)"/>
<path fill-rule="evenodd" clip-rule="evenodd" d="M139 162C144.523 162 149 166.179 149 171.333V174.471C142.342 176.06 137 181.524 137 188.667V189.733C136.761 189.901 136.464 190 136.143 190C135.354 190 134.714 189.403 134.714 188.667V187.333C134.714 186.597 134.075 186 133.286 186C132.497 186 131.857 186.597 131.857 187.333V188.667C131.857 189.403 131.218 190 130.429 190C129.64 190 129 189.403 129 188.667V171.333C129 166.179 133.477 162 139 162ZM169 188.667V189.733C169.239 189.901 169.536 190 169.857 190C170.646 190 171.286 189.403 171.286 188.667V187.333C171.286 186.597 171.925 186 172.714 186C173.503 186 174.143 186.597 174.143 187.333V188.667C174.143 189.403 174.782 190 175.571 190C176.36 190 177 189.403 177 188.667V171.333C177 166.179 172.523 162 167 162C161.477 162 157 166.179 157 171.333V174.471C163.658 176.06 169 181.524 169 188.667ZM135.725 175.667C136.909 175.667 137.868 174.174 137.868 172.333C137.868 170.492 136.909 169 135.725 169C134.542 169 133.582 170.492 133.582 172.333C133.582 174.174 134.542 175.667 135.725 175.667ZM145.011 172.333C145.011 174.174 144.051 175.667 142.868 175.667C141.685 175.667 140.725 174.174 140.725 172.333C140.725 170.492 141.685 169 142.868 169C144.051 169 145.011 170.492 145.011 172.333ZM163.725 175.667C164.909 175.667 165.868 174.174 165.868 172.333C165.868 170.492 164.909 169 163.725 169C162.542 169 161.582 170.492 161.582 172.333C161.582 174.174 162.542 175.667 163.725 175.667ZM173.011 172.333C173.011 174.174 172.051 175.667 170.868 175.667C169.685 175.667 168.725 174.174 168.725 172.333C168.725 170.492 169.685 169 170.868 169C172.051 169 173.011 170.492 173.011 172.333ZM153 178C159.627 178 165 182.776 165 188.667V208.476C165 209.318 164.232 210 163.286 210C162.339 210 161.571 209.318 161.571 208.476V206.952C161.571 206.111 160.804 205.429 159.857 205.429C158.91 205.429 158.143 206.111 158.143 206.952V208.476C158.143 209.318 157.375 210 156.429 210C155.482 210 154.714 209.318 154.714 208.476V206.952C154.714 206.111 153.947 205.429 153 205.429C152.053 205.429 151.286 206.111 151.286 206.952V208.476C151.286 209.318 150.518 210 149.571 210C148.625 210 147.857 209.318 147.857 208.476V206.952C147.857 206.111 147.09 205.429 146.143 205.429C145.196 205.429 144.429 206.111 144.429 206.952V208.476C144.429 209.318 143.661 210 142.714 210C141.768 210 141 209.318 141 208.476V188.667C141 182.776 146.373 178 153 178ZM149.07 193.619C150.49 193.619 151.642 191.913 151.642 189.81C151.642 187.706 150.49 186 149.07 186C147.65 186 146.499 187.706 146.499 189.81C146.499 191.913 147.65 193.619 149.07 193.619ZM160.213 189.81C160.213 191.913 159.062 193.619 157.642 193.619C156.221 193.619 155.07 191.913 155.07 189.81C155.07 187.706 156.221 186 157.642 186C159.062 186 160.213 187.706 160.213 189.81Z" fill="white"/>
<path d="M120.537 242.216C118.873 242.216 117.449 241.864 116.265 241.16C115.081 240.456 114.169 239.456 113.529 238.16C112.905 236.864 112.593 235.32 112.593 233.528C112.593 232.184 112.769 230.984 113.121 229.928C113.489 228.856 114.009 227.952 114.681 227.216C115.369 226.464 116.209 225.888 117.201 225.488C118.193 225.072 119.305 224.864 120.537 224.864C121.529 224.864 122.473 225.008 123.369 225.296C124.265 225.568 125.041 225.976 125.697 226.52C125.905 226.68 126.041 226.864 126.105 227.072C126.185 227.264 126.193 227.456 126.129 227.648C126.081 227.824 125.985 227.976 125.841 228.104C125.713 228.216 125.553 228.272 125.361 228.272C125.169 228.272 124.953 228.192 124.713 228.032C124.137 227.568 123.505 227.224 122.817 227C122.129 226.776 121.385 226.664 120.585 226.664C119.321 226.664 118.249 226.936 117.369 227.48C116.489 228.008 115.825 228.784 115.377 229.808C114.929 230.832 114.705 232.072 114.705 233.528C114.705 234.984 114.929 236.232 115.377 237.272C115.825 238.296 116.489 239.08 117.369 239.624C118.249 240.152 119.321 240.416 120.585 240.416C121.369 240.416 122.113 240.304 122.817 240.08C123.521 239.84 124.169 239.488 124.761 239.024C125.001 238.864 125.217 238.792 125.409 238.808C125.601 238.808 125.761 238.864 125.889 238.976C126.017 239.088 126.105 239.232 126.153 239.408C126.217 239.584 126.217 239.768 126.153 239.96C126.105 240.152 125.985 240.32 125.793 240.464C125.121 241.04 124.329 241.48 123.417 241.784C122.521 242.072 121.561 242.216 120.537 242.216ZM130.061 242.168C129.741 242.168 129.501 242.08 129.341 241.904C129.181 241.728 129.101 241.48 129.101 241.16V225.896C129.101 225.576 129.181 225.336 129.341 225.176C129.501 225 129.741 224.912 130.061 224.912C130.365 224.912 130.605 225 130.781 225.176C130.957 225.336 131.045 225.576 131.045 225.896V232.928H130.733C131.069 232 131.613 231.304 132.365 230.84C133.133 230.36 134.013 230.12 135.005 230.12C135.933 230.12 136.701 230.288 137.309 230.624C137.933 230.96 138.397 231.472 138.701 232.16C139.005 232.832 139.157 233.688 139.157 234.728V241.16C139.157 241.48 139.069 241.728 138.893 241.904C138.733 242.08 138.501 242.168 138.197 242.168C137.877 242.168 137.629 242.08 137.453 241.904C137.293 241.728 137.213 241.48 137.213 241.16V234.848C137.213 233.76 136.997 232.968 136.565 232.472C136.149 231.96 135.477 231.704 134.549 231.704C133.477 231.704 132.621 232.04 131.981 232.712C131.357 233.368 131.045 234.248 131.045 235.352V241.16C131.045 241.832 130.717 242.168 130.061 242.168ZM143.702 242.12C143.382 242.12 143.142 242.032 142.982 241.856C142.822 241.664 142.742 241.4 142.742 241.064V231.248C142.742 230.912 142.822 230.656 142.982 230.48C143.142 230.304 143.382 230.216 143.702 230.216C144.006 230.216 144.246 230.304 144.422 230.48C144.598 230.656 144.686 230.912 144.686 231.248V241.064C144.686 241.4 144.598 241.664 144.422 241.856C144.262 242.032 144.022 242.12 143.702 242.12ZM143.702 227.528C143.302 227.528 142.99 227.424 142.766 227.216C142.542 226.992 142.43 226.696 142.43 226.328C142.43 225.944 142.542 225.656 142.766 225.464C142.99 225.256 143.302 225.152 143.702 225.152C144.118 225.152 144.43 225.256 144.638 225.464C144.862 225.656 144.974 225.944 144.974 226.328C144.974 226.696 144.862 226.992 144.638 227.216C144.43 227.424 144.118 227.528 143.702 227.528ZM151.872 242.216C150.72 242.216 149.84 241.864 149.232 241.16C148.624 240.456 148.32 239.448 148.32 238.136V225.896C148.32 225.576 148.4 225.336 148.56 225.176C148.72 225 148.96 224.912 149.28 224.912C149.584 224.912 149.824 225 150 225.176C150.176 225.336 150.264 225.576 150.264 225.896V237.992C150.264 238.856 150.432 239.504 150.768 239.936C151.12 240.352 151.632 240.56 152.304 240.56C152.448 240.56 152.576 240.552 152.688 240.536C152.8 240.52 152.912 240.512 153.024 240.512C153.2 240.496 153.32 240.536 153.384 240.632C153.464 240.728 153.504 240.92 153.504 241.208C153.504 241.496 153.44 241.712 153.312 241.856C153.184 242 152.976 242.096 152.688 242.144C152.56 242.16 152.424 242.176 152.28 242.192C152.136 242.208 152 242.216 151.872 242.216ZM159.744 242.216C158.704 242.216 157.792 241.968 157.008 241.472C156.24 240.976 155.64 240.28 155.208 239.384C154.792 238.472 154.584 237.4 154.584 236.168C154.584 234.92 154.792 233.848 155.208 232.952C155.64 232.04 156.24 231.344 157.008 230.864C157.792 230.368 158.704 230.12 159.744 230.12C160.8 230.12 161.704 230.384 162.456 230.912C163.208 231.44 163.712 232.152 163.968 233.048H163.704V225.896C163.704 225.576 163.784 225.336 163.944 225.176C164.12 225 164.368 224.912 164.688 224.912C164.992 224.912 165.224 225 165.384 225.176C165.56 225.336 165.648 225.576 165.648 225.896V241.16C165.648 241.48 165.568 241.728 165.408 241.904C165.248 242.08 165.008 242.168 164.688 242.168C164.384 242.168 164.144 242.08 163.968 241.904C163.808 241.728 163.728 241.48 163.728 241.16V238.88L163.992 239.216C163.736 240.128 163.224 240.856 162.456 241.4C161.704 241.944 160.8 242.216 159.744 242.216ZM160.152 240.656C160.872 240.656 161.504 240.48 162.048 240.128C162.592 239.776 163.008 239.264 163.296 238.592C163.6 237.92 163.752 237.112 163.752 236.168C163.752 234.712 163.424 233.6 162.768 232.832C162.128 232.064 161.256 231.68 160.152 231.68C159.416 231.68 158.776 231.856 158.232 232.208C157.704 232.544 157.288 233.048 156.984 233.72C156.696 234.376 156.552 235.192 156.552 236.168C156.552 237.608 156.88 238.72 157.536 239.504C158.192 240.272 159.064 240.656 160.152 240.656ZM180.332 242.216C179.196 242.216 178.212 241.968 177.38 241.472C176.548 240.976 175.9 240.28 175.436 239.384C174.988 238.472 174.764 237.4 174.764 236.168C174.764 235.24 174.892 234.408 175.148 233.672C175.404 232.92 175.78 232.28 176.276 231.752C176.772 231.224 177.356 230.824 178.028 230.552C178.716 230.264 179.484 230.12 180.332 230.12C181.468 230.12 182.452 230.368 183.284 230.864C184.116 231.36 184.756 232.064 185.204 232.976C185.668 233.872 185.9 234.936 185.9 236.168C185.9 237.096 185.772 237.928 185.516 238.664C185.26 239.4 184.884 240.04 184.388 240.584C183.892 241.112 183.3 241.52 182.612 241.808C181.94 242.08 181.18 242.216 180.332 242.216ZM180.332 240.656C181.052 240.656 181.684 240.48 182.228 240.128C182.772 239.776 183.188 239.264 183.476 238.592C183.78 237.92 183.932 237.112 183.932 236.168C183.932 234.712 183.604 233.6 182.948 232.832C182.308 232.064 181.436 231.68 180.332 231.68C179.596 231.68 178.956 231.856 178.412 232.208C177.884 232.544 177.468 233.048 177.164 233.72C176.876 234.376 176.732 235.192 176.732 236.168C176.732 237.608 177.06 238.72 177.716 239.504C178.372 240.272 179.244 240.656 180.332 240.656ZM190.287 242.168C189.983 242.168 189.743 242.08 189.567 241.904C189.407 241.728 189.327 241.48 189.327 241.16V231.848H187.791C187.535 231.848 187.327 231.784 187.167 231.656C187.023 231.512 186.951 231.32 186.951 231.08C186.951 230.84 187.023 230.656 187.167 230.528C187.327 230.4 187.535 230.336 187.791 230.336H189.855L189.327 230.84V229.928C189.327 228.408 189.695 227.248 190.431 226.448C191.183 225.648 192.279 225.184 193.719 225.056L194.415 224.984C194.639 224.968 194.815 225.008 194.943 225.104C195.087 225.2 195.175 225.32 195.207 225.464C195.255 225.608 195.263 225.76 195.231 225.92C195.199 226.064 195.127 226.192 195.015 226.304C194.903 226.416 194.767 226.48 194.607 226.496L194.055 226.544C193.079 226.624 192.367 226.92 191.919 227.432C191.487 227.944 191.271 228.696 191.271 229.688V230.696L190.983 230.336H193.863C194.135 230.336 194.343 230.4 194.487 230.528C194.631 230.656 194.703 230.84 194.703 231.08C194.703 231.32 194.631 231.512 194.487 231.656C194.343 231.784 194.135 231.848 193.863 231.848H191.271V241.16C191.271 241.832 190.943 242.168 190.287 242.168ZM119.982 275.24C118.222 275.24 116.71 274.888 115.446 274.184C114.198 273.464 113.238 272.456 112.566 271.16C111.894 269.848 111.558 268.304 111.558 266.528C111.558 265.2 111.75 264.008 112.134 262.952C112.518 261.88 113.07 260.968 113.79 260.216C114.51 259.448 115.39 258.864 116.43 258.464C117.486 258.048 118.67 257.84 119.982 257.84C120.862 257.84 121.726 257.952 122.574 258.176C123.422 258.4 124.166 258.72 124.806 259.136C125.142 259.344 125.366 259.6 125.478 259.904C125.59 260.192 125.614 260.48 125.55 260.768C125.486 261.04 125.35 261.272 125.142 261.464C124.95 261.656 124.702 261.768 124.398 261.8C124.11 261.816 123.79 261.712 123.438 261.488C122.942 261.168 122.406 260.936 121.83 260.792C121.254 260.648 120.67 260.576 120.078 260.576C118.942 260.576 117.982 260.808 117.198 261.272C116.414 261.736 115.822 262.408 115.422 263.288C115.022 264.168 114.822 265.248 114.822 266.528C114.822 267.792 115.022 268.872 115.422 269.768C115.822 270.664 116.414 271.344 117.198 271.808C117.982 272.272 118.942 272.504 120.078 272.504C120.686 272.504 121.286 272.432 121.878 272.288C122.47 272.128 123.03 271.888 123.558 271.568C123.91 271.36 124.222 271.272 124.494 271.304C124.782 271.32 125.022 271.416 125.214 271.592C125.406 271.768 125.534 271.992 125.598 272.264C125.662 272.52 125.646 272.792 125.55 273.08C125.454 273.352 125.262 273.592 124.974 273.8C124.334 274.264 123.566 274.624 122.67 274.88C121.79 275.12 120.894 275.24 119.982 275.24ZM131.576 275.24C130.728 275.24 129.968 275.08 129.296 274.76C128.64 274.424 128.12 273.976 127.736 273.416C127.368 272.856 127.184 272.224 127.184 271.52C127.184 270.656 127.408 269.976 127.856 269.48C128.304 268.968 129.032 268.6 130.04 268.376C131.048 268.152 132.4 268.04 134.096 268.04H135.296V269.768H134.12C133.128 269.768 132.336 269.816 131.744 269.912C131.152 270.008 130.728 270.176 130.472 270.416C130.232 270.64 130.112 270.96 130.112 271.376C130.112 271.904 130.296 272.336 130.664 272.672C131.032 273.008 131.544 273.176 132.2 273.176C132.728 273.176 133.192 273.056 133.592 272.816C134.008 272.56 134.336 272.216 134.576 271.784C134.816 271.352 134.936 270.856 134.936 270.296V267.536C134.936 266.736 134.76 266.16 134.408 265.808C134.056 265.456 133.464 265.28 132.632 265.28C132.168 265.28 131.664 265.336 131.12 265.448C130.592 265.56 130.032 265.752 129.44 266.024C129.136 266.168 128.864 266.208 128.624 266.144C128.4 266.08 128.224 265.952 128.096 265.76C127.968 265.552 127.904 265.328 127.904 265.088C127.904 264.848 127.968 264.616 128.096 264.392C128.224 264.152 128.44 263.976 128.744 263.864C129.48 263.56 130.184 263.344 130.856 263.216C131.544 263.088 132.168 263.024 132.728 263.024C133.88 263.024 134.824 263.2 135.56 263.552C136.312 263.904 136.872 264.44 137.24 265.16C137.608 265.864 137.792 266.776 137.792 267.896V273.656C137.792 274.152 137.672 274.536 137.432 274.808C137.192 275.064 136.848 275.192 136.4 275.192C135.952 275.192 135.6 275.064 135.344 274.808C135.104 274.536 134.984 274.152 134.984 273.656V272.504H135.176C135.064 273.064 134.84 273.552 134.504 273.968C134.184 274.368 133.776 274.68 133.28 274.904C132.784 275.128 132.216 275.24 131.576 275.24ZM142.373 275.192C141.893 275.192 141.525 275.064 141.269 274.808C141.013 274.536 140.885 274.152 140.885 273.656V264.584C140.885 264.088 141.013 263.712 141.269 263.456C141.525 263.2 141.885 263.072 142.349 263.072C142.813 263.072 143.173 263.2 143.429 263.456C143.685 263.712 143.813 264.088 143.813 264.584V266.336L143.549 265.616C143.869 264.816 144.365 264.184 145.037 263.72C145.709 263.256 146.509 263.024 147.437 263.024C148.381 263.024 149.157 263.248 149.765 263.696C150.373 264.144 150.797 264.832 151.037 265.76H150.701C151.021 264.912 151.549 264.248 152.285 263.768C153.021 263.272 153.869 263.024 154.829 263.024C155.725 263.024 156.461 263.2 157.037 263.552C157.629 263.904 158.069 264.44 158.357 265.16C158.645 265.864 158.789 266.76 158.789 267.848V273.656C158.789 274.152 158.653 274.536 158.381 274.808C158.125 275.064 157.757 275.192 157.277 275.192C156.797 275.192 156.429 275.064 156.173 274.808C155.917 274.536 155.789 274.152 155.789 273.656V267.968C155.789 267.072 155.637 266.416 155.333 266C155.045 265.584 154.549 265.376 153.845 265.376C153.061 265.376 152.445 265.656 151.997 266.216C151.549 266.76 151.325 267.52 151.325 268.496V273.656C151.325 274.152 151.197 274.536 150.941 274.808C150.685 275.064 150.317 275.192 149.837 275.192C149.357 275.192 148.981 275.064 148.709 274.808C148.453 274.536 148.325 274.152 148.325 273.656V267.968C148.325 267.072 148.173 266.416 147.869 266C147.581 265.584 147.093 265.376 146.405 265.376C145.621 265.376 145.005 265.656 144.557 266.216C144.109 266.76 143.885 267.52 143.885 268.496V273.656C143.885 274.68 143.381 275.192 142.373 275.192ZM167.668 275.24C166.34 275.24 165.196 274.992 164.236 274.496C163.276 274 162.532 273.296 162.004 272.384C161.492 271.472 161.236 270.392 161.236 269.144C161.236 267.928 161.484 266.864 161.98 265.952C162.492 265.04 163.188 264.328 164.068 263.816C164.964 263.288 165.98 263.024 167.116 263.024C167.948 263.024 168.692 263.16 169.348 263.432C170.02 263.704 170.588 264.096 171.052 264.608C171.532 265.12 171.892 265.744 172.132 266.48C172.388 267.2 172.516 268.016 172.516 268.928C172.516 269.216 172.412 269.44 172.204 269.6C172.012 269.744 171.732 269.816 171.364 269.816H163.66V268.088H170.404L170.02 268.448C170.02 267.712 169.908 267.096 169.684 266.6C169.476 266.104 169.164 265.728 168.748 265.472C168.348 265.2 167.844 265.064 167.236 265.064C166.564 265.064 165.988 265.224 165.508 265.544C165.044 265.848 164.684 266.288 164.428 266.864C164.188 267.424 164.068 268.096 164.068 268.88V269.048C164.068 270.36 164.372 271.344 164.98 272C165.604 272.64 166.516 272.96 167.716 272.96C168.132 272.96 168.596 272.912 169.108 272.816C169.636 272.704 170.132 272.52 170.596 272.264C170.932 272.072 171.228 271.992 171.484 272.024C171.74 272.04 171.94 272.128 172.084 272.288C172.244 272.448 172.34 272.648 172.372 272.888C172.404 273.112 172.356 273.344 172.228 273.584C172.116 273.824 171.916 274.032 171.628 274.208C171.068 274.56 170.42 274.824 169.684 275C168.964 275.16 168.292 275.24 167.668 275.24ZM176.428 275.192C175.932 275.192 175.548 275.064 175.276 274.808C175.02 274.536 174.892 274.152 174.892 273.656V264.584C174.892 264.088 175.02 263.712 175.276 263.456C175.532 263.2 175.892 263.072 176.356 263.072C176.82 263.072 177.18 263.2 177.436 263.456C177.692 263.712 177.82 264.088 177.82 264.584V266.096H177.58C177.804 265.136 178.244 264.408 178.9 263.912C179.556 263.416 180.428 263.12 181.516 263.024C181.852 262.992 182.116 263.08 182.308 263.288C182.516 263.48 182.636 263.784 182.668 264.2C182.7 264.6 182.604 264.928 182.38 265.184C182.172 265.424 181.852 265.568 181.42 265.616L180.892 265.664C179.916 265.76 179.18 266.064 178.684 266.576C178.188 267.072 177.94 267.776 177.94 268.688V273.656C177.94 274.152 177.812 274.536 177.556 274.808C177.3 275.064 176.924 275.192 176.428 275.192ZM188.037 275.24C187.189 275.24 186.429 275.08 185.757 274.76C185.101 274.424 184.581 273.976 184.197 273.416C183.829 272.856 183.645 272.224 183.645 271.52C183.645 270.656 183.869 269.976 184.317 269.48C184.765 268.968 185.493 268.6 186.501 268.376C187.509 268.152 188.861 268.04 190.557 268.04H191.757V269.768H190.581C189.589 269.768 188.797 269.816 188.205 269.912C187.613 270.008 187.189 270.176 186.933 270.416C186.693 270.64 186.573 270.96 186.573 271.376C186.573 271.904 186.757 272.336 187.125 272.672C187.493 273.008 188.005 273.176 188.661 273.176C189.189 273.176 189.653 273.056 190.053 272.816C190.469 272.56 190.797 272.216 191.037 271.784C191.277 271.352 191.397 270.856 191.397 270.296V267.536C191.397 266.736 191.221 266.16 190.869 265.808C190.517 265.456 189.925 265.28 189.093 265.28C188.629 265.28 188.125 265.336 187.581 265.448C187.053 265.56 186.493 265.752 185.901 266.024C185.597 266.168 185.325 266.208 185.085 266.144C184.861 266.08 184.685 265.952 184.557 265.76C184.429 265.552 184.365 265.328 184.365 265.088C184.365 264.848 184.429 264.616 184.557 264.392C184.685 264.152 184.901 263.976 185.205 263.864C185.941 263.56 186.645 263.344 187.317 263.216C188.005 263.088 188.629 263.024 189.189 263.024C190.341 263.024 191.285 263.2 192.021 263.552C192.773 263.904 193.333 264.44 193.701 265.16C194.069 265.864 194.253 266.776 194.253 267.896V273.656C194.253 274.152 194.133 274.536 193.893 274.808C193.653 275.064 193.309 275.192 192.861 275.192C192.413 275.192 192.061 275.064 191.805 274.808C191.565 274.536 191.445 274.152 191.445 273.656V272.504H191.637C191.525 273.064 191.301 273.552 190.965 273.968C190.645 274.368 190.237 274.68 189.741 274.904C189.245 275.128 188.677 275.24 188.037 275.24Z" fill="#E0E0E0"/>
<path d="M64 114V165C64 176.046 72.9543 185 84 185H117" stroke="url(#paint7_linear_1117_4470)" stroke-width="3" stroke-linejoin="round" stroke-dasharray="10 10"/>
<defs>
<linearGradient id="paint0_linear_1117_4470" x1="213.037" y1="21.2619" x2="234.524" y2="302.777" gradientUnits="userSpaceOnUse">
<stop stop-color="#3AB99A"/>
<stop offset="1" stop-color="#1B9E7F"/>
</linearGradient>
<linearGradient id="paint1_linear_1117_4470" x1="384.2" y1="60.9132" x2="389.153" y2="112.552" gradientUnits="userSpaceOnUse">
<stop stop-color="#3AB99A"/>
<stop offset="1" stop-color="#1B9E7F"/>
</linearGradient>
<linearGradient id="paint2_linear_1117_4470" x1="384.2" y1="60.9132" x2="389.153" y2="112.552" gradientUnits="userSpaceOnUse">
<stop stop-color="#3AB99A"/>
<stop offset="1" stop-color="#1B9E7F"/>
</linearGradient>
<linearGradient id="paint3_linear_1117_4470" x1="383.175" y1="22.308" x2="384.856" y2="52.953" gradientUnits="userSpaceOnUse">
<stop stop-color="#3AB99A"/>
<stop offset="1" stop-color="#1B9E7F"/>
</linearGradient>
<linearGradient id="paint4_linear_1117_4470" x1="61.925" y1="22.308" x2="63.2167" y2="52.9909" gradientUnits="userSpaceOnUse">
<stop stop-color="#3AB99A"/>
<stop offset="1" stop-color="#1B9E7F"/>
</linearGradient>
<linearGradient id="paint5_linear_1117_4470" x1="62.28" y1="66.4773" x2="65.6908" y2="107.174" gradientUnits="userSpaceOnUse">
<stop stop-color="#3AB99A"/>
<stop offset="1" stop-color="#1B9E7F"/>
</linearGradient>
<linearGradient id="paint6_linear_1117_4470" x1="152.012" y1="123.308" x2="152.947" y2="154.017" gradientUnits="userSpaceOnUse">
<stop stop-color="#3AB99A"/>
<stop offset="1" stop-color="#1B9E7F"/>
</linearGradient>
<linearGradient id="paint7_linear_1117_4470" x1="89.8375" y1="118.966" x2="99.3517" y2="183.699" gradientUnits="userSpaceOnUse">
<stop stop-color="#3AB99A"/>
<stop offset="1" stop-color="#1B9E7F"/>
</linearGradient>
</defs>
</svg>
