<svg width="64" height="64" viewBox="0 0 64 64" fill="none" xmlns="http://www.w3.org/2000/svg">
<path d="M18.8772 22.1439C18.4812 22.1439 18.1632 22.0359 17.9232 21.8199C17.6832 21.6039 17.5572 21.3279 17.5452 20.9919C17.5452 20.6559 17.6832 20.3139 17.9592 19.9659L20.6232 16.7259V18.1479L18.1752 15.1599C17.8992 14.7999 17.7612 14.4579 17.7612 14.1339C17.7732 13.7979 17.8992 13.5219 18.1392 13.3059C18.3792 13.0899 18.6972 12.9819 19.0932 12.9819C19.4772 12.9819 19.7892 13.0479 20.0292 13.1799C20.2812 13.2999 20.5212 13.5039 20.7492 13.7919L22.4232 15.9519H21.3072L22.9812 13.7919C23.2092 13.5039 23.4492 13.2999 23.7012 13.1799C23.9532 13.0479 24.2652 12.9819 24.6372 12.9819C25.0452 12.9819 25.3632 13.0899 25.5912 13.3059C25.8312 13.5219 25.9512 13.7979 25.9512 14.1339C25.9632 14.4699 25.8252 14.8119 25.5372 15.1599L23.0892 18.1479V16.7259L25.7712 19.9659C26.0592 20.3019 26.1972 20.6379 26.1852 20.9739C26.1732 21.3099 26.0472 21.5919 25.8072 21.8199C25.5672 22.0359 25.2432 22.1439 24.8352 22.1439C24.4632 22.1439 24.1512 22.0839 23.8992 21.9639C23.6472 21.8319 23.4072 21.6219 23.1792 21.3339L21.3072 18.9399H22.4052L20.5152 21.3339C20.2992 21.6099 20.0652 21.8139 19.8132 21.9459C19.5732 22.0779 19.2612 22.1439 18.8772 22.1439Z" fill="url(#paint0_linear_628_3591)"/>
<path d="M53.9159 39.198C53.0159 39.198 52.2719 39.06 51.6839 38.784C51.1079 38.508 50.6759 38.094 50.3879 37.542C50.0999 36.978 49.9559 36.276 49.9559 35.436V32.502H49.3439C48.9599 32.502 48.6599 32.4 48.4439 32.196C48.2399 31.992 48.1379 31.698 48.1379 31.314C48.1379 30.93 48.2399 30.642 48.4439 30.45C48.6599 30.246 48.9599 30.144 49.3439 30.144H49.9559V29.028C49.9559 28.5 50.0939 28.098 50.3699 27.822C50.6459 27.546 51.0419 27.408 51.5579 27.408C52.0739 27.408 52.4699 27.546 52.7459 27.822C53.0219 28.098 53.1599 28.5 53.1599 29.028V30.144H54.6359C55.0319 30.144 55.3319 30.246 55.5359 30.45C55.7519 30.642 55.8599 30.93 55.8599 31.314C55.8599 31.698 55.7519 31.992 55.5359 32.196C55.3319 32.4 55.0319 32.502 54.6359 32.502H53.1599V35.328C53.1599 35.772 53.2619 36.102 53.4659 36.318C53.6819 36.522 54.0179 36.624 54.4739 36.624C54.6419 36.624 54.8039 36.606 54.9599 36.57C55.1159 36.534 55.2599 36.516 55.3919 36.516C55.5839 36.504 55.7399 36.564 55.8599 36.696C55.9799 36.816 56.0399 37.098 56.0399 37.542C56.0399 37.902 55.9859 38.208 55.8779 38.46C55.7699 38.7 55.5779 38.874 55.3019 38.982C55.1339 39.042 54.9059 39.09 54.6179 39.126C54.3299 39.174 54.0959 39.198 53.9159 39.198Z" fill="url(#paint1_linear_628_3591)"/>
<path fill-rule="evenodd" clip-rule="evenodd" d="M9 12.5C10.933 12.5 12.5 14.067 12.5 16V43.4357C19.8423 42.9779 23.2638 40.159 25.0921 37.4773C26.8216 34.9406 27.3486 32.4098 27.8163 30.1634C27.9707 29.422 28.1186 28.7116 28.3012 28.0422C28.8771 25.9304 30.0569 21.8718 34.0139 18.4543C37.9767 15.0319 44.2051 12.6779 54 12.6779C55.933 12.6779 57.5 14.2449 57.5 16.1779C57.5 18.1108 55.933 19.6779 54 19.6779C45.2949 19.6779 40.8957 21.7601 38.5893 23.7521C36.277 25.749 35.5457 28.083 35.0545 29.884C34.9991 30.0871 34.9344 30.4142 34.8502 30.84C34.4303 32.9618 33.5255 37.534 30.8759 41.4205C30.3605 42.1763 29.7852 42.9072 29.144 43.604H54C55.933 43.604 57.5 45.171 57.5 47.104C57.5 49.037 55.933 50.604 54 50.604H11C7.96243 50.604 5.5 48.1416 5.5 45.104V16C5.5 14.067 7.067 12.5 9 12.5Z" fill="url(#paint2_linear_628_3591)"/>
<defs>
<linearGradient id="paint0_linear_628_3591" x1="21.7576" y1="13.6227" x2="22.7371" y2="22.0425" gradientUnits="userSpaceOnUse">
<stop stop-color="#3AB99A"/>
<stop offset="1" stop-color="#1B9E7F"/>
</linearGradient>
<linearGradient id="paint1_linear_628_3591" x1="51.9902" y1="28.2326" x2="53.7409" y2="38.9275" gradientUnits="userSpaceOnUse">
<stop stop-color="#3AB99A"/>
<stop offset="1" stop-color="#1B9E7F"/>
</linearGradient>
<linearGradient id="paint2_linear_628_3591" x1="30.8375" y1="15.5251" x2="33.3369" y2="48.9667" gradientUnits="userSpaceOnUse">
<stop stop-color="#3AB99A"/>
<stop offset="1" stop-color="#1B9E7F"/>
</linearGradient>
</defs>
</svg>
