<svg width="64" height="64" viewBox="0 0 64 64" fill="none" xmlns="http://www.w3.org/2000/svg">
<path fill-rule="evenodd" clip-rule="evenodd" d="M17.6643 17.0163C16.0164 15.545 13.4878 15.6881 12.0165 17.336C10.5451 18.9838 10.6882 21.5124 12.3361 22.9838L21.3233 31.0082C22.2139 31.8034 22.2139 33.1967 21.3233 33.9919L12.336 42.0163C10.6881 43.4876 10.545 46.0162 12.0163 47.6641C13.4876 49.312 16.0162 49.4551 17.6641 47.9838L29.9932 36.9757C32.6651 34.5901 32.6651 30.4101 29.9932 28.0245L17.6643 17.0163ZM38.6643 17.0163C37.0164 15.545 34.4878 15.6881 33.0165 17.336C31.5451 18.9838 31.6882 21.5124 33.3361 22.9838L42.3233 31.0082C43.2139 31.8034 43.2139 33.1967 42.3233 33.9919L33.336 42.0163C31.6881 43.4876 31.545 46.0162 33.0163 47.6641C34.4876 49.312 37.0162 49.4551 38.6641 47.9838L50.9932 36.9757C53.6651 34.5901 53.6651 30.4101 50.9932 28.0245L38.6643 17.0163Z" fill="url(#paint0_linear_628_3589)"/>
<defs>
<linearGradient id="paint0_linear_628_3589" x1="31.4736" y1="18.308" x2="34.1039" y2="48.8186" gradientUnits="userSpaceOnUse">
<stop stop-color="#3AB99A"/>
<stop offset="1" stop-color="#1B9E7F"/>
</linearGradient>
</defs>
</svg>
