<svg width="64" height="64" viewBox="0 0 64 64" fill="none" xmlns="http://www.w3.org/2000/svg">
<path fill-rule="evenodd" clip-rule="evenodd" d="M25.4264 52.5657C25.4069 52.6918 25.3968 52.8209 25.3968 52.9524V55.4762C25.3968 56.8701 24.2598 58 22.8571 58C21.4545 58 20.3175 56.8701 20.3175 55.4762V52.9524C20.3175 51.5585 19.1804 50.4286 17.7778 50.4286C16.3751 50.4286 15.2381 51.5585 15.2381 52.9524V55.4762C15.2381 56.8701 14.101 58 12.6984 58C11.2958 58 10.1587 56.8701 10.1587 55.4762V52.9524C10.1587 51.5585 9.02168 50.4286 7.61905 50.4286C6.21642 50.4286 5.07936 51.5585 5.07936 52.9524V55.4762C5.07936 56.8701 3.94231 58 2.53968 58C1.13705 58 0 56.8701 0 55.4762V22.6667C0 12.9096 7.95938 5 17.7778 5C27.1752 5 34.8697 12.246 35.5121 21.4224C34.7167 21.2876 33.9008 21.2158 33.071 21.2119C32.3974 19.4329 31.2027 18.25 29.8413 18.25C28.0891 18.25 26.6132 20.2092 26.1687 22.8772C21.7814 25.1533 18.6667 29.5712 18.6667 34.9294C18.6667 39.6358 21.1046 43.647 24.6667 46.0882V48.9588C24.6667 50.2664 24.9407 51.4798 25.4264 52.5657ZM17.1429 30.869C19.2468 30.869 20.9524 28.0442 20.9524 24.5595C20.9524 21.0749 19.2468 18.25 17.1429 18.25C15.0389 18.25 13.3333 21.0749 13.3333 24.5595C13.3333 28.0442 15.0389 30.869 17.1429 30.869Z" fill="#8BA3F0"/>
<path d="M55.1664 35.449C56.9108 33.9138 58 31.7347 58 29.3176C58 24.6687 53.9706 20.9 49 20.9C44.0294 20.9 40 24.6687 40 29.3176C40 29.4276 40.0023 29.537 40.0067 29.6459C38.3569 27.7344 35.8311 26.5118 33 26.5118C28.0294 26.5118 24 30.2805 24 34.9294C24 38.5945 26.5044 41.7125 30 42.8681V48.9588C30 51.025 31.7909 52.7 34 52.7H52C54.2091 52.7 56 51.025 56 48.9588V47.7118L64 52.7V33.9941L56 38.9824V37.7353C56 36.8743 55.689 36.0813 55.1664 35.449Z" fill="#8BA3F0"/>
</svg>
