<svg xmlns="http://www.w3.org/2000/svg" width="128" height="128" fill="none"><path fill="#8DA5F3" d="M100.289 56.825c9.182 0 16.626 6.724 16.626 15.02 0 4.313-2.012 8.2-5.234 10.94 1.59 1.859 1.54 4.017 1.54 6.305L128 80.19v33.377l-14.779-8.901v2.225c0 3.687-3.309 6.676-7.39 6.676H72.577c-4.08 0-7.39-2.989-7.39-6.676V96.023c-6.457-2.061-11.084-7.625-11.084-14.165 0-8.295 7.444-15.02 16.627-15.02 5.23 0 9.896 2.182 12.944 5.593-.11-2.61.546-5.227 1.844-7.49 2.767-4.821 8.343-8.116 14.771-8.116"/><path fill="#8DA5F3" fill-rule="evenodd" d="M38.4 8c21.208 0 38.4 16.7 38.4 37.3v11.623a29 29 0 0 0-5.338-.632c.776-2.033 1.224-4.429 1.224-6.994 0-7.357-3.684-13.322-8.229-13.322S56.23 41.94 56.23 49.297c0 3.782.973 7.195 2.536 9.62-8.712 4.017-15.219 12.336-15.219 22.941 0 8.79 4.581 16.1 11.085 20.604v4.429c0 .973.078 1.914.226 2.82v4.861c0 2.943-2.456 5.329-5.486 5.329s-5.485-2.386-5.485-5.329v-5.328c0-2.943-2.456-5.329-5.486-5.329s-5.486 2.386-5.486 5.329v5.328c0 2.943-2.456 5.329-5.485 5.329s-5.486-2.386-5.486-5.329v-5.328c0-2.943-2.456-5.329-5.486-5.329s-5.486 2.386-5.486 5.329v5.328c0 2.943-2.456 5.329-5.485 5.329S0 117.515 0 114.572V45.3C0 24.7 17.192 8 38.4 8m-1.371 54.618c4.544 0 8.228-5.964 8.228-13.321s-3.684-13.322-8.228-13.322c-4.545 0-8.229 5.965-8.229 13.322s3.684 13.321 8.229 13.321" clip-rule="evenodd"/></svg>