<svg width="16" height="16" viewBox="0 0 16 16" fill="none" xmlns="http://www.w3.org/2000/svg">
<path fill-rule="evenodd" clip-rule="evenodd" d="M15 6.33333C15 3.9401 13.2091 2 11 2C8.79086 2 7 3.9401 7 6.33333V14.381C7 14.7228 7.25584 15 7.57143 15C7.88702 15 8.14286 14.7228 8.14286 14.381V13.7619C8.14286 13.42 8.39869 13.1429 8.71429 13.1429C9.02988 13.1429 9.28571 13.42 9.28571 13.7619V14.381C9.28571 14.7228 9.54155 15 9.85714 15C10.1727 15 10.4286 14.7228 10.4286 14.381V13.7619C10.4286 13.42 10.6844 13.1429 11 13.1429C11.3156 13.1429 11.5714 13.42 11.5714 13.7619V14.381C11.5714 14.7228 11.8273 15 12.1429 15C12.4584 15 12.7143 14.7228 12.7143 14.381V13.7619C12.7143 13.42 12.9701 13.1429 13.2857 13.1429C13.6013 13.1429 13.8571 13.42 13.8571 13.7619V14.381C13.8571 14.7228 14.113 15 14.4286 15C14.7442 15 15 14.7228 15 14.381V6.33333ZM11.7143 6.79762C11.7143 7.65235 11.3305 8.34524 10.8571 8.34524C10.3838 8.34524 10 7.65235 10 6.79762C10 5.94289 10.3838 5.25 10.8571 5.25C11.3305 5.25 11.7143 5.94289 11.7143 6.79762ZM13.7143 8.34524C14.1877 8.34524 14.5714 7.65235 14.5714 6.79762C14.5714 5.94289 14.1877 5.25 13.7143 5.25C13.2409 5.25 12.8571 5.94289 12.8571 6.79762C12.8571 7.65235 13.2409 8.34524 13.7143 8.34524Z" fill="#E0E0E0"/>
<path d="M3.86328 2.17773C2.71603 3.16826 2.00009 4.68369 2 6.33301V14.3809C2 14.4993 2.01457 14.6171 2.04004 14.7324C1.93692 14.8937 1.76607 15 1.57129 15C1.25576 14.9999 1 14.7227 1 14.3809V6.33301C1.00013 4.36774 2.20798 2.70832 3.86328 2.17773Z" fill="#E0E0E0"/>
<path d="M6.23242 7.85449C6.22015 7.83083 6.20675 7.80725 6.19531 7.78223L6.14648 7.66309C6.17195 7.73112 6.20145 7.79474 6.23242 7.85449Z" fill="#E0E0E0"/>
<path d="M6.86328 2.17773C5.71603 3.16826 5.00009 4.68369 5 6.33301V14.3809C5 14.4993 5.01457 14.6171 5.04004 14.7324C4.93692 14.8937 4.76607 15 4.57129 15C4.25576 14.9999 4 14.7227 4 14.3809V6.33301C4.00013 4.36774 5.20798 2.70832 6.86328 2.17773Z" fill="#E0E0E0"/>
<path d="M9.23242 7.85449C9.22015 7.83083 9.20675 7.80725 9.19531 7.78223L9.14648 7.66309C9.17195 7.73112 9.20145 7.79474 9.23242 7.85449Z" fill="#E0E0E0"/>
</svg>
