<svg width="16" height="16" viewBox="0 0 16 16" fill="none" xmlns="http://www.w3.org/2000/svg">
<g clip-path="url(#clip0_2699_15380)">
<path d="M5.53514 0.000488281C8.07208 0.000565548 10.1288 2.0893 10.1289 4.6665V5.22314C9.63274 5.43611 9.16779 5.74485 8.76268 6.1499C8.21468 6.6979 7.84391 7.35589 7.64745 8.05225L6.88963 8.81885C6.32462 9.39088 5.97827 10.0974 5.84862 10.8345L5.4912 11.0845C5.33586 11.1929 5.18732 11.3161 5.04979 11.4536C4.35523 12.1483 4.04352 13.0793 4.10936 13.9878C3.80109 13.9332 3.56647 13.6623 3.56639 13.3335V12.6665C3.5663 12.2984 3.27246 11.9996 2.91014 11.9995C2.54776 11.9995 2.25398 12.2984 2.25389 12.6665V13.3335C2.2538 13.7016 1.95996 13.9994 1.59764 13.9995C1.23526 13.9995 0.941478 13.7016 0.941391 13.3335V4.6665C0.941477 2.08925 2.99814 0.000488281 5.53514 0.000488281ZM8.82323 13.4067C9.23158 13.5731 9.68171 13.6029 10.1055 13.4966C10.0335 13.7854 9.77929 13.9994 9.47264 13.9995C9.13473 13.9995 8.85935 13.7402 8.82323 13.4067ZM7.60155 9.521C7.61371 9.86868 7.66892 10.216 7.76854 10.5522C7.50027 11.0722 7.46846 11.6824 7.67186 12.2241C7.56828 12.342 7.50393 12.4961 7.50389 12.6665V13.3335C7.50389 13.343 7.50038 13.3524 7.49998 13.3618C6.52263 12.2616 6.55533 10.5801 7.60155 9.521ZM6.06346 11.9048C6.09525 12.1827 6.15971 12.4575 6.25682 12.7231C6.23377 12.7476 6.21249 12.7737 6.19139 12.7993V12.6665C6.19133 12.4123 6.04973 12.194 5.84373 12.0815C5.91448 12.0178 5.98714 11.958 6.06346 11.9048ZM10.1289 12.1431C9.89401 12.0029 9.67195 11.8326 9.46971 11.6304C8.15169 10.3124 8.15169 8.17495 9.46971 6.85693C9.67195 6.65474 9.89402 6.48438 10.1289 6.34424V12.1431ZM4.00975 3.49951C3.46616 3.49958 3.02543 4.24615 3.02538 5.1665C3.02538 6.08694 3.46613 6.83343 4.00975 6.8335C4.55341 6.8335 4.99413 6.08698 4.99413 5.1665C4.99407 4.2461 4.55337 3.49951 4.00975 3.49951ZM7.291 3.49951C6.74741 3.49958 6.30668 4.24615 6.30663 5.1665C6.30663 6.08694 6.74738 6.83343 7.291 6.8335C7.83466 6.8335 8.27538 6.08698 8.27538 5.1665C8.27532 4.2461 7.83462 3.49951 7.291 3.49951Z" fill="#E0E0E0"/>
<path d="M5.75737 12.1608C5.85324 12.0649 5.95561 11.9795 6.06306 11.9046C6.09484 12.1828 6.15939 12.4579 6.25662 12.7238C5.70242 13.3117 5.71257 14.2373 6.2877 14.8125C6.86282 15.3876 7.78836 15.3976 8.37626 14.8434C8.64216 14.9406 8.91725 15.0052 9.19545 15.037C9.12049 15.1444 9.03522 15.2469 8.93935 15.3428C8.06067 16.2215 6.63605 16.2215 5.75737 15.3428C4.87869 14.4641 4.87869 13.0395 5.75737 12.1608Z" fill="#E0E0E0"/>
<path d="M7.60148 9.52171C7.61365 9.86947 7.6691 10.216 7.76876 10.5523C7.36824 11.3285 7.49321 12.3057 8.14385 12.9563C8.79448 13.6069 9.77152 13.7318 10.5477 13.3313C10.884 13.4309 11.2306 13.4865 11.5784 13.4987C10.4791 14.5847 8.70777 14.5809 7.61352 13.4866C6.51927 12.3924 6.51541 10.621 7.60148 9.52171Z" fill="#E0E0E0"/>
<path d="M9.46968 11.6305C8.15166 10.3125 8.15166 8.17552 9.46968 6.8575C10.7877 5.53948 12.9246 5.53948 14.2426 6.8575C15.5607 8.17552 15.5607 10.3125 14.2426 11.6305C12.9246 12.9485 10.7877 12.9485 9.46968 11.6305Z" fill="#E0E0E0"/>
</g>
<defs>
<clipPath id="clip0_2699_15380">
<rect width="16" height="16" fill="white"/>
</clipPath>
</defs>
</svg>
