<svg width="128" height="128" viewBox="0 0 128 128" fill="none" xmlns="http://www.w3.org/2000/svg">
<path fill-rule="evenodd" clip-rule="evenodd" d="M33.659 53.8034C32.583 57.0062 32 60.4352 32 64.0004V123.429C32 125.954 34.0467 128 36.5714 128C39.0962 128 41.1429 125.954 41.1429 123.429V118.858C41.1429 116.333 43.1896 114.286 45.7143 114.286C48.239 114.286 50.2857 116.333 50.2857 118.858V123.429C50.2857 125.954 52.3324 128 54.8571 128C57.3819 128 59.4286 125.954 59.4286 123.429V118.858C59.4286 116.333 61.4753 114.286 64 114.286C66.5247 114.286 68.5714 116.333 68.5714 118.858V123.429C68.5714 125.954 70.6181 128 73.1429 128C75.6676 128 77.7143 125.954 77.7143 123.429V118.858C77.7143 116.333 79.761 114.286 82.2857 114.286C84.8104 114.286 86.8571 116.333 86.8571 118.858V123.429C86.8571 125.954 88.9038 128 91.4286 128C93.9533 128 96 125.954 96 123.429V64.0004C96 60.4352 95.417 57.0062 94.341 53.8034C90.4261 54.4652 86.2592 53.4654 82.9899 50.7155C79.5324 47.9145 75.1719 45.7524 70.6539 44.4615C63.7202 42.4805 54.8484 42.2835 45.1111 50.6298C41.8271 53.4446 37.6145 54.4721 33.659 53.8034ZM53.2571 78.8576C57.0442 78.8576 60.1143 73.7408 60.1143 67.429C60.1143 61.1172 57.0442 56.0004 53.2571 56.0004C49.47 56.0004 46.4 61.1172 46.4 67.429C46.4 73.7408 49.47 78.8576 53.2571 78.8576ZM82.9715 67.429C82.9715 73.7408 79.9014 78.8576 76.1143 78.8576C72.3272 78.8576 69.2572 73.7408 69.2572 67.429C69.2572 61.1172 72.3272 56.0004 76.1143 56.0004C79.9014 56.0004 82.9715 61.1172 82.9715 67.429Z" fill="#E0E0E0"/>
<path fill-rule="evenodd" clip-rule="evenodd" d="M15.3563 27.7993C13.2579 25.2347 13.6359 21.4545 16.2006 19.3561C40.0184 -0.131164 64.138 -0.181605 82.0787 4.7113C90.9628 7.13424 98.3276 10.7548 103.465 13.7572C107.157 15.9146 108.125 16.6562 111.799 19.3561C114.364 21.4545 114.742 25.2346 112.644 27.7993C110.571 30.3321 106.924 30.5894 104.201 28.6436C96.4849 23.1313 88.1197 18.7971 78.9213 16.2885C63.862 12.1814 43.9816 12.1309 23.7994 28.6436C21.2348 30.742 17.4546 30.364 15.3563 27.7993ZM31.4445 43.9046C29.2879 41.3887 29.5793 37.6009 32.0953 35.4444C47.9248 21.8762 64.1239 21.7952 76.1483 25.2307C82.0548 26.9183 86.9314 29.4329 90.3204 31.5078C92.3402 32.7444 93.3125 33.4375 95.9048 35.4443C98.525 37.4729 98.7121 41.3887 96.5556 43.9046C94.4032 46.4158 90.6258 46.7108 88.1098 44.5678L88.1011 44.5604L88.087 44.5488C83.676 40.9593 78.2921 38.3234 72.8517 36.769C63.8761 34.2046 52.0752 34.1236 39.9048 44.5554C37.3888 46.712 33.601 46.4206 31.4445 43.9046Z" fill="#E0E0E0"/>
</svg>
