<svg width="16" height="16" viewBox="0 0 16 16" fill="none" xmlns="http://www.w3.org/2000/svg">
<path fill-rule="evenodd" clip-rule="evenodd" d="M4.20737 6.72531C4.07288 7.12565 4 7.55428 4 7.99993V15.4285C4 15.7441 4.25584 15.9999 4.57143 15.9999C4.88702 15.9999 5.14286 15.7441 5.14286 15.4285V14.8571C5.14286 14.5415 5.39869 14.2856 5.71429 14.2856C6.02988 14.2856 6.28571 14.5415 6.28571 14.8571V15.4285C6.28571 15.7441 6.54155 15.9999 6.85714 15.9999C7.17273 15.9999 7.42857 15.7441 7.42857 15.4285V14.8571C7.42857 14.5415 7.68441 14.2856 8 14.2856C8.31559 14.2856 8.57143 14.5415 8.57143 14.8571V15.4285C8.57143 15.7441 8.82727 15.9999 9.14286 15.9999C9.45845 15.9999 9.71429 15.7441 9.71429 15.4285V14.8571C9.71429 14.5415 9.97012 14.2856 10.2857 14.2856C10.6013 14.2856 10.8571 14.5415 10.8571 14.8571V15.4285C10.8571 15.7441 11.113 15.9999 11.4286 15.9999C11.7442 15.9999 12 15.7441 12 15.4285V7.99993C12 7.55428 11.9271 7.12565 11.7926 6.72531C11.3033 6.80803 10.7824 6.68305 10.3737 6.33932C9.94155 5.98919 9.39648 5.71892 8.83174 5.55757C7.96503 5.30994 6.85606 5.28531 5.63888 6.3286C5.22839 6.68046 4.70181 6.80889 4.20737 6.72531ZM6.65714 9.85708C7.13053 9.85708 7.51428 9.21748 7.51428 8.42851C7.51428 7.63953 7.13053 6.99993 6.65714 6.99993C6.18375 6.99993 5.8 7.63953 5.8 8.42851C5.8 9.21748 6.18375 9.85708 6.65714 9.85708ZM10.3714 8.42851C10.3714 9.21748 9.98768 9.85708 9.51429 9.85708C9.0409 9.85708 8.65715 9.21748 8.65715 8.42851C8.65715 7.63953 9.0409 6.99993 9.51429 6.99993C9.98768 6.99993 10.3714 7.63953 10.3714 8.42851Z" fill="#FC7F7F"/>
<path fill-rule="evenodd" clip-rule="evenodd" d="M1.91954 3.47492C1.65724 3.15433 1.7045 2.68181 2.02508 2.41952C5.00231 -0.0163955 8.01726 -0.0227006 10.2598 0.588913C11.3704 0.891779 12.2909 1.34435 12.9331 1.71964C13.3946 1.98933 13.5156 2.08203 13.9749 2.41952C14.2955 2.68181 14.3428 3.15433 14.0805 3.47491C13.8214 3.79151 13.3655 3.82367 13.0251 3.58045C12.0606 2.89141 11.015 2.34964 9.86517 2.03606C7.98275 1.52267 5.49771 1.51637 2.97494 3.58045C2.65435 3.84275 2.18183 3.7955 1.91954 3.47492ZM3.93056 5.48808C3.661 5.17359 3.69742 4.70011 4.01191 4.43054C5.99061 2.73452 8.0155 2.7244 9.51855 3.15384C10.2569 3.36479 10.8664 3.67911 11.2901 3.93847C11.5425 4.09305 11.6641 4.17969 11.9881 4.43054C12.3156 4.68411 12.339 5.17359 12.0695 5.48808C11.8004 5.80197 11.3282 5.83885 11.0137 5.57098L11.0126 5.57005L11.0109 5.5686C10.4595 5.11991 9.78652 4.79043 9.10647 4.59613C7.98452 4.27557 6.50941 4.26545 4.9881 5.56943C4.67361 5.839 4.20013 5.80257 3.93056 5.48808Z" fill="#FC7F7F"/>
</svg>
