<svg xmlns="http://www.w3.org/2000/svg" width="64" height="64" fill="none"><path fill="#E0E0E0" d="M18.877 22.144q-.594 0-.954-.324a1.12 1.12 0 0 1-.378-.828q0-.504.414-1.026l2.664-3.24v1.422l-2.448-2.988q-.414-.54-.414-1.026.018-.504.378-.828t.954-.324q.576 0 .936.198.378.18.72.612l1.674 2.16h-1.116l1.674-2.16q.342-.432.72-.612.378-.198.936-.198.612 0 .954.324.36.324.36.828.018.504-.414 1.026l-2.448 2.988v-1.422l2.682 3.24q.432.504.414 1.008a1.18 1.18 0 0 1-.378.846q-.36.324-.972.324-.558 0-.936-.18-.378-.198-.72-.63l-1.872-2.394h1.098l-1.89 2.394q-.324.414-.702.612-.36.198-.936.198M53.916 39.198q-1.35 0-2.232-.414a2.77 2.77 0 0 1-1.296-1.242q-.432-.846-.432-2.106v-2.934h-.612q-.576 0-.9-.306-.306-.306-.306-.882t.306-.864q.324-.306.9-.306h.612v-1.116q0-.792.414-1.206t1.188-.414 1.188.414.414 1.206v1.116h1.476q.594 0 .9.306.324.288.324.864t-.324.882q-.306.306-.9.306H53.16v2.826q0 .666.306.99.324.306 1.008.306.252 0 .486-.054t.432-.054a.55.55 0 0 1 .468.18q.18.18.18.846 0 .54-.162.918-.162.36-.576.522-.252.09-.684.144a4.5 4.5 0 0 1-.702.072"/><path fill="#E0E0E0" fill-rule="evenodd" d="M9 12.5a3.5 3.5 0 0 1 3.5 3.5v27.436c7.342-.458 10.764-3.277 12.592-5.959 1.73-2.536 2.257-5.067 2.724-7.314.155-.741.303-1.451.485-2.12.576-2.113 1.756-6.171 5.713-9.589 3.963-3.422 10.191-5.776 19.986-5.776a3.5 3.5 0 1 1 0 7c-8.705 0-13.104 2.082-15.41 4.074-2.313 1.997-3.044 4.331-3.536 6.132-.055.203-.12.53-.204.956-.42 2.122-1.325 6.694-3.974 10.58a19 19 0 0 1-1.732 2.184H54a3.5 3.5 0 1 1 0 7H11a5.5 5.5 0 0 1-5.5-5.5V16A3.5 3.5 0 0 1 9 12.5" clip-rule="evenodd"/></svg>