<svg width="16" height="16" viewBox="0 0 16 16" fill="none" xmlns="http://www.w3.org/2000/svg">
<path d="M10.4058 6.08062C10.597 6.03686 10.7958 6.01014 11 6.00237C11.0414 6.0008 11.0831 6 11.125 6C12.7404 6 14.05 7.18513 14.05 8.64706C14.05 9.40714 13.696 10.0924 13.1291 10.5752C13.2989 10.774 13.4 11.0234 13.4 11.2941V11.6863L16 10.1176V16L13.4 14.4314V14.8235C13.4 15.4733 12.818 16 12.1 16H6.25C5.53203 16 4.95 15.4733 4.95 14.8235V12.9082C3.81394 12.5448 3 11.5643 3 10.4118C3 8.94983 4.30957 7.76471 5.925 7.76471C6.40224 7.76471 6.85278 7.86814 7.25074 8.05158C7.57517 8.20113 7.86467 8.40385 8.1052 8.64706C8.13848 8.68071 8.17082 8.71513 8.20218 8.75029C8.20073 8.71604 8.2 8.68163 8.2 8.64706C8.2 8.27762 8.28363 7.92587 8.43468 7.60644C8.46297 7.54664 8.49361 7.48798 8.52651 7.43054C8.90646 6.76722 9.58744 6.26786 10.4058 6.08062Z" fill="#FC7F7F"/>
<path d="M3.92857 16C4.04819 16 4.16157 15.9741 4.26306 15.9277C4.06628 15.6125 3.95 15.2392 3.95 14.8235V13.5639C2.81408 12.9472 2 11.796 2 10.4118C2 8.85849 3.00847 7.61238 4.36899 7.06539C4.21598 6.74406 4.125 6.34158 4.125 5.90476C4.125 4.85279 4.65266 4 5.30357 4C5.95448 4 6.48214 4.85279 6.48214 5.90476C6.48214 6.22263 6.43397 6.5223 6.34877 6.78577C6.77687 6.82854 7.18698 6.93548 7.56629 7.09764C7.70528 6.82196 7.88006 6.56716 8.08407 6.33714C8.06412 6.19823 8.05357 6.05348 8.05357 5.90476C8.05357 4.85279 8.58123 4 9.23214 4C9.701 4 10.1059 4.44247 10.2957 5.08313C10.5221 5.0373 10.7542 5.00984 10.9896 5.0022C10.8132 2.21092 8.42289 0 5.5 0C2.46243 0 0 2.38781 0 5.33333V15.2381C0 15.6589 0.351776 16 0.785714 16C1.21965 16 1.57143 15.6589 1.57143 15.2381V14.4762C1.57143 14.0554 1.92321 13.7143 2.35714 13.7143C2.79108 13.7143 3.14286 14.0554 3.14286 14.4762V15.2381C3.14286 15.6589 3.49463 16 3.92857 16Z" fill="#FC7F7F"/>
</svg>
