<svg width="16" height="16" viewBox="0 0 16 16" fill="none" xmlns="http://www.w3.org/2000/svg">
<g clip-path="url(#clip0_2697_14565)">
<path d="M2.875 11.363C3.16524 11.4056 3.45905 11.4089 3.75 11.3728V14.5837C3.75004 14.6872 3.76291 14.7906 3.78516 14.8914C3.69493 15.0323 3.54527 15.1247 3.375 15.1248C3.09906 15.1247 2.87524 14.8826 2.875 14.5837V11.363ZM6.375 14.5837C6.37504 14.6872 6.38791 14.7906 6.41016 14.8914C6.31993 15.0323 6.17027 15.1247 6 15.1248C5.72406 15.1247 5.50024 14.8826 5.5 14.5837V10.5867C5.54969 10.5427 5.59892 10.4975 5.64648 10.45C5.78473 10.3117 5.90772 10.1632 6.01562 10.0085L6.26465 9.65112C6.30173 9.64461 6.33808 9.63432 6.375 9.62671V14.5837ZM12.2275 3.8064C13.8734 4.11581 15.125 5.67028 15.125 7.54175V14.5837C15.1248 14.8827 14.901 15.1248 14.625 15.1248C14.349 15.1248 14.1252 14.8827 14.125 14.5837V14.0417C14.125 13.7426 13.9011 13.4998 13.625 13.4998C13.3489 13.4998 13.125 13.7426 13.125 14.0417V14.5837C13.1248 14.8827 12.901 15.1248 12.625 15.1248C12.349 15.1248 12.1252 14.8827 12.125 14.5837V14.0417C12.125 13.7426 11.9011 13.4998 11.625 13.4998C11.3489 13.4998 11.125 13.7426 11.125 14.0417V14.5837C11.1248 14.8827 10.901 15.1248 10.625 15.1248C10.349 15.1248 10.1252 14.8827 10.125 14.5837V14.0417C10.125 13.7426 9.90114 13.4998 9.625 13.4998C9.34886 13.4998 9.125 13.7426 9.125 14.0417V14.5837C9.1248 14.8827 8.90102 15.1248 8.625 15.1248C8.34898 15.1248 8.1252 14.8827 8.125 14.5837V8.75269C8.17752 8.70622 8.23076 8.65999 8.28125 8.61011L9.04688 7.85229C9.74338 7.65586 10.4021 7.28517 10.9502 6.73706C11.7628 5.9242 12.1882 4.87108 12.2275 3.8064ZM2.875 9.573C3.15827 9.66703 3.46323 9.67594 3.75 9.59644V10.364C3.46035 10.4163 3.16315 10.4111 2.875 10.3494V9.573ZM11.5 6.59351C11.0858 6.59351 10.75 7.20011 10.75 7.948C10.75 8.69585 11.0858 9.30249 11.5 9.30249C11.9142 9.30249 12.25 8.69585 12.25 7.948C12.25 7.20011 11.9142 6.59351 11.5 6.59351ZM14 6.59351C13.5858 6.59351 13.25 7.20011 13.25 7.948C13.25 8.69585 13.5858 9.30249 14 9.30249C14.4142 9.30249 14.75 8.69585 14.75 7.948C14.75 7.20011 14.4142 6.59351 14 6.59351ZM6.375 8.60132C6.08963 8.6826 5.79435 8.71647 5.5 8.70581V7.95581C5.79678 7.9704 6.09539 7.92131 6.375 7.80835V8.60132ZM3.7002 5.10034C3.45938 5.67528 3.49185 6.33602 3.79492 6.88843C3.76646 7.10259 3.75001 7.32087 3.75 7.54175V8.00952C3.70427 7.96934 3.65694 7.93013 3.61328 7.88647C3.29884 7.572 3.07676 7.20071 2.94238 6.8064C3.04677 6.23123 3.2699 5.70263 3.58496 5.25269L3.7002 5.10034ZM11.2275 3.77515C11.1958 4.59459 10.8678 5.40444 10.2422 6.03003C9.6606 6.61157 8.9199 6.93632 8.16016 7.00464C8.3826 5.30505 9.6451 3.96898 11.2275 3.77515ZM8.00586 3.90601C7.19857 4.60301 6.63496 5.59658 6.44531 6.70972C6.18598 6.59042 5.93828 6.43735 5.70996 6.24878C6.08662 5.1242 6.93992 4.24768 8.00586 3.90601ZM5.38086 3.90601C5.10836 4.14128 4.86424 4.41067 4.65234 4.70679C4.6091 4.57612 4.57371 4.44343 4.54688 4.30933C4.80474 4.13781 5.08452 4.00099 5.38086 3.90601Z" fill="#E0E0E0"/>
<path d="M1.75737 6.56071C1.85324 6.46484 1.95561 6.37942 2.06306 6.30447C2.09484 6.58266 2.15939 6.85777 2.25662 7.12366C1.70242 7.71156 1.71257 8.63723 2.2877 9.21236C2.86282 9.78748 3.78836 9.7975 4.37626 9.2433C4.64216 9.34055 4.91725 9.40507 5.19545 9.43687C5.12049 9.54433 5.03522 9.64681 4.93935 9.74269C4.06067 10.6214 2.63605 10.6214 1.75737 9.74269C0.878686 8.86401 0.878686 7.43939 1.75737 6.56071Z" fill="#E0E0E0"/>
<path d="M3.60148 3.92161C3.61365 4.26937 3.6691 4.61593 3.76876 4.95224C3.36824 5.72841 3.49321 6.70556 4.14385 7.3562C4.79448 8.00683 5.77152 8.13165 6.54769 7.73116C6.88404 7.83085 7.23063 7.8864 7.57844 7.89857C6.47913 8.98464 4.70777 8.98078 3.61352 7.88653C2.51927 6.79229 2.51541 5.02092 3.60148 3.92161Z" fill="#E0E0E0"/>
<path d="M5.46968 6.03038C4.15166 4.71236 4.15166 2.57542 5.46968 1.25741C6.78769 -0.0606141 8.92463 -0.0606141 10.2426 1.25741C11.5607 2.57542 11.5607 4.71236 10.2426 6.03038C8.92463 7.3484 6.7877 7.3484 5.46968 6.03038Z" fill="#E0E0E0"/>
</g>
<defs>
<clipPath id="clip0_2697_14565">
<rect width="16" height="16" fill="white"/>
</clipPath>
</defs>
</svg>
