<svg xmlns="http://www.w3.org/2000/svg" width="128" height="128" fill="none"><path fill="#E0E0E0" d="M95.753 57.722c8.034 0 14.548 5.884 14.548 13.142 0 3.774-1.761 7.176-4.58 9.573 1.391 1.626 1.347 3.515 1.347 5.517L120 78.166v29.205l-12.932-7.788v1.947c0 3.226-2.895 5.841-6.466 5.841H71.505c-3.57 0-6.466-2.615-6.466-5.841v-9.51c-5.65-1.804-9.699-6.672-9.699-12.394 0-7.259 6.514-13.143 14.549-13.143 4.576 0 8.659 1.91 11.326 4.894a12.2 12.2 0 0 1 1.613-6.553c2.421-4.22 7.3-7.102 12.925-7.102"/><path fill="#E0E0E0" fill-rule="evenodd" d="M41.6 15c18.557 0 33.6 14.612 33.6 32.638v10.17a25.3 25.3 0 0 0-4.67-.554c.678-1.778 1.07-3.875 1.07-6.12 0-6.437-3.224-11.656-7.2-11.656s-7.2 5.22-7.2 11.657c0 3.309.852 6.296 2.22 8.418-7.624 3.514-13.317 10.793-13.317 20.073 0 7.692 4.009 14.087 9.7 18.028v3.876q.001 1.277.197 2.467v4.254c0 2.575-2.149 4.662-4.8 4.662s-4.8-2.087-4.8-4.662v-4.663c0-2.575-2.149-4.662-4.8-4.662s-4.8 2.087-4.8 4.662v4.663c0 2.575-2.149 4.662-4.8 4.662s-4.8-2.087-4.8-4.662v-4.663c0-2.575-2.149-4.662-4.8-4.662s-4.8 2.087-4.8 4.662v4.663c0 2.575-2.149 4.662-4.8 4.662S8 110.826 8 108.251V47.638C8 29.612 23.043 15 41.6 15m-1.2 47.791c3.977 0 7.2-5.219 7.2-11.656s-3.224-11.657-7.2-11.657-7.2 5.22-7.2 11.657 3.224 11.656 7.2 11.656" clip-rule="evenodd"/><path stroke="#000" stroke-opacity=".3" d="m107.568 100.468 12.174 7.331.758.457V77.281l-.758.456-12.175 7.333c-.014-1.552-.139-3.142-1.162-4.57 2.709-2.46 4.396-5.865 4.396-9.636 0-7.581-6.786-13.642-15.048-13.642-5.793 0-10.843 2.97-13.359 7.353a12.75 12.75 0 0 0-1.669 5.584c-2.174-2.046-5.045-3.473-8.26-3.976a18 18 0 0 0-.77-.102 17 17 0 0 0-1.806-.098c-8.262 0-15.049 6.062-15.049 13.643 0 5.853 4.055 10.81 9.7 12.755v9.149c0 3.549 3.167 6.341 6.965 6.341h29.097c3.798 0 6.966-2.792 6.966-6.341zM75.095 58.296l.605.13V47.637C75.7 29.324 60.42 14.5 41.6 14.5S7.5 29.323 7.5 47.638v60.613c0 2.865 2.387 5.162 5.3 5.162s5.3-2.297 5.3-5.162v-4.663c0-2.285 1.911-4.162 4.3-4.162s4.3 1.877 4.3 4.162v4.663c0 2.865 2.387 5.162 5.3 5.162s5.3-2.297 5.3-5.162v-4.663c0-2.285 1.911-4.162 4.3-4.162s4.3 1.877 4.3 4.162v4.663c0 2.865 2.387 5.162 5.3 5.162s5.3-2.297 5.3-5.162v-4.295l-.007-.04a15 15 0 0 1-.19-2.386v-4.137l-.216-.15c-5.574-3.86-9.484-10.11-9.484-17.617 0-9.056 5.551-16.173 13.026-19.62l.523-.24-.312-.484c-1.308-2.028-2.14-4.917-2.14-8.147 0-3.142.787-5.961 2.034-7.98 1.252-2.026 2.915-3.177 4.666-3.177 1.75 0 3.414 1.15 4.666 3.177 1.246 2.019 2.034 4.838 2.034 7.98 0 2.188-.382 4.223-1.038 5.94l-.252.661.707.018c1.56.04 3.093.223 4.578.542ZM47.1 51.135c0 3.14-.788 5.96-2.034 7.98-1.252 2.026-2.915 3.176-4.666 3.176-1.75 0-3.414-1.15-4.666-3.177-1.247-2.018-2.034-4.838-2.034-7.98 0-3.14.787-5.96 2.034-7.979 1.252-2.026 2.915-3.177 4.666-3.177 1.75 0 3.414 1.15 4.666 3.177 1.246 2.019 2.034 4.838 2.034 7.98Z"/></svg>