<svg xmlns:xlink="http://www.w3.org/1999/xlink" width="64" xmlns="http://www.w3.org/2000/svg" height="64" id="screenshot-2e2c1a50-41e2-11ed-aa7b-c7a9c7aebc6f" viewBox="0 0 64 64" style="-webkit-print-color-adjust: exact;" fill="none" version="1.1"><g id="shape-2e2c1a50-41e2-11ed-aa7b-c7a9c7aebc6f"><defs><clipPath id="frame-clip-2e2c1a50-41e2-11ed-aa7b-c7a9c7aebc6f-3c0db8e0-41e2-11ed-9cec-f3aad47cbb96" class="frame-clip"><rect rx="0" ry="0" x="0" y="0" width="63.99999999999979" height="64" transform="matrix(1,0,0,1,0,0)"/></clipPath></defs><g clip-path="url(#frame-clip-2e2c1a50-41e2-11ed-aa7b-c7a9c7aebc6f-3c0db8e0-41e2-11ed-9cec-f3aad47cbb96)"><clipPath id="frame-clip-2e2c1a50-41e2-11ed-aa7b-c7a9c7aebc6f-3c0db8e0-41e2-11ed-9cec-f3aad47cbb96" class="frame-clip"><rect rx="0" ry="0" x="0" y="0" width="63.99999999999979" height="64" transform="matrix(1,0,0,1,0,0)"/></clipPath><g id="fills-2e2c1a50-41e2-11ed-aa7b-c7a9c7aebc6f"><rect rx="0" ry="0" x="0" y="0" transform="matrix(1,0,0,1,0,0)" width="63.99999999999979" height="64" class="frame-background"/></g><g class="frame-children"><g id="shape-2e2c1a51-41e2-11ed-aa7b-c7a9c7aebc6f"><g id="fills-2e2c1a51-41e2-11ed-aa7b-c7a9c7aebc6f"><rect rx="1" ry="1" x="8" y="40" transform="matrix(1,0,0,1,0,0)" width="28" height="20" style="fill: rgb(255, 255, 255); fill-opacity: 1;"/></g></g><g id="shape-2e2c1a52-41e2-11ed-aa7b-c7a9c7aebc6f"><g id="fills-2e2c1a52-41e2-11ed-aa7b-c7a9c7aebc6f"><path rx="0" ry="0" d="M40,43.457C48.196,41.949,46.152,40,56,40C56,46.542,56,55.206,56,60C48.206,60,47.205,58.314,40,56.569C40,53.253,40,46.659,40,43.457Z" style="fill: rgb(255, 255, 255); fill-opacity: 1;"/></g></g><g id="shape-2e2c1a53-41e2-11ed-aa7b-c7a9c7aebc6f"><g id="fills-2e2c1a53-41e2-11ed-aa7b-c7a9c7aebc6f"><ellipse rx="6" ry="6.0000000000000036" cx="30" cy="30" transform="matrix(1,0,0,1,0,0)" style="fill: rgb(255, 255, 255); fill-opacity: 1;"/></g></g><g id="shape-2e2c1a54-41e2-11ed-aa7b-c7a9c7aebc6f"><g id="fills-2e2c1a54-41e2-11ed-aa7b-c7a9c7aebc6f"><ellipse rx="6" ry="6.0000000000000036" cx="14" cy="30.000000000000004" transform="matrix(1,0,0,1,0,0)" style="fill: rgb(255, 255, 255); fill-opacity: 1;"/></g></g><g id="shape-2e2c1a55-41e2-11ed-aa7b-c7a9c7aebc6f"><g id="fills-2e2c1a55-41e2-11ed-aa7b-c7a9c7aebc6f"><rect rx="0" ry="0" x="4" y="4" transform="matrix(1,0,0,1,0,0)" width="56" height="16" style="fill: rgb(255, 255, 255); fill-opacity: 1;"/></g></g></g></g></g></svg>