<svg width="16" height="16" viewBox="0 0 16 16" fill="none" xmlns="http://www.w3.org/2000/svg">
<path d="M2.30698 9.43958C2.43481 9.31176 2.5713 9.19788 2.71457 9.09794C2.75694 9.46886 2.84301 9.83567 2.97266 10.1902C2.23372 10.9741 2.24725 12.2083 3.01409 12.9751C3.78092 13.742 5.01498 13.7553 5.79884 13.0164C6.15337 13.146 6.52016 13.2321 6.89109 13.2745C6.79115 13.4177 6.67746 13.5544 6.54962 13.6822C5.37805 14.8538 3.47855 14.8538 2.30698 13.6822C1.13541 12.5107 1.13541 10.6112 2.30698 9.43958Z" fill="#E0E0E0"/>
<path d="M4.7658 5.9208C4.78202 6.38447 4.85596 6.84655 4.98884 7.29496C4.45481 8.32986 4.62144 9.63272 5.48896 10.5002C6.35646 11.3677 7.65919 11.5342 8.69407 11.0002C9.14255 11.1331 9.60466 11.2072 10.0684 11.2234C8.60267 12.6715 6.24085 12.6663 4.78185 11.2074C3.32286 9.74836 3.31771 7.38654 4.7658 5.9208Z" fill="#E0E0E0"/>
<path d="M7.25673 8.73248C5.49937 6.97512 5.49937 4.12588 7.25673 2.36852C9.01409 0.611157 11.8633 0.611157 13.6207 2.36852C15.378 4.12588 15.378 6.97512 13.6207 8.73248C11.8633 10.4898 9.01409 10.4898 7.25673 8.73248Z" fill="#E0E0E0"/>
</svg>
