<svg width="12" height="12" viewBox="0 0 12 12" fill="none" xmlns="http://www.w3.org/2000/svg">
<path fill-rule="evenodd" clip-rule="evenodd" d="M2.5 0C3.88071 0 5 1.04467 5 2.33333V3.11777C3.33551 3.51497 2 4.88106 2 6.66667V6.93336C1.94031 6.9752 1.86611 7 1.78571 7C1.58847 7 1.42857 6.85076 1.42857 6.66667V6.33333C1.42857 6.14924 1.26867 6 1.07143 6C0.874184 6 0.714286 6.14924 0.714286 6.33333V6.66667C0.714286 6.85076 0.554387 7 0.357143 7C0.159898 7 0 6.85076 0 6.66667V2.33333C0 1.04467 1.11929 0 2.5 0ZM10 6.66667V6.93336C10.0597 6.9752 10.1339 7 10.2143 7C10.4115 7 10.5714 6.85076 10.5714 6.66667V6.33333C10.5714 6.14924 10.7313 6 10.9286 6C11.1258 6 11.2857 6.14924 11.2857 6.33333V6.66667C11.2857 6.85076 11.4456 7 11.6429 7C11.8401 7 12 6.85076 12 6.66667V2.33333C12 1.04467 10.8807 0 9.5 0C8.11929 0 7 1.04467 7 2.33333V3.11777C8.66449 3.51497 10 4.88106 10 6.66667ZM1.68129 3.41667C1.97716 3.41667 2.217 3.04357 2.217 2.58333C2.217 2.1231 1.97716 1.75 1.68129 1.75C1.38542 1.75 1.14558 2.1231 1.14558 2.58333C1.14558 3.04357 1.38542 3.41667 1.68129 3.41667ZM4.00272 2.58333C4.00272 3.04357 3.76287 3.41667 3.467 3.41667C3.17114 3.41667 2.93129 3.04357 2.93129 2.58333C2.93129 2.1231 3.17114 1.75 3.467 1.75C3.76287 1.75 4.00272 2.1231 4.00272 2.58333ZM8.68129 3.41667C8.97716 3.41667 9.217 3.04357 9.217 2.58333C9.217 2.1231 8.97716 1.75 8.68129 1.75C8.38542 1.75 8.14558 2.1231 8.14558 2.58333C8.14558 3.04357 8.38542 3.41667 8.68129 3.41667ZM11.0027 2.58333C11.0027 3.04357 10.7629 3.41667 10.467 3.41667C10.1711 3.41667 9.93129 3.04357 9.93129 2.58333C9.93129 2.1231 10.1711 1.75 10.467 1.75C10.7629 1.75 11.0027 2.1231 11.0027 2.58333ZM6 4C7.65685 4 9 5.19391 9 6.66667V11.619C9 11.8294 8.80812 12 8.57143 12C8.33473 12 8.14286 11.8294 8.14286 11.619V11.2381C8.14286 11.0277 7.95098 10.8571 7.71429 10.8571C7.47759 10.8571 7.28571 11.0277 7.28571 11.2381V11.619C7.28571 11.8294 7.09384 12 6.85714 12C6.62045 12 6.42857 11.8294 6.42857 11.619V11.2381C6.42857 11.0277 6.23669 10.8571 6 10.8571C5.76331 10.8571 5.57143 11.0277 5.57143 11.2381V11.619C5.57143 11.8294 5.37955 12 5.14286 12C4.90616 12 4.71429 11.8294 4.71429 11.619V11.2381C4.71429 11.0277 4.52241 10.8571 4.28571 10.8571C4.04902 10.8571 3.85714 11.0277 3.85714 11.2381V11.619C3.85714 11.8294 3.66526 12 3.42857 12C3.19188 12 3 11.8294 3 11.619V6.66667C3 5.19391 4.34315 4 6 4ZM5.01755 7.90476C5.37259 7.90476 5.6604 7.47837 5.6604 6.95238C5.6604 6.4264 5.37259 6 5.01755 6C4.66251 6 4.37469 6.4264 4.37469 6.95238C4.37469 7.47837 4.66251 7.90476 5.01755 7.90476ZM7.80326 6.95238C7.80326 7.47837 7.51544 7.90476 7.1604 7.90476C6.80536 7.90476 6.51755 7.47837 6.51755 6.95238C6.51755 6.4264 6.80536 6 7.1604 6C7.51544 6 7.80326 6.4264 7.80326 6.95238Z" fill="white"/>
</svg>
