<svg xmlns="http://www.w3.org/2000/svg" width="128" height="128" fill="none"><path fill="#fff" fill-rule="evenodd" d="M36 16c11.046 0 20 8.357 20 18.667v6.275C42.684 44.12 32 55.048 32 69.333v2.134a3 3 0 0 1-1.714.533c-1.578 0-2.857-1.194-2.857-2.667v-2.666c0-1.473-1.28-2.667-2.858-2.667s-2.857 1.194-2.857 2.667v2.666c0 1.473-1.279 2.667-2.857 2.667S16 70.806 16 69.333V34.667C16 24.357 24.954 16 36 16m-6.55 27.333c2.367 0 4.286-2.984 4.286-6.666S31.817 30 29.45 30s-4.285 2.985-4.285 6.667 1.918 6.666 4.285 6.666m18.572-6.666c0 3.682-1.919 6.666-4.286 6.666s-4.286-2.984-4.286-6.666S41.37 30 43.736 30c2.367 0 4.286 2.985 4.286 6.667M96 69.333v2.134a3 3 0 0 0 1.714.533c1.578 0 2.857-1.194 2.857-2.667v-2.666c0-1.473 1.28-2.667 2.858-2.667s2.857 1.194 2.857 2.667v2.666c0 1.473 1.279 2.667 2.857 2.667S112 70.806 112 69.333V34.667C112 24.357 103.046 16 92 16s-20 8.357-20 18.667v6.275c13.316 3.178 24 14.106 24 28.391m-10.55-26c2.367 0 4.286-2.984 4.286-6.666S87.817 30 85.45 30s-4.285 2.985-4.285 6.667 1.918 6.666 4.285 6.666m18.572-6.666c0 3.682-1.919 6.666-4.286 6.666s-4.286-2.984-4.286-6.666S97.37 30 99.736 30c2.367 0 4.286 2.985 4.286 6.667" clip-rule="evenodd"/><path fill="#fff" fill-rule="evenodd" d="M64 48c13.255 0 24 9.551 24 21.333v39.619c0 1.684-1.535 3.048-3.429 3.048s-3.428-1.364-3.428-3.048v-3.047c0-1.683-1.535-3.048-3.429-3.048s-3.428 1.365-3.428 3.048v3.047c0 1.684-1.535 3.048-3.429 3.048s-3.428-1.364-3.428-3.048v-3.047c0-1.683-1.535-3.048-3.429-3.048s-3.429 1.365-3.429 3.048v3.047c0 1.684-1.535 3.048-3.428 3.048s-3.429-1.364-3.429-3.048v-3.047c0-1.683-1.535-3.048-3.428-3.048s-3.429 1.365-3.429 3.048v3.047c0 1.684-1.535 3.048-3.428 3.048S40 110.636 40 108.952V69.333C40 57.551 50.745 48 64 48m-7.86 31.238c2.84 0 5.143-3.411 5.143-7.619S58.981 64 56.14 64s-5.142 3.411-5.142 7.619 2.302 7.62 5.142 7.62m22.286-7.619c0 4.208-2.302 7.62-5.143 7.62s-5.143-3.412-5.143-7.62S70.443 64 73.283 64s5.143 3.411 5.143 7.619" clip-rule="evenodd"/></svg>