<svg width="64" height="64" viewBox="0 0 64 64" fill="none" xmlns="http://www.w3.org/2000/svg">
<path fill-rule="evenodd" clip-rule="evenodd" d="M52.3068 21.4737C52.3068 14.9335 46.4687 9.63159 39.2671 9.63159C34.226 9.63159 29.853 12.2294 27.6829 16.0314C26.6647 17.8152 26.1501 19.8783 26.237 21.9355C23.8466 19.2464 20.1871 17.5263 16.0852 17.5263C8.88357 17.5263 3.04547 22.8282 3.04547 29.3684C3.04547 34.5246 6.67403 38.911 11.7386 40.5367V49.1053C11.7386 52.012 14.3334 54.3684 17.5341 54.3684H43.6136C46.8144 54.3684 49.4091 52.012 49.4091 49.1053V47.3509L61 54.3684V28.0526L49.4091 35.0702C49.4091 35.0163 49.4091 34.9625 49.4092 34.9088C49.4103 33.1652 49.4114 31.5208 48.2014 30.0995C50.7287 27.9397 52.3068 24.874 52.3068 21.4737ZM42.9861 30.74L30.4059 24.9741C30.1414 24.8529 29.8371 24.8529 29.5726 24.9741L16.9924 30.74L16.9924 30.7401V45.3616L29.9893 51.3185L42.9861 45.3616V44.7218V44.7198V30.7401V30.74ZM18.617 33.4481L27.8231 37.2388V48.0686L18.617 43.7364V33.4481ZM20.2416 30.7402L29.9893 26.4079L39.7369 30.7402L29.9893 34.5309L20.2416 30.7402Z" fill="#F5F5F5"/>
</svg>
