<svg xmlns:xlink="http://www.w3.org/1999/xlink" width="16" xmlns="http://www.w3.org/2000/svg" height="16" id="screenshot-4a913400-41a6-11ed-ab1a-5541c21bc69d" viewBox="0 0 16 16" style="-webkit-print-color-adjust: exact;" fill="none" version="1.1"><g id="shape-4a913400-41a6-11ed-ab1a-5541c21bc69d"><defs><clipPath id="frame-clip-4a913400-41a6-11ed-ab1a-5541c21bc69d-e8c0dcc0-41ab-11ed-b671-f5aa7b25424d" class="frame-clip"><rect rx="0" ry="0" x="0" y="0" width="16" height="16" transform="matrix(1,0,0,1,0,0)"/></clipPath></defs><g clip-path="url(#frame-clip-4a913400-41a6-11ed-ab1a-5541c21bc69d-e8c0dcc0-41ab-11ed-b671-f5aa7b25424d)"><clipPath id="frame-clip-4a913400-41a6-11ed-ab1a-5541c21bc69d-e8c0dcc0-41ab-11ed-b671-f5aa7b25424d" class="frame-clip"><rect rx="0" ry="0" x="0" y="0" width="16" height="16" transform="matrix(1,0,0,1,0,0)"/></clipPath><g id="fills-4a913400-41a6-11ed-ab1a-5541c21bc69d"><rect rx="0" ry="0" x="0" y="0" transform="matrix(1,0,0,1,0,0)" width="16" height="16" class="frame-background"/></g><g class="frame-children"><g id="shape-b65a55e0-41ab-11ed-ab1a-5541c21bc69d"><g id="fills-b65a55e0-41ab-11ed-ab1a-5541c21bc69d"><rect rx="1" ry="1" x="2" y="10" transform="matrix(1,0,0,1,0,0)" width="7" height="5" style="fill: rgb(255, 255, 255); fill-opacity: 1;"/></g></g><g id="shape-b65a55e1-41ab-11ed-ab1a-5541c21bc69d"><g id="fills-b65a55e1-41ab-11ed-ab1a-5541c21bc69d"><path rx="0" ry="0" d="M10,10.864C12.049,10.487,11.538,10,14,10C14,11.636,14,13.802,14,15C12.051,15,11.801,14.579,10,14.142C10,13.313,10,11.665,10,10.864Z" style="fill: rgb(255, 255, 255); fill-opacity: 1;"/></g></g><g id="shape-b65a55e2-41ab-11ed-ab1a-5541c21bc69d"><g id="fills-b65a55e2-41ab-11ed-ab1a-5541c21bc69d"><ellipse rx="1.5" ry="1.5" cx="7.5" cy="7.5" transform="matrix(1,0,0,1,0,0)" style="fill: rgb(255, 255, 255); fill-opacity: 1;"/></g></g><g id="shape-b65a55e3-41ab-11ed-ab1a-5541c21bc69d"><g id="fills-b65a55e3-41ab-11ed-ab1a-5541c21bc69d"><ellipse rx="1.5" ry="1.5" cx="3.5" cy="7.5" transform="matrix(1,0,0,1,0,0)" style="fill: rgb(255, 255, 255); fill-opacity: 1;"/></g></g><g id="shape-cb30cee0-41ab-11ed-ab1a-5541c21bc69d"><g id="fills-cb30cee0-41ab-11ed-ab1a-5541c21bc69d"><rect rx="0" ry="0" x="1" y="1" transform="matrix(1,0,0,1,0,0)" width="14" height="4" style="fill: rgb(255, 255, 255); fill-opacity: 1;"/></g></g></g></g></g></svg>