<svg width="16" height="16" viewBox="0 0 16 16" fill="none" xmlns="http://www.w3.org/2000/svg">
<path fill-rule="evenodd" clip-rule="evenodd" d="M12 6C12 3.79086 10.2091 2 8 2C5.79086 2 4 3.79086 4 6V13.4286C4 13.7442 4.25584 14 4.57143 14C4.88702 14 5.14286 13.7442 5.14286 13.4286V12.8571C5.14286 12.5416 5.39869 12.2857 5.71429 12.2857C6.02988 12.2857 6.28571 12.5416 6.28571 12.8571V13.4286C6.28571 13.7442 6.54155 14 6.85714 14C7.17273 14 7.42857 13.7442 7.42857 13.4286V12.8571C7.42857 12.5416 7.68441 12.2857 8 12.2857C8.31559 12.2857 8.57143 12.5416 8.57143 12.8571V13.4286C8.57143 13.7442 8.82727 14 9.14286 14C9.45845 14 9.71429 13.7442 9.71429 13.4286V12.8571C9.71429 12.5416 9.97012 12.2857 10.2857 12.2857C10.6013 12.2857 10.8571 12.5416 10.8571 12.8571V13.4286C10.8571 13.7442 11.113 14 11.4286 14C11.7442 14 12 13.7442 12 13.4286V6ZM7.51428 6.42857C7.51428 7.21755 7.13053 7.85714 6.65714 7.85714C6.18375 7.85714 5.8 7.21755 5.8 6.42857C5.8 5.63959 6.18375 5 6.65714 5C7.13053 5 7.51428 5.63959 7.51428 6.42857ZM9.51429 7.85714C9.98768 7.85714 10.3714 7.21755 10.3714 6.42857C10.3714 5.63959 9.98768 5 9.51429 5C9.0409 5 8.65715 5.63959 8.65715 6.42857C8.65715 7.21755 9.0409 7.85714 9.51429 7.85714Z" fill="#F5F5F5"/>
<path fill-rule="evenodd" clip-rule="evenodd" d="M12.6464 1.64645C12.8417 1.45118 13.1583 1.45118 13.3536 1.64645L14.6464 2.93934C15.2322 3.52513 15.2322 4.47487 14.6464 5.06066L14.0607 5.64645C13.8654 5.84171 13.8654 6.15829 14.0607 6.35355L14.6464 6.93934C15.2322 7.52513 15.2322 8.47487 14.6464 9.06066L14.0607 9.64645C13.8654 9.84171 13.8654 10.1583 14.0607 10.3536L14.6464 10.9393C15.2322 11.5251 15.2322 12.4749 14.6464 13.0607L13.3536 14.3536C13.1583 14.5488 12.8417 14.5488 12.6464 14.3536C12.4512 14.1583 12.4512 13.8417 12.6464 13.6464L13.9393 12.3536C14.1346 12.1583 14.1346 11.8417 13.9393 11.6464L13.3536 11.0607C12.7678 10.4749 12.7678 9.52513 13.3536 8.93934L13.9393 8.35355C14.1346 8.15829 14.1346 7.84171 13.9393 7.64645L13.3536 7.06066C12.7678 6.47487 12.7678 5.52513 13.3536 4.93934L13.9393 4.35355C14.1346 4.15829 14.1346 3.84171 13.9393 3.64645L12.6464 2.35355C12.4512 2.15829 12.4512 1.84171 12.6464 1.64645Z" fill="#F5F5F5"/>
<path fill-rule="evenodd" clip-rule="evenodd" d="M3.35355 1.64645C3.15829 1.45118 2.84171 1.45118 2.64645 1.64645L1.35355 2.93934C0.767766 3.52513 0.767767 4.47487 1.35355 5.06066L1.93934 5.64645C2.1346 5.84171 2.1346 6.15829 1.93934 6.35355L1.35355 6.93934C0.767766 7.52513 0.767767 8.47487 1.35355 9.06066L1.93934 9.64645C2.1346 9.84171 2.1346 10.1583 1.93934 10.3536L1.35355 10.9393C0.767766 11.5251 0.767767 12.4749 1.35355 13.0607L2.64645 14.3536C2.84171 14.5488 3.15829 14.5488 3.35355 14.3536C3.54882 14.1583 3.54882 13.8417 3.35355 13.6464L2.06066 12.3536C1.8654 12.1583 1.8654 11.8417 2.06066 11.6464L2.64645 11.0607C3.23223 10.4749 3.23223 9.52513 2.64645 8.93934L2.06066 8.35355C1.8654 8.15829 1.8654 7.84171 2.06066 7.64645L2.64645 7.06066C3.23223 6.47487 3.23223 5.52513 2.64645 4.93934L2.06066 4.35355C1.8654 4.15829 1.8654 3.84171 2.06066 3.64645L3.35355 2.35355C3.54882 2.15829 3.54882 1.84171 3.35355 1.64645Z" fill="#F5F5F5"/>
</svg>
