<svg width="24" height="25" viewBox="0 0 24 25" fill="none" xmlns="http://www.w3.org/2000/svg">
<path d="M22.3604 6.25046C22.8995 6.78949 22.6024 7.80236 21.8027 8.15222L20.0083 8.93723L16.0362 12.9093L16.2851 13.1581C16.5047 13.3778 16.5743 13.7158 16.4686 14.0502L15.9128 15.8083C15.6763 16.5568 14.7427 16.8861 14.2511 16.3945L12.3056 14.4489L10.9559 15.7986L3.9104 20.8133C3.74897 20.9282 3.58056 20.7598 3.69546 20.5983L8.71008 13.5529L10.0598 12.2032L8.11427 10.2576C7.62263 9.76598 7.95189 8.83247 8.70038 8.59588L10.4585 8.04016C10.7929 7.93446 11.131 8.00398 11.3506 8.22365L11.5995 8.47248L15.5715 4.50045L16.3565 2.70602C16.7064 1.9063 17.7192 1.60924 18.2583 2.14827L22.3604 6.25046Z" fill="#F5F5F5"/>
</svg>
