<svg width="32" height="32" viewBox="0 0 32 32" fill="none" xmlns="http://www.w3.org/2000/svg">
<path d="M13.4696 3.48718C14.5942 1.50427 17.4058 1.50428 18.5304 3.48718L31.6042 26.5385C32.7288 28.5214 31.323 31 29.0738 31H2.92622C0.676966 31 -0.72881 28.5214 0.395816 26.5385L13.4696 3.48718Z" fill="#EAA15E"/>
<path d="M16 22.0875C15.4694 22.0875 15.0408 21.9222 14.7143 21.5917C14.4082 21.2611 14.2143 20.8042 14.1327 20.2208L13.0612 11.4125C12.9184 10.4014 13.1122 9.58472 13.6429 8.9625C14.1735 8.32083 14.9592 8 16 8C17.0612 8 17.8469 8.32083 18.3571 8.9625C18.8673 9.58472 19.051 10.4014 18.9082 11.4125L17.8673 20.2208C17.7857 20.8042 17.5918 21.2611 17.2857 21.5917C16.9796 21.9222 16.551 22.0875 16 22.0875ZM16 29C15.0816 29 14.3469 28.7375 13.7959 28.2125C13.2653 27.6875 13 26.9972 13 26.1417C13 25.3056 13.2653 24.6347 13.7959 24.1292C14.3469 23.6042 15.0816 23.3417 16 23.3417C16.9592 23.3417 17.6939 23.6042 18.2041 24.1292C18.7347 24.6347 19 25.3056 19 26.1417C19 26.9972 18.7347 27.6875 18.2041 28.2125C17.6939 28.7375 16.9592 29 16 29Z" fill="black"/>
</svg>
