<svg width="64" height="64" viewBox="0 0 64 64" fill="none" xmlns="http://www.w3.org/2000/svg">
<path d="M16.2852 22L20.0472 17.428L16.5192 13.144H20.2452L21.8652 15.232L23.4852 13.144H27.1932L23.6652 17.428L27.4632 22H23.7192L21.8472 19.642L19.9932 22H16.2852Z" fill="url(#paint0_linear_604_2758)"/>
<path d="M53.916 39.1978C52.572 39.1978 51.576 38.8858 50.928 38.2618C50.28 37.6378 49.956 36.6958 49.956 35.4358V32.5018H48.3V30.1438H49.956V27.5698H53.16V30.1438H55.68V32.5018H53.16V35.3278C53.16 36.1918 53.598 36.6238 54.474 36.6238C54.618 36.6238 54.774 36.6118 54.942 36.5878C55.122 36.5518 55.32 36.5038 55.536 36.4438L55.968 38.7478C55.692 38.8918 55.368 38.9998 54.996 39.0718C54.624 39.1558 54.264 39.1978 53.916 39.1978Z" fill="url(#paint1_linear_604_2758)"/>
<path fill-rule="evenodd" clip-rule="evenodd" d="M9 12.5C10.933 12.5 12.5 14.067 12.5 16V43.4357C19.8423 42.9779 23.2638 40.159 25.0921 37.4773C26.8216 34.9406 27.3486 32.4098 27.8163 30.1634C27.9707 29.422 28.1186 28.7116 28.3012 28.0422C28.8771 25.9304 30.0569 21.8718 34.0139 18.4543C37.9767 15.0319 44.2051 12.6779 54 12.6779C55.933 12.6779 57.5 14.2449 57.5 16.1779C57.5 18.1108 55.933 19.6779 54 19.6779C45.2949 19.6779 40.8957 21.7601 38.5893 23.7521C36.277 25.749 35.5457 28.083 35.0545 29.884C34.9991 30.0871 34.9344 30.4142 34.8502 30.84C34.4303 32.9618 33.5255 37.534 30.8759 41.4205C30.3605 42.1763 29.7852 42.9072 29.144 43.604H54C55.933 43.604 57.5 45.171 57.5 47.104C57.5 49.037 55.933 50.604 54 50.604H11C7.96243 50.604 5.5 48.1416 5.5 45.104V16C5.5 14.067 7.067 12.5 9 12.5Z" fill="url(#paint2_linear_604_2758)"/>
<defs>
<linearGradient id="paint0_linear_604_2758" x1="21.7344" y1="13.7634" x2="22.4461" y2="21.9503" gradientUnits="userSpaceOnUse">
<stop stop-color="#3AB99A"/>
<stop offset="1" stop-color="#1B9E7F"/>
</linearGradient>
<linearGradient id="paint1_linear_604_2758" x1="52.0382" y1="28.3831" x2="53.7916" y2="38.922" gradientUnits="userSpaceOnUse">
<stop stop-color="#3AB99A"/>
<stop offset="1" stop-color="#1B9E7F"/>
</linearGradient>
<linearGradient id="paint2_linear_604_2758" x1="30.8375" y1="15.5251" x2="33.3369" y2="48.9667" gradientUnits="userSpaceOnUse">
<stop stop-color="#3AB99A"/>
<stop offset="1" stop-color="#1B9E7F"/>
</linearGradient>
</defs>
</svg>
