<svg width="64" height="64" viewBox="0 0 64 64" fill="none" xmlns="http://www.w3.org/2000/svg">
<path fill-rule="evenodd" clip-rule="evenodd" d="M42.9439 18.1133L35.561 22.3759C34.8649 22.7778 34.5018 23.535 34.5684 24.2861L34.4081 24.3787L40.2005 34.4114L40.3605 34.319C40.9777 34.7528 41.8154 34.8172 42.5118 34.4151L49.8949 30.1525C50.439 30.6176 51.2381 30.7144 51.8932 30.3362C52.7179 29.8601 53.0047 28.8101 52.5404 27.9819L46.1463 16.9071C45.6613 16.091 44.6086 15.8143 43.7839 16.2904C43.1286 16.6688 42.813 17.4095 42.9439 18.1133ZM48.6946 16.6869L54.005 25.8849C55.3299 24.088 55.5474 21.6052 54.3598 19.5481C53.1721 17.4911 50.9132 16.4381 48.6946 16.6869ZM38.1939 35.5699L32.4016 25.5372L28.1138 28.0127C27.4175 28.4147 27.0544 29.1722 27.1214 29.9236L26.9612 30.0161L31.5951 38.0423L31.7554 37.9497C32.3726 38.3831 33.21 38.4473 33.9062 38.0454L38.1939 35.5699ZM29.5885 39.2008L24.9546 31.1746L20.667 33.6501C19.9709 34.052 19.6077 34.8092 19.6745 35.5604L19.5141 35.653L22.9896 41.6726L23.1496 41.5802C23.7669 42.014 24.6045 42.0783 25.3009 41.6762L29.5885 39.2008ZM20.983 42.8311L17.5076 36.8114L11.488 40.2869L10.8296 39.1465C10.5534 38.6682 9.94184 38.5044 9.46354 38.7805L9.18906 38.939C8.71077 39.2151 8.54689 39.8267 8.82303 40.305L10.4786 43.1726L10.4814 43.1774L11.9568 45.7329L11.9596 45.7378L13.6154 48.6056C13.8915 49.0839 14.5031 49.2478 14.9814 48.9716L15.2559 48.8132C15.7342 48.537 15.8981 47.9254 15.6219 47.4471L14.9634 46.3065L20.983 42.8311Z" fill="url(#paint0_linear_604_2755)"/>
<defs>
<linearGradient id="paint0_linear_604_2755" x1="51.2412" y1="21.1147" x2="22.1769" y2="54.1081" gradientUnits="userSpaceOnUse">
<stop stop-color="#3AB99A"/>
<stop offset="1" stop-color="#1B9E7F"/>
</linearGradient>
</defs>
</svg>
