<svg width="64" height="64" viewBox="0 0 64 64" fill="none" xmlns="http://www.w3.org/2000/svg">
<path fill-rule="evenodd" clip-rule="evenodd" d="M48.7938 25.4645C50.7465 27.4171 50.7465 30.5829 48.7938 32.5355L22.2773 59.052C20.3247 61.0047 17.1589 61.0047 15.2063 59.052C13.2536 57.0994 13.2536 53.9336 15.2063 51.981L41.7228 25.4645C43.6754 23.5118 46.8412 23.5118 48.7938 25.4645Z" fill="url(#paint0_linear_614_3260)"/>
<path fill-rule="evenodd" clip-rule="evenodd" d="M15.2062 25.4645C13.2535 27.4171 13.2535 30.5829 15.2062 32.5355L41.7227 59.052C43.6753 61.0047 46.8411 61.0047 48.7937 59.052C50.7464 57.0994 50.7464 53.9336 48.7937 51.981L22.2772 25.4645C20.3246 23.5118 17.1588 23.5118 15.2062 25.4645Z" fill="url(#paint1_linear_614_3260)"/>
<path fill-rule="evenodd" clip-rule="evenodd" d="M23.9519 6.46992L19.4221 9.08516C18.9951 9.33174 18.7723 9.79629 18.8132 10.2572L18.7148 10.314L22.2686 16.4694L22.3668 16.4127C22.7455 16.6789 23.2595 16.7183 23.6867 16.4717L28.2165 13.8564C28.5503 14.1417 29.0406 14.2012 29.4426 13.9691C29.9485 13.677 30.1245 13.0328 29.8396 12.5246L25.9167 5.72987C25.619 5.22911 24.9732 5.05939 24.4672 5.3515C24.0652 5.58363 23.8715 6.03809 23.9519 6.46992ZM27.4801 5.59476L30.7383 11.2381C31.5511 10.1356 31.6846 8.61231 30.9559 7.35022C30.2272 6.08813 28.8413 5.44207 27.4801 5.59476ZM21.0376 17.1801L17.4837 11.0247L14.8531 12.5435C14.4258 12.7902 14.2031 13.255 14.2441 13.716L14.1458 13.7727L16.9889 18.6971L17.0873 18.6402C17.466 18.9062 17.9798 18.9456 18.4069 18.699L21.0376 17.1801ZM15.7578 19.4078L12.9148 14.4835L10.2841 16.0023C9.85703 16.2489 9.63425 16.7134 9.67519 17.1743L9.57683 17.2311L11.7091 20.9244L11.8073 20.8677C12.186 21.1338 12.7 21.1733 13.1272 20.9266L15.7578 19.4078ZM10.478 21.6351L8.34574 17.9419L4.65247 20.0742L4.24852 19.3746C4.0791 19.0811 3.70386 18.9806 3.41041 19.15L3.24201 19.2472C2.94856 19.4166 2.84801 19.7919 3.01744 20.0853L4.03321 21.8447L4.03492 21.8477L4.94014 23.4156L4.94186 23.4185L5.95773 25.1781C6.12715 25.4715 6.50239 25.5721 6.79584 25.4026L6.96424 25.3054C7.25769 25.136 7.35824 24.7607 7.18881 24.4673L6.78477 23.7675L10.478 21.6351Z" fill="url(#paint2_linear_614_3260)"/>
<defs>
<linearGradient id="paint0_linear_614_3260" x1="20.0891" y1="30.3295" x2="15.74" y2="37.3563" gradientUnits="userSpaceOnUse">
<stop stop-color="#3AB99A"/>
<stop offset="1" stop-color="#1B9E7F"/>
</linearGradient>
<linearGradient id="paint1_linear_614_3260" x1="20.0891" y1="30.3295" x2="15.74" y2="37.3563" gradientUnits="userSpaceOnUse">
<stop stop-color="#3AB99A"/>
<stop offset="1" stop-color="#1B9E7F"/>
</linearGradient>
<linearGradient id="paint2_linear_614_3260" x1="29.0425" y1="8.31137" x2="11.2105" y2="28.5541" gradientUnits="userSpaceOnUse">
<stop stop-color="#3AB99A"/>
<stop offset="1" stop-color="#1B9E7F"/>
</linearGradient>
</defs>
</svg>
