<svg width="64" height="64" viewBox="0 0 64 64" fill="none" xmlns="http://www.w3.org/2000/svg">
<path fill-rule="evenodd" clip-rule="evenodd" d="M30 25H36C39.3137 25 42 27.6863 42 31V37C42 40.3137 39.3137 43 36 43H30C26.6863 43 24 40.3137 24 37V31C24 27.6863 26.6863 25 30 25ZM30 29C28.8954 29 28 29.8954 28 31V37C28 38.1046 28.8954 39 30 39H36C37.1046 39 38 38.1046 38 37V31C38 29.8954 37.1046 29 36 29H30Z" fill="url(#paint0_linear_614_3250)"/>
<path d="M44.4736 59C44.4736 59.5523 44.9213 60 45.4736 60C46.0259 60 46.4736 59.5523 46.4736 59V56.9091C46.4736 56.3568 46.0259 55.9091 45.4736 55.9091C44.9213 55.9091 44.4736 56.3568 44.4736 56.9091V59Z" fill="url(#paint1_linear_614_3250)"/>
<path d="M44.4736 49.5909C44.4736 50.1432 44.9213 50.5909 45.4736 50.5909C46.0259 50.5909 46.4736 50.1432 46.4736 49.5909V48.4473H47.5909C48.1432 48.4473 48.5909 47.9996 48.5909 47.4473C48.5909 46.895 48.1432 46.4473 47.5909 46.4473H46.4736V45.4091C46.4736 44.8568 46.0259 44.4091 45.4736 44.4091C44.9213 44.4091 44.4736 44.8568 44.4736 45.4091V46.4473H43.4091C42.8568 46.4473 42.4091 46.895 42.4091 47.4473C42.4091 47.9996 42.8568 48.4473 43.4091 48.4473H44.4736V49.5909Z" fill="url(#paint2_linear_614_3250)"/>
<path d="M44.4736 38.0909C44.4736 38.6432 44.9213 39.0909 45.4736 39.0909C46.0259 39.0909 46.4736 38.6432 46.4736 38.0909V33.9091C46.4736 33.3568 46.0259 32.9091 45.4736 32.9091C44.9213 32.9091 44.4736 33.3568 44.4736 33.9091V38.0909Z" fill="url(#paint3_linear_614_3250)"/>
<path d="M44.4736 26.5909C44.4736 27.1432 44.9213 27.5909 45.4736 27.5909C46.0259 27.5909 46.4736 27.1432 46.4736 26.5909V22.4091C46.4736 21.8568 46.0259 21.4091 45.4736 21.4091C44.9213 21.4091 44.4736 21.8568 44.4736 22.4091V26.5909Z" fill="url(#paint4_linear_614_3250)"/>
<path d="M44.4736 15.0909C44.4736 15.6432 44.9213 16.0909 45.4736 16.0909C46.0259 16.0909 46.4736 15.6432 46.4736 15.0909V13C46.4736 12.4477 46.0259 12 45.4736 12C44.9213 12 44.4736 12.4477 44.4736 13V15.0909Z" fill="url(#paint5_linear_614_3250)"/>
<path d="M11 46.4473C10.4477 46.4473 10 46.895 10 47.4473C10 47.9996 10.4477 48.4473 11 48.4473H13.0909C13.6432 48.4473 14.0909 47.9996 14.0909 47.4473C14.0909 46.895 13.6432 46.4473 13.0909 46.4473H11Z" fill="url(#paint6_linear_614_3250)"/>
<path d="M20.4091 46.4473C19.8568 46.4473 19.4091 46.895 19.4091 47.4473C19.4091 47.9996 19.8568 48.4473 20.4091 48.4473H24.5909C25.1432 48.4473 25.5909 47.9996 25.5909 47.4473C25.5909 46.895 25.1432 46.4473 24.5909 46.4473H20.4091Z" fill="url(#paint7_linear_614_3250)"/>
<path d="M31.9091 46.4473C31.3568 46.4473 30.9091 46.895 30.9091 47.4473C30.9091 47.9996 31.3568 48.4473 31.9091 48.4473H36.0909C36.6432 48.4473 37.0909 47.9996 37.0909 47.4473C37.0909 46.895 36.6432 46.4473 36.0909 46.4473H31.9091Z" fill="url(#paint8_linear_614_3250)"/>
<path d="M54.9091 46.4473C54.3568 46.4473 53.9091 46.895 53.9091 47.4473C53.9091 47.9996 54.3568 48.4473 54.9091 48.4473H57C57.5523 48.4473 58 47.9996 58 47.4473C58 46.895 57.5523 46.4473 57 46.4473H54.9091Z" fill="url(#paint9_linear_614_3250)"/>
<path fill-rule="evenodd" clip-rule="evenodd" d="M23.9519 6.46992L19.4221 9.08516C18.9951 9.33174 18.7723 9.79629 18.8132 10.2572L18.7148 10.314L22.2686 16.4694L22.3668 16.4127C22.7455 16.6789 23.2595 16.7183 23.6867 16.4717L28.2165 13.8564C28.5503 14.1417 29.0406 14.2012 29.4426 13.9691C29.9485 13.677 30.1245 13.0328 29.8396 12.5246L25.9167 5.72987C25.619 5.22911 24.9732 5.05939 24.4672 5.3515C24.0652 5.58363 23.8715 6.03809 23.9519 6.46992ZM27.4801 5.59476L30.7383 11.2381C31.5511 10.1356 31.6846 8.61231 30.9559 7.35022C30.2272 6.08813 28.8413 5.44207 27.4801 5.59476ZM21.0376 17.1801L17.4837 11.0247L14.8531 12.5435C14.4258 12.7902 14.2031 13.255 14.2441 13.716L14.1458 13.7727L16.9889 18.6971L17.0873 18.6402C17.466 18.9062 17.9798 18.9456 18.4069 18.699L21.0376 17.1801ZM15.7578 19.4078L12.9148 14.4835L10.2841 16.0023C9.85703 16.2489 9.63425 16.7134 9.67519 17.1743L9.57683 17.2311L11.7091 20.9244L11.8073 20.8677C12.186 21.1338 12.7 21.1733 13.1272 20.9266L15.7578 19.4078ZM10.478 21.6351L8.34574 17.9419L4.65247 20.0742L4.24852 19.3746C4.0791 19.0811 3.70386 18.9806 3.41041 19.15L3.24201 19.2472C2.94856 19.4166 2.84801 19.7919 3.01744 20.0853L4.03321 21.8447L4.03492 21.8477L4.94014 23.4156L4.94186 23.4185L5.95773 25.1781C6.12715 25.4715 6.50239 25.5721 6.79584 25.4026L6.96424 25.3054C7.25769 25.136 7.35824 24.7607 7.18881 24.4673L6.78477 23.7675L10.478 21.6351Z" fill="url(#paint10_linear_614_3250)"/>
<defs>
<linearGradient id="paint0_linear_614_3250" x1="33.4" y1="15.3571" x2="38.2468" y2="59.5341" gradientUnits="userSpaceOnUse">
<stop stop-color="#3AB99A"/>
<stop offset="1" stop-color="#1B9E7F"/>
</linearGradient>
<linearGradient id="paint1_linear_614_3250" x1="33.4" y1="15.3571" x2="38.2468" y2="59.5341" gradientUnits="userSpaceOnUse">
<stop stop-color="#3AB99A"/>
<stop offset="1" stop-color="#1B9E7F"/>
</linearGradient>
<linearGradient id="paint2_linear_614_3250" x1="33.4" y1="15.3571" x2="38.2468" y2="59.5341" gradientUnits="userSpaceOnUse">
<stop stop-color="#3AB99A"/>
<stop offset="1" stop-color="#1B9E7F"/>
</linearGradient>
<linearGradient id="paint3_linear_614_3250" x1="33.4" y1="15.3571" x2="38.2468" y2="59.5341" gradientUnits="userSpaceOnUse">
<stop stop-color="#3AB99A"/>
<stop offset="1" stop-color="#1B9E7F"/>
</linearGradient>
<linearGradient id="paint4_linear_614_3250" x1="33.4" y1="15.3571" x2="38.2468" y2="59.5341" gradientUnits="userSpaceOnUse">
<stop stop-color="#3AB99A"/>
<stop offset="1" stop-color="#1B9E7F"/>
</linearGradient>
<linearGradient id="paint5_linear_614_3250" x1="33.4" y1="15.3571" x2="38.2468" y2="59.5341" gradientUnits="userSpaceOnUse">
<stop stop-color="#3AB99A"/>
<stop offset="1" stop-color="#1B9E7F"/>
</linearGradient>
<linearGradient id="paint6_linear_614_3250" x1="33.4" y1="15.3571" x2="38.2468" y2="59.5341" gradientUnits="userSpaceOnUse">
<stop stop-color="#3AB99A"/>
<stop offset="1" stop-color="#1B9E7F"/>
</linearGradient>
<linearGradient id="paint7_linear_614_3250" x1="33.4" y1="15.3571" x2="38.2468" y2="59.5341" gradientUnits="userSpaceOnUse">
<stop stop-color="#3AB99A"/>
<stop offset="1" stop-color="#1B9E7F"/>
</linearGradient>
<linearGradient id="paint8_linear_614_3250" x1="33.4" y1="15.3571" x2="38.2468" y2="59.5341" gradientUnits="userSpaceOnUse">
<stop stop-color="#3AB99A"/>
<stop offset="1" stop-color="#1B9E7F"/>
</linearGradient>
<linearGradient id="paint9_linear_614_3250" x1="33.4" y1="15.3571" x2="38.2468" y2="59.5341" gradientUnits="userSpaceOnUse">
<stop stop-color="#3AB99A"/>
<stop offset="1" stop-color="#1B9E7F"/>
</linearGradient>
<linearGradient id="paint10_linear_614_3250" x1="29.0425" y1="8.31137" x2="11.2105" y2="28.5541" gradientUnits="userSpaceOnUse">
<stop stop-color="#3AB99A"/>
<stop offset="1" stop-color="#1B9E7F"/>
</linearGradient>
</defs>
</svg>
