<svg width="64" height="64" viewBox="0 0 64 64" fill="none" xmlns="http://www.w3.org/2000/svg">
<path fill-rule="evenodd" clip-rule="evenodd" d="M25 34C30.5228 34 35 29.5228 35 24C35 18.4772 30.5228 14 25 14C19.4772 14 15 18.4772 15 24C15 29.5228 19.4772 34 25 34ZM25 40C27.9246 40 30.6659 39.2153 33.0249 37.8451C33.164 38.0689 33.3307 38.2805 33.5251 38.4749L36.525 41.4747C36.3746 43.0518 36.9032 44.6814 38.1109 45.8891L46.1109 53.8891C48.2588 56.037 51.7412 56.037 53.8891 53.8891C56.037 51.7412 56.037 48.2588 53.8891 46.1109L45.8891 38.1109C44.6814 36.9032 43.0518 36.3746 41.4747 36.525L38.4749 33.5251C38.3545 33.4047 38.2275 33.2949 38.0951 33.1958C39.9254 30.5942 41 27.4226 41 24C41 15.1634 33.8366 8 25 8C16.1634 8 9 15.1634 9 24C9 32.8366 16.1634 40 25 40Z" fill="url(#paint0_linear_628_3592)"/>
<defs>
<linearGradient id="paint0_linear_628_3592" x1="32.0066" y1="14.8336" x2="36.1366" y2="51.5323" gradientUnits="userSpaceOnUse">
<stop stop-color="#3AB99A"/>
<stop offset="1" stop-color="#1B9E7F"/>
</linearGradient>
</defs>
</svg>
