<svg width="16" height="16" viewBox="0 0 16 16" fill="none" xmlns="http://www.w3.org/2000/svg">
<path fill-rule="evenodd" clip-rule="evenodd" d="M4.5 2C5.88071 2 7 3.04467 7 4.33333V5.11777C5.33551 5.51497 4 6.88106 4 8.66667V8.93336C3.94031 8.9752 3.86611 9 3.78571 9C3.58847 9 3.42857 8.85076 3.42857 8.66667V8.33333C3.42857 8.14924 3.26867 8 3.07143 8C2.87418 8 2.71429 8.14924 2.71429 8.33333V8.66667C2.71429 8.85076 2.55439 9 2.35714 9C2.1599 9 2 8.85076 2 8.66667V4.33333C2 3.04467 3.11929 2 4.5 2ZM12 8.66667V8.93336C12.0597 8.9752 12.1339 9 12.2143 9C12.4115 9 12.5714 8.85076 12.5714 8.66667V8.33333C12.5714 8.14924 12.7313 8 12.9286 8C13.1258 8 13.2857 8.14924 13.2857 8.33333V8.66667C13.2857 8.85076 13.4456 9 13.6429 9C13.8401 9 14 8.85076 14 8.66667V4.33333C14 3.04467 12.8807 2 11.5 2C10.1193 2 9 3.04467 9 4.33333V5.11777C10.6645 5.51497 12 6.88106 12 8.66667ZM3.68129 5.41667C3.97716 5.41667 4.217 5.04357 4.217 4.58333C4.217 4.1231 3.97716 3.75 3.68129 3.75C3.38542 3.75 3.14558 4.1231 3.14558 4.58333C3.14558 5.04357 3.38542 5.41667 3.68129 5.41667ZM6.00272 4.58333C6.00272 5.04357 5.76287 5.41667 5.467 5.41667C5.17114 5.41667 4.93129 5.04357 4.93129 4.58333C4.93129 4.1231 5.17114 3.75 5.467 3.75C5.76287 3.75 6.00272 4.1231 6.00272 4.58333ZM10.6813 5.41667C10.9772 5.41667 11.217 5.04357 11.217 4.58333C11.217 4.1231 10.9772 3.75 10.6813 3.75C10.3854 3.75 10.1456 4.1231 10.1456 4.58333C10.1456 5.04357 10.3854 5.41667 10.6813 5.41667ZM13.0027 4.58333C13.0027 5.04357 12.7629 5.41667 12.467 5.41667C12.1711 5.41667 11.9313 5.04357 11.9313 4.58333C11.9313 4.1231 12.1711 3.75 12.467 3.75C12.7629 3.75 13.0027 4.1231 13.0027 4.58333ZM8 6C9.65685 6 11 7.19391 11 8.66667V13.619C11 13.8294 10.8081 14 10.5714 14C10.3347 14 10.1429 13.8294 10.1429 13.619V13.2381C10.1429 13.0277 9.95098 12.8571 9.71429 12.8571C9.47759 12.8571 9.28571 13.0277 9.28571 13.2381V13.619C9.28571 13.8294 9.09384 14 8.85714 14C8.62045 14 8.42857 13.8294 8.42857 13.619V13.2381C8.42857 13.0277 8.23669 12.8571 8 12.8571C7.76331 12.8571 7.57143 13.0277 7.57143 13.2381V13.619C7.57143 13.8294 7.37955 14 7.14286 14C6.90616 14 6.71429 13.8294 6.71429 13.619V13.2381C6.71429 13.0277 6.52241 12.8571 6.28571 12.8571C6.04902 12.8571 5.85714 13.0277 5.85714 13.2381V13.619C5.85714 13.8294 5.66526 14 5.42857 14C5.19188 14 5 13.8294 5 13.619V8.66667C5 7.19391 6.34315 6 8 6ZM7.01755 9.90476C7.37259 9.90476 7.6604 9.47837 7.6604 8.95238C7.6604 8.4264 7.37259 8 7.01755 8C6.66251 8 6.37469 8.4264 6.37469 8.95238C6.37469 9.47837 6.66251 9.90476 7.01755 9.90476ZM9.80326 8.95238C9.80326 9.47837 9.51544 9.90476 9.1604 9.90476C8.80536 9.90476 8.51755 9.47837 8.51755 8.95238C8.51755 8.4264 8.80536 8 9.1604 8C9.51544 8 9.80326 8.4264 9.80326 8.95238Z" fill="white"/>
</svg>
