<svg width="64" height="64" viewBox="0 0 64 64" fill="none" xmlns="http://www.w3.org/2000/svg">
<path d="M50.1443 28.4124C54.7357 28.4124 58.4577 31.7747 58.4577 35.9224C58.4577 38.0788 57.4516 40.0229 55.8403 41.3926C56.6355 42.3218 56.6103 43.4012 56.6103 44.545L64 40.0946V56.7835L56.6103 52.3331V53.4457C56.6103 55.2891 54.9561 56.7835 52.9155 56.7835H36.2887C34.2481 56.7835 32.5938 55.2891 32.5938 53.4457V48.0117C29.3649 46.9807 27.0515 44.1989 27.0515 40.929C27.0515 36.7814 30.7736 33.419 35.3649 33.419C37.9801 33.419 40.3132 34.5099 41.8371 36.2152C41.7817 34.9106 42.1098 33.6022 42.7589 32.471C44.1425 30.0598 46.9304 28.4124 50.1443 28.4124Z" fill="#8DA5F3"/>
<path fill-rule="evenodd" clip-rule="evenodd" d="M19.2 4C29.8039 4 38.4 12.35 38.4 22.6502V28.4613C37.5337 28.2754 36.6406 28.168 35.7309 28.1453C36.1189 27.1289 36.3429 25.931 36.3429 24.6484C36.3429 20.9698 34.5008 17.9876 32.2286 17.9876C29.9563 17.9876 28.1143 20.9698 28.1143 24.6484C28.1143 26.5393 28.601 28.2462 29.3827 29.4586C25.0263 31.4671 21.7732 35.6263 21.7732 40.9291C21.7732 45.3244 24.0638 48.9791 27.3155 51.2312V53.4457C27.3155 53.9322 27.3544 54.4025 27.4286 54.8555V57.2862C27.4286 58.7577 26.2006 59.9505 24.6857 59.9505C23.1709 59.9505 21.9429 58.7577 21.9429 57.2862V54.6219C21.9429 53.1504 20.7148 51.9576 19.2 51.9576C17.6852 51.9576 16.4571 53.1504 16.4571 54.6219V57.2862C16.4571 58.7577 15.2291 59.9505 13.7143 59.9505C12.1994 59.9505 10.9714 58.7577 10.9714 57.2862V54.6219C10.9714 53.1504 9.74341 51.9576 8.22857 51.9576C6.71373 51.9576 5.48571 53.1504 5.48571 54.6219V57.2862C5.48571 58.7577 4.2577 59.9505 2.74286 59.9505C1.22802 59.9505 0 58.7577 0 57.2862V22.6502C0 12.35 8.59613 4 19.2 4ZM18.5143 31.3092C20.7865 31.3092 22.6286 28.3271 22.6286 24.6484C22.6286 20.9698 20.7865 17.9876 18.5143 17.9876C16.242 17.9876 14.4 20.9698 14.4 24.6484C14.4 28.3271 16.242 31.3092 18.5143 31.3092Z" fill="#8DA5F3"/>
</svg>
