<svg width="360" height="324" viewBox="0 0 360 324" fill="none" xmlns="http://www.w3.org/2000/svg">
    <g filter="url(#filter0_di_1289_6230)">
        <path d="M265.052 145.183C286.574 145.183 304.021 160.944 304.021 180.386C304.021 190.494 299.304 199.607 291.752 206.028C295.479 210.383 295.361 215.443 295.361 220.805L330 199.943V278.173L295.361 257.311V262.527C295.361 271.168 287.607 278.173 278.041 278.173H200.103C190.538 278.173 182.783 271.168 182.783 262.527V237.055C167.648 232.222 156.804 219.182 156.804 203.855C156.804 184.413 174.251 168.652 195.773 168.652C208.032 168.652 218.968 173.765 226.112 181.759C225.852 175.643 227.39 169.51 230.432 164.208C236.918 152.906 249.986 145.183 265.052 145.183Z" fill="white"/>
        <path fill-rule="evenodd" clip-rule="evenodd" d="M120 30.75C169.706 30.75 210 69.8905 210 118.173V145.412C205.939 144.541 201.753 144.038 197.489 143.931C199.307 139.167 200.357 133.552 200.357 127.539C200.357 110.296 191.723 96.317 181.071 96.317C170.42 96.317 161.786 110.296 161.786 127.539C161.786 136.403 164.067 144.404 167.731 150.087C147.311 159.502 132.062 178.998 132.062 203.855C132.062 224.458 142.799 241.59 158.041 252.146V262.527C158.041 264.807 158.224 267.012 158.571 269.135V280.529C158.571 287.427 152.815 293.018 145.714 293.018C138.613 293.018 132.857 287.427 132.857 280.529V268.04C132.857 261.143 127.101 255.551 120 255.551C112.899 255.551 107.143 261.143 107.143 268.04V280.529C107.143 287.427 101.387 293.018 94.2857 293.018C87.1849 293.018 81.4286 287.427 81.4286 280.529V268.04C81.4286 261.143 75.6722 255.551 68.5714 255.551C61.4706 255.551 55.7143 261.143 55.7143 268.04V280.529C55.7143 287.427 49.9579 293.018 42.8571 293.018C35.7563 293.018 30 287.427 30 280.529V118.173C30 69.8905 70.2944 30.75 120 30.75ZM116.786 158.762C127.437 158.762 136.071 144.783 136.071 127.539C136.071 110.296 127.437 96.317 116.786 96.317C106.135 96.317 97.5 110.296 97.5 127.539C97.5 144.783 106.135 158.762 116.786 158.762Z" fill="white"/>
    </g>
    <defs>
        <filter id="filter0_di_1289_6230" x="0" y="-18" width="360" height="360" filterUnits="userSpaceOnUse" color-interpolation-filters="sRGB">
            <feFlood flood-opacity="0" result="BackgroundImageFix"/>
            <feColorMatrix in="SourceAlpha" type="matrix" values="0 0 0 0 0 0 0 0 0 0 0 0 0 0 0 0 0 0 127 0" result="hardAlpha"/>
            <feOffset/>
            <feGaussianBlur stdDeviation="15"/>
            <feComposite in2="hardAlpha" operator="out"/>
            <feColorMatrix type="matrix" values="0 0 0 0 0.354809 0 0 0 0 0.795833 0 0 0 0 0.691818 0 0 0 0.75 0"/>
            <feBlend mode="normal" in2="BackgroundImageFix" result="effect1_dropShadow_1289_6230"/>
            <feBlend mode="normal" in="SourceGraphic" in2="effect1_dropShadow_1289_6230" result="shape"/>
            <feColorMatrix in="SourceAlpha" type="matrix" values="0 0 0 0 0 0 0 0 0 0 0 0 0 0 0 0 0 0 127 0" result="hardAlpha"/>
            <feOffset/>
            <feGaussianBlur stdDeviation="15"/>
            <feComposite in2="hardAlpha" operator="arithmetic" k2="-1" k3="1"/>
            <feColorMatrix type="matrix" values="0 0 0 0 0.187361 0 0 0 0 0.599372 0 0 0 0 0.633333 0 0 0 0.5 0"/>
            <feBlend mode="normal" in2="shape" result="effect2_innerShadow_1289_6230"/>
        </filter>
    </defs>
</svg>
