<svg width="1920" height="880" viewBox="0 0 1920 880" fill="none" xmlns="http://www.w3.org/2000/svg">
<g clip-path="url(#clip0_245_825)">
<rect width="1920" height="880" fill="url(#paint0_linear_245_825)"/>
<g filter="url(#filter0_di_245_825)">
<path d="M1045.05 312.683C1066.57 312.683 1084.02 328.444 1084.02 347.886C1084.02 357.994 1079.3 367.107 1071.75 373.528C1075.48 377.883 1075.36 382.943 1075.36 388.305L1110 367.443V445.673L1075.36 424.811V430.027C1075.36 438.668 1067.61 445.673 1058.04 445.673H980.103C970.538 445.673 962.784 438.668 962.784 430.027V404.555C947.648 399.722 936.804 386.683 936.804 371.355C936.804 351.913 954.251 336.152 975.773 336.152C988.032 336.152 998.968 341.265 1006.11 349.259C1005.85 343.143 1007.39 337.01 1010.43 331.708C1016.92 320.406 1029.99 312.683 1045.05 312.683Z" fill="white"/>
<path fill-rule="evenodd" clip-rule="evenodd" d="M900 198.25C949.706 198.25 990 237.39 990 285.673V312.912C985.939 312.041 981.753 311.538 977.489 311.431C979.307 306.667 980.357 301.052 980.357 295.039C980.357 277.796 971.723 263.817 961.071 263.817C950.42 263.817 941.786 277.796 941.786 295.039C941.786 303.903 944.067 311.904 947.731 317.587C927.311 327.002 912.062 346.498 912.062 371.355C912.062 391.958 922.799 409.09 938.041 419.646V430.027C938.041 432.307 938.224 434.512 938.571 436.635V448.029C938.571 454.927 932.815 460.518 925.714 460.518C918.613 460.518 912.857 454.927 912.857 448.029V435.54C912.857 428.643 907.101 423.051 900 423.051C892.899 423.051 887.143 428.643 887.143 435.54V448.029C887.143 454.927 881.387 460.518 874.286 460.518C867.185 460.518 861.429 454.927 861.429 448.029V435.54C861.429 428.643 855.672 423.051 848.571 423.051C841.471 423.051 835.714 428.643 835.714 435.54V448.029C835.714 454.927 829.958 460.518 822.857 460.518C815.756 460.518 810 454.927 810 448.029V285.673C810 237.39 850.294 198.25 900 198.25ZM964.286 436.41V435.54C964.286 433.421 963.742 431.425 962.783 429.677V404.555C947.648 399.722 936.804 386.683 936.804 371.355C936.804 351.913 954.251 336.152 975.773 336.152C978.056 336.152 980.294 336.329 982.469 336.67C985.077 337.078 987.597 337.72 990 338.572V445.673H980.103C973.055 445.673 966.989 441.869 964.286 436.41ZM896.786 326.262C907.437 326.262 916.071 312.283 916.071 295.039C916.071 277.796 907.437 263.817 896.786 263.817C886.135 263.817 877.5 277.796 877.5 295.039C877.5 312.283 886.135 326.262 896.786 326.262Z" fill="white"/>
</g>
<g filter="url(#filter1_di_245_825)">
<path d="M384.284 581.5V482.8H431.744C442.944 482.8 451.578 485.693 457.644 491.48C463.804 497.173 466.884 505.06 466.884 515.14C466.884 525.22 463.804 533.153 457.644 538.94C451.578 544.633 442.944 547.48 431.744 547.48H410.044V581.5H384.284ZM410.044 527.74H427.264C437.344 527.74 442.384 523.54 442.384 515.14C442.384 506.74 437.344 502.54 427.264 502.54H410.044V527.74ZM477.214 581.5V482.8H502.134V521.16C507.08 514.44 514.267 511.08 523.694 511.08C531.907 511.08 537.974 513.507 541.894 518.36C545.907 523.213 547.914 530.68 547.914 540.76V581.5H522.994V541.74C522.994 537.54 522.247 534.553 520.754 532.78C519.354 531.007 517.254 530.12 514.454 530.12C510.72 530.12 507.734 531.333 505.494 533.76C503.254 536.093 502.134 539.267 502.134 543.28V581.5H477.214ZM586.056 583.04C580.736 583.04 576.023 582.06 571.916 580.1C567.903 578.14 564.729 575.48 562.396 572.12C560.156 568.667 559.036 564.747 559.036 560.36C559.036 555.413 560.343 551.493 562.956 548.6C565.569 545.613 569.769 543.513 575.556 542.3C581.343 540.993 589.043 540.34 598.656 540.34H603.976V538.38C603.976 535.02 603.089 532.64 601.316 531.24C599.636 529.84 596.696 529.14 592.496 529.14C588.949 529.14 585.029 529.7 580.736 530.82C576.443 531.94 572.243 533.667 568.136 536L561.836 519.62C564.169 517.94 567.156 516.447 570.796 515.14C574.436 513.833 578.263 512.853 582.276 512.2C586.289 511.453 590.069 511.08 593.616 511.08C605.096 511.08 613.589 513.553 619.096 518.5C624.696 523.447 627.496 531.24 627.496 541.88V581.5H604.256V571.7C603.043 575.247 600.849 578.047 597.676 580.1C594.503 582.06 590.629 583.04 586.056 583.04ZM591.656 566.8C595.109 566.8 598.003 565.68 600.336 563.44C602.763 561.2 603.976 558.26 603.976 554.62V552.1H598.656C593.149 552.1 589.089 552.707 586.476 553.92C583.956 555.04 582.696 556.86 582.696 559.38C582.696 561.527 583.443 563.3 584.936 564.7C586.523 566.1 588.763 566.8 591.656 566.8ZM641.686 581.5V512.62H665.906V522C668.333 518.453 671.46 515.747 675.286 513.88C679.113 512.013 683.406 511.08 688.166 511.08C696.38 511.08 702.446 513.507 706.366 518.36C710.38 523.213 712.386 530.68 712.386 540.76V581.5H687.466V541.74C687.466 537.54 686.72 534.553 685.226 532.78C683.826 531.007 681.726 530.12 678.926 530.12C675.193 530.12 672.206 531.333 669.966 533.76C667.726 536.093 666.606 539.267 666.606 543.28V581.5H641.686ZM762.709 583.04C752.255 583.04 744.509 580.613 739.469 575.76C734.429 570.907 731.909 563.58 731.909 553.78V530.96H719.029V512.62H731.909V492.6H756.829V512.62H776.429V530.96H756.829V552.94C756.829 559.66 760.235 563.02 767.049 563.02C768.169 563.02 769.382 562.927 770.689 562.74C772.089 562.46 773.629 562.087 775.309 561.62L778.669 579.54C776.522 580.66 774.002 581.5 771.109 582.06C768.215 582.713 765.415 583.04 762.709 583.04ZM820.374 583.04C812.721 583.04 806.048 581.593 800.354 578.7C794.661 575.807 790.228 571.653 787.054 566.24C783.881 560.827 782.294 554.433 782.294 547.06C782.294 539.593 783.881 533.2 787.054 527.88C790.228 522.467 794.661 518.313 800.354 515.42C806.048 512.527 812.721 511.08 820.374 511.08C828.028 511.08 834.701 512.527 840.394 515.42C846.088 518.313 850.474 522.467 853.554 527.88C856.728 533.2 858.314 539.593 858.314 547.06C858.314 554.433 856.728 560.827 853.554 566.24C850.474 571.653 846.088 575.807 840.394 578.7C834.701 581.593 828.028 583.04 820.374 583.04ZM820.374 564.7C824.108 564.7 827.188 563.3 829.614 560.5C832.041 557.7 833.254 553.22 833.254 547.06C833.254 540.807 832.041 536.327 829.614 533.62C827.188 530.82 824.108 529.42 820.374 529.42C816.548 529.42 813.421 530.82 810.994 533.62C808.568 536.327 807.354 540.807 807.354 547.06C807.354 553.22 808.568 557.7 810.994 560.5C813.421 563.3 816.548 564.7 820.374 564.7ZM870.013 581.5V512.62H894.233V521.86C896.38 518.593 899.226 515.98 902.773 514.02C906.413 512.06 910.566 511.08 915.233 511.08C919.9 511.08 923.913 512.107 927.273 514.16C930.726 516.213 933.34 519.387 935.113 523.68C937.446 519.667 940.62 516.587 944.633 514.44C948.646 512.2 953.08 511.08 957.933 511.08C965.96 511.08 971.886 513.507 975.713 518.36C979.633 523.12 981.593 530.587 981.593 540.76V581.5H956.673V541.46C956.673 537.447 956.066 534.553 954.853 532.78C953.64 531.007 951.633 530.12 948.833 530.12C945.38 530.12 942.72 531.333 940.853 533.76C939.08 536.187 938.193 539.64 938.193 544.12V581.5H913.273V541.46C913.273 537.447 912.666 534.553 911.453 532.78C910.24 531.007 908.233 530.12 905.433 530.12C902.073 530.12 899.46 531.333 897.593 533.76C895.82 536.187 894.933 539.64 894.933 544.12V581.5H870.013ZM1087.64 583.04C1076.72 583.04 1067.34 580.94 1059.5 576.74C1051.66 572.54 1045.64 566.613 1041.44 558.96C1037.33 551.307 1035.28 542.347 1035.28 532.08C1035.28 521.813 1037.33 512.9 1041.44 505.34C1045.64 497.687 1051.66 491.76 1059.5 487.56C1067.34 483.36 1076.72 481.26 1087.64 481.26C1094.17 481.26 1100.47 482.287 1106.54 484.34C1112.61 486.3 1117.51 488.913 1121.24 492.18L1113.54 512.48C1109.43 509.493 1105.33 507.3 1101.22 505.9C1097.11 504.407 1092.91 503.66 1088.62 503.66C1079.94 503.66 1073.41 506.133 1069.02 511.08C1064.63 515.933 1062.44 522.933 1062.44 532.08C1062.44 541.32 1064.63 548.413 1069.02 553.36C1073.41 558.213 1079.94 560.64 1088.62 560.64C1092.91 560.64 1097.11 559.94 1101.22 558.54C1105.33 557.047 1109.43 554.807 1113.54 551.82L1121.24 572.12C1117.51 575.387 1112.61 578.047 1106.54 580.1C1100.47 582.06 1094.17 583.04 1087.64 583.04ZM1153.58 583.04C1148.26 583.04 1143.54 582.06 1139.44 580.1C1135.42 578.14 1132.25 575.48 1129.92 572.12C1127.68 568.667 1126.56 564.747 1126.56 560.36C1126.56 555.413 1127.86 551.493 1130.48 548.6C1133.09 545.613 1137.29 543.513 1143.08 542.3C1148.86 540.993 1156.56 540.34 1166.18 540.34H1171.5V538.38C1171.5 535.02 1170.61 532.64 1168.84 531.24C1167.16 529.84 1164.22 529.14 1160.02 529.14C1156.47 529.14 1152.55 529.7 1148.26 530.82C1143.96 531.94 1139.76 533.667 1135.66 536L1129.36 519.62C1131.69 517.94 1134.68 516.447 1138.32 515.14C1141.96 513.833 1145.78 512.853 1149.8 512.2C1153.81 511.453 1157.59 511.08 1161.14 511.08C1172.62 511.08 1181.11 513.553 1186.62 518.5C1192.22 523.447 1195.02 531.24 1195.02 541.88V581.5H1171.78V571.7C1170.56 575.247 1168.37 578.047 1165.2 580.1C1162.02 582.06 1158.15 583.04 1153.58 583.04ZM1159.18 566.8C1162.63 566.8 1165.52 565.68 1167.86 563.44C1170.28 561.2 1171.5 558.26 1171.5 554.62V552.1H1166.18C1160.67 552.1 1156.61 552.707 1154 553.92C1151.48 555.04 1150.22 556.86 1150.22 559.38C1150.22 561.527 1150.96 563.3 1152.46 564.7C1154.04 566.1 1156.28 566.8 1159.18 566.8ZM1209.49 581.5V512.62H1233.71V521.86C1235.85 518.593 1238.7 515.98 1242.25 514.02C1245.89 512.06 1250.04 511.08 1254.71 511.08C1259.37 511.08 1263.39 512.107 1266.75 514.16C1270.2 516.213 1272.81 519.387 1274.59 523.68C1276.92 519.667 1280.09 516.587 1284.11 514.44C1288.12 512.2 1292.55 511.08 1297.41 511.08C1305.43 511.08 1311.36 513.507 1315.19 518.36C1319.11 523.12 1321.07 530.587 1321.07 540.76V581.5H1296.15V541.46C1296.15 537.447 1295.54 534.553 1294.33 532.78C1293.11 531.007 1291.11 530.12 1288.31 530.12C1284.85 530.12 1282.19 531.333 1280.33 533.76C1278.55 536.187 1277.67 539.64 1277.67 544.12V581.5H1252.75V541.46C1252.75 537.447 1252.14 534.553 1250.93 532.78C1249.71 531.007 1247.71 530.12 1244.91 530.12C1241.55 530.12 1238.93 531.333 1237.07 533.76C1235.29 536.187 1234.41 539.64 1234.41 544.12V581.5H1209.49ZM1373.05 583.04C1364.65 583.04 1357.37 581.593 1351.21 578.7C1345.15 575.713 1340.48 571.513 1337.21 566.1C1333.95 560.687 1332.31 554.293 1332.31 546.92C1332.31 539.92 1333.85 533.713 1336.93 528.3C1340.11 522.887 1344.4 518.687 1349.81 515.7C1355.32 512.62 1361.57 511.08 1368.57 511.08C1375.48 511.08 1381.45 512.527 1386.49 515.42C1391.63 518.313 1395.55 522.467 1398.25 527.88C1401.05 533.2 1402.45 539.453 1402.45 546.64V552.1H1356.11C1356.95 556.58 1358.82 559.8 1361.71 561.76C1364.61 563.72 1368.62 564.7 1373.75 564.7C1377.3 564.7 1380.99 564.187 1384.81 563.16C1388.73 562.04 1392.19 560.453 1395.17 558.4L1401.33 574.78C1397.79 577.3 1393.45 579.307 1388.31 580.8C1383.18 582.293 1378.09 583.04 1373.05 583.04ZM1369.69 527.18C1365.96 527.18 1362.88 528.3 1360.45 530.54C1358.12 532.78 1356.63 536.047 1355.97 540.34H1382.01C1381.73 535.953 1380.52 532.687 1378.37 530.54C1376.32 528.3 1373.43 527.18 1369.69 527.18ZM1413.19 581.5V512.62H1437.41V524.24C1440.58 516.307 1447.44 511.967 1457.99 511.22L1464.85 510.66L1466.25 531.66L1452.67 532.92C1447.72 533.387 1444.13 534.787 1441.89 537.12C1439.65 539.36 1438.53 542.72 1438.53 547.2V581.5H1413.19ZM1497.15 583.04C1491.83 583.04 1487.12 582.06 1483.01 580.1C1479 578.14 1475.82 575.48 1473.49 572.12C1471.25 568.667 1470.13 564.747 1470.13 560.36C1470.13 555.413 1471.44 551.493 1474.05 548.6C1476.66 545.613 1480.86 543.513 1486.65 542.3C1492.44 540.993 1500.14 540.34 1509.75 540.34H1515.07V538.38C1515.07 535.02 1514.18 532.64 1512.41 531.24C1510.73 529.84 1507.79 529.14 1503.59 529.14C1500.04 529.14 1496.12 529.7 1491.83 530.82C1487.54 531.94 1483.34 533.667 1479.23 536L1472.93 519.62C1475.26 517.94 1478.25 516.447 1481.89 515.14C1485.53 513.833 1489.36 512.853 1493.37 512.2C1497.38 511.453 1501.16 511.08 1504.71 511.08C1516.19 511.08 1524.68 513.553 1530.19 518.5C1535.79 523.447 1538.59 531.24 1538.59 541.88V581.5H1515.35V571.7C1514.14 575.247 1511.94 578.047 1508.77 580.1C1505.6 582.06 1501.72 583.04 1497.15 583.04ZM1502.75 566.8C1506.2 566.8 1509.1 565.68 1511.43 563.44C1513.86 561.2 1515.07 558.26 1515.07 554.62V552.1H1509.75C1504.24 552.1 1500.18 552.707 1497.57 553.92C1495.05 555.04 1493.79 556.86 1493.79 559.38C1493.79 561.527 1494.54 563.3 1496.03 564.7C1497.62 566.1 1499.86 566.8 1502.75 566.8Z" fill="white"/>
</g>
<g opacity="0.5" filter="url(#filter2_di_245_825)">
<path d="M170.289 111.825C179.471 111.825 186.915 118.549 186.915 126.845C186.915 131.158 184.903 135.046 181.681 137.785C183.271 139.644 183.221 141.802 183.221 144.09L198 135.189V168.567L183.221 159.666V161.891C183.221 165.578 179.912 168.567 175.831 168.567H142.577C138.496 168.567 135.188 165.578 135.188 161.891V151.023C128.73 148.961 124.103 143.398 124.103 136.858C124.103 128.563 131.547 121.838 140.73 121.838C145.96 121.838 150.626 124.02 153.674 127.43C153.563 124.821 154.219 122.204 155.518 119.942C158.285 115.12 163.861 111.825 170.289 111.825Z" fill="white"/>
<path fill-rule="evenodd" clip-rule="evenodd" d="M108.4 63C129.608 63 146.8 79.6999 146.8 100.3V111.923C145.068 111.551 143.281 111.336 141.462 111.291C142.238 109.258 142.686 106.862 142.686 104.297C142.686 96.9395 139.002 90.9753 134.457 90.9753C129.913 90.9753 126.229 96.9395 126.229 104.297C126.229 108.079 127.202 111.492 128.765 113.917C120.053 117.934 113.546 126.253 113.546 136.858C113.546 145.649 118.128 152.958 124.631 157.462V161.891C124.631 162.864 124.709 163.805 124.857 164.711V169.572C124.857 172.515 122.401 174.901 119.371 174.901C116.342 174.901 113.886 172.515 113.886 169.572V164.244C113.886 161.301 111.43 158.915 108.4 158.915C105.37 158.915 102.914 161.301 102.914 164.244V169.572C102.914 172.515 100.458 174.901 97.4286 174.901C94.3989 174.901 91.9429 172.515 91.9429 169.572V164.244C91.9429 161.301 89.4868 158.915 86.4571 158.915C83.4275 158.915 80.9714 161.301 80.9714 164.244V169.572C80.9714 172.515 78.5154 174.901 75.4857 174.901C72.456 174.901 70 172.515 70 169.572V100.3C70 79.6999 87.1923 63 108.4 63ZM135.829 164.615V164.244C135.829 163.34 135.597 162.488 135.188 161.742V151.023C128.73 148.962 124.103 143.398 124.103 136.858C124.103 128.563 131.547 121.838 140.73 121.838C141.704 121.838 142.659 121.914 143.587 122.059C144.7 122.233 145.775 122.507 146.8 122.871V168.567H142.577C139.57 168.567 136.982 166.944 135.829 164.615ZM107.029 117.618C111.573 117.618 115.257 111.654 115.257 104.297C115.257 96.9395 111.573 90.9753 107.029 90.9753C102.484 90.9753 98.8 96.9395 98.8 104.297C98.8 111.654 102.484 117.618 107.029 117.618Z" fill="white"/>
</g>
<g opacity="0.5" filter="url(#filter3_di_245_825)">
<path d="M1785.29 600.825C1794.47 600.825 1801.92 607.549 1801.92 615.845C1801.92 620.158 1799.9 624.046 1796.68 626.785C1798.27 628.644 1798.22 630.802 1798.22 633.09L1813 624.189V657.567L1798.22 648.666V650.891C1798.22 654.578 1794.91 657.567 1790.83 657.567H1757.58C1753.5 657.567 1750.19 654.578 1750.19 650.891V640.023C1743.73 637.961 1739.1 632.398 1739.1 625.858C1739.1 617.563 1746.55 610.838 1755.73 610.838C1760.96 610.838 1765.63 613.02 1768.67 616.43C1768.56 613.821 1769.22 611.204 1770.52 608.942C1773.28 604.12 1778.86 600.825 1785.29 600.825Z" fill="white"/>
<path fill-rule="evenodd" clip-rule="evenodd" d="M1723.4 552C1744.61 552 1761.8 568.7 1761.8 589.3V600.923C1760.07 600.551 1758.28 600.336 1756.46 600.291C1757.24 598.258 1757.69 595.862 1757.69 593.297C1757.69 585.94 1754 579.975 1749.46 579.975C1744.91 579.975 1741.23 585.94 1741.23 593.297C1741.23 597.079 1742.2 600.492 1743.77 602.917C1735.05 606.934 1728.55 615.253 1728.55 625.858C1728.55 634.649 1733.13 641.958 1739.63 646.462V650.891C1739.63 651.864 1739.71 652.805 1739.86 653.711V658.572C1739.86 661.515 1737.4 663.901 1734.37 663.901C1731.34 663.901 1728.89 661.515 1728.89 658.572V653.244C1728.89 650.301 1726.43 647.915 1723.4 647.915C1720.37 647.915 1717.91 650.301 1717.91 653.244V658.572C1717.91 661.515 1715.46 663.901 1712.43 663.901C1709.4 663.901 1706.94 661.515 1706.94 658.572V653.244C1706.94 650.301 1704.49 647.915 1701.46 647.915C1698.43 647.915 1695.97 650.301 1695.97 653.244V658.572C1695.97 661.515 1693.52 663.901 1690.49 663.901C1687.46 663.901 1685 661.515 1685 658.572V589.3C1685 568.7 1702.19 552 1723.4 552ZM1750.83 653.615V653.244C1750.83 652.34 1750.6 651.488 1750.19 650.742V640.023C1743.73 637.962 1739.1 632.398 1739.1 625.858C1739.1 617.563 1746.55 610.838 1755.73 610.838C1756.7 610.838 1757.66 610.914 1758.59 611.059C1759.7 611.233 1760.77 611.507 1761.8 611.871V657.567H1757.58C1754.57 657.567 1751.98 655.944 1750.83 653.615ZM1722.03 606.618C1726.57 606.618 1730.26 600.654 1730.26 593.297C1730.26 585.94 1726.57 579.975 1722.03 579.975C1717.48 579.975 1713.8 585.94 1713.8 593.297C1713.8 600.654 1717.48 606.618 1722.03 606.618Z" fill="white"/>
</g>
<g opacity="0.5" filter="url(#filter4_di_245_825)">
<path d="M1575.29 299.825C1584.47 299.825 1591.92 306.549 1591.92 314.845C1591.92 319.158 1589.9 323.046 1586.68 325.785C1588.27 327.644 1588.22 329.802 1588.22 332.09L1603 323.189V356.567L1588.22 347.666V349.891C1588.22 353.578 1584.91 356.567 1580.83 356.567H1547.58C1543.5 356.567 1540.19 353.578 1540.19 349.891V339.023C1533.73 336.961 1529.1 331.398 1529.1 324.858C1529.1 316.563 1536.55 309.838 1545.73 309.838C1550.96 309.838 1555.63 312.02 1558.67 315.43C1558.56 312.821 1559.22 310.204 1560.52 307.942C1563.28 303.12 1568.86 299.825 1575.29 299.825Z" fill="white"/>
<path fill-rule="evenodd" clip-rule="evenodd" d="M1513.4 251C1534.61 251 1551.8 267.7 1551.8 288.3V299.923C1550.07 299.551 1548.28 299.336 1546.46 299.291C1547.24 297.258 1547.69 294.862 1547.69 292.297C1547.69 284.94 1544 278.975 1539.46 278.975C1534.91 278.975 1531.23 284.94 1531.23 292.297C1531.23 296.079 1532.2 299.492 1533.77 301.917C1525.05 305.934 1518.55 314.253 1518.55 324.858C1518.55 333.649 1523.13 340.958 1529.63 345.462V349.891C1529.63 350.864 1529.71 351.805 1529.86 352.711V357.572C1529.86 360.515 1527.4 362.901 1524.37 362.901C1521.34 362.901 1518.89 360.515 1518.89 357.572V352.244C1518.89 349.301 1516.43 346.915 1513.4 346.915C1510.37 346.915 1507.91 349.301 1507.91 352.244V357.572C1507.91 360.515 1505.46 362.901 1502.43 362.901C1499.4 362.901 1496.94 360.515 1496.94 357.572V352.244C1496.94 349.301 1494.49 346.915 1491.46 346.915C1488.43 346.915 1485.97 349.301 1485.97 352.244V357.572C1485.97 360.515 1483.52 362.901 1480.49 362.901C1477.46 362.901 1475 360.515 1475 357.572V288.3C1475 267.7 1492.19 251 1513.4 251ZM1540.83 352.615V352.244C1540.83 351.34 1540.6 350.488 1540.19 349.742V339.023C1533.73 336.962 1529.1 331.398 1529.1 324.858C1529.1 316.563 1536.55 309.838 1545.73 309.838C1546.7 309.838 1547.66 309.914 1548.59 310.059C1549.7 310.233 1550.77 310.507 1551.8 310.871V356.567H1547.58C1544.57 356.567 1541.98 354.944 1540.83 352.615ZM1512.03 305.618C1516.57 305.618 1520.26 299.654 1520.26 292.297C1520.26 284.94 1516.57 278.975 1512.03 278.975C1507.48 278.975 1503.8 284.94 1503.8 292.297C1503.8 299.654 1507.48 305.618 1512.03 305.618Z" fill="white"/>
</g>
<g opacity="0.5" filter="url(#filter5_di_245_825)">
<path d="M1811.29 114.825C1820.47 114.825 1827.92 121.549 1827.92 129.845C1827.92 134.158 1825.9 138.046 1822.68 140.785C1824.27 142.644 1824.22 144.802 1824.22 147.09L1839 138.189V171.567L1824.22 162.666V164.891C1824.22 168.578 1820.91 171.567 1816.83 171.567H1783.58C1779.5 171.567 1776.19 168.578 1776.19 164.891V154.023C1769.73 151.961 1765.1 146.398 1765.1 139.858C1765.1 131.563 1772.55 124.838 1781.73 124.838C1786.96 124.838 1791.63 127.02 1794.67 130.43C1794.56 127.821 1795.22 125.204 1796.52 122.942C1799.28 118.12 1804.86 114.825 1811.29 114.825Z" fill="white"/>
<path fill-rule="evenodd" clip-rule="evenodd" d="M1749.4 66C1770.61 66 1787.8 82.6999 1787.8 103.3V114.923C1786.07 114.551 1784.28 114.336 1782.46 114.291C1783.24 112.258 1783.69 109.862 1783.69 107.297C1783.69 99.9395 1780 93.9753 1775.46 93.9753C1770.91 93.9753 1767.23 99.9395 1767.23 107.297C1767.23 111.079 1768.2 114.492 1769.77 116.917C1761.05 120.934 1754.55 129.253 1754.55 139.858C1754.55 148.649 1759.13 155.958 1765.63 160.462V164.891C1765.63 165.864 1765.71 166.805 1765.86 167.711V172.572C1765.86 175.515 1763.4 177.901 1760.37 177.901C1757.34 177.901 1754.89 175.515 1754.89 172.572V167.244C1754.89 164.301 1752.43 161.915 1749.4 161.915C1746.37 161.915 1743.91 164.301 1743.91 167.244V172.572C1743.91 175.515 1741.46 177.901 1738.43 177.901C1735.4 177.901 1732.94 175.515 1732.94 172.572V167.244C1732.94 164.301 1730.49 161.915 1727.46 161.915C1724.43 161.915 1721.97 164.301 1721.97 167.244V172.572C1721.97 175.515 1719.52 177.901 1716.49 177.901C1713.46 177.901 1711 175.515 1711 172.572V103.3C1711 82.6999 1728.19 66 1749.4 66ZM1776.83 167.615V167.244C1776.83 166.34 1776.6 165.488 1776.19 164.742V154.023C1769.73 151.962 1765.1 146.398 1765.1 139.858C1765.1 131.563 1772.55 124.838 1781.73 124.838C1782.7 124.838 1783.66 124.914 1784.59 125.059C1785.7 125.233 1786.77 125.507 1787.8 125.871V171.567H1783.58C1780.57 171.567 1777.98 169.944 1776.83 167.615ZM1748.03 120.618C1752.57 120.618 1756.26 114.654 1756.26 107.297C1756.26 99.9395 1752.57 93.9753 1748.03 93.9753C1743.48 93.9753 1739.8 99.9395 1739.8 107.297C1739.8 114.654 1743.48 120.618 1748.03 120.618Z" fill="white"/>
</g>
<g opacity="0.5" filter="url(#filter6_di_245_825)">
<path d="M1260.29 126.825C1269.47 126.825 1276.92 133.549 1276.92 141.845C1276.92 146.158 1274.9 150.046 1271.68 152.785C1273.27 154.644 1273.22 156.802 1273.22 159.09L1288 150.189V183.567L1273.22 174.666V176.891C1273.22 180.578 1269.91 183.567 1265.83 183.567H1232.58C1228.5 183.567 1225.19 180.578 1225.19 176.891V166.023C1218.73 163.961 1214.1 158.398 1214.1 151.858C1214.1 143.563 1221.55 136.838 1230.73 136.838C1235.96 136.838 1240.63 139.02 1243.67 142.43C1243.56 139.821 1244.22 137.204 1245.52 134.942C1248.28 130.12 1253.86 126.825 1260.29 126.825Z" fill="white"/>
<path fill-rule="evenodd" clip-rule="evenodd" d="M1198.4 78C1219.61 78 1236.8 94.6999 1236.8 115.3V126.923C1235.07 126.551 1233.28 126.336 1231.46 126.291C1232.24 124.258 1232.69 121.862 1232.69 119.297C1232.69 111.94 1229 105.975 1224.46 105.975C1219.91 105.975 1216.23 111.94 1216.23 119.297C1216.23 123.079 1217.2 126.492 1218.77 128.917C1210.05 132.934 1203.55 141.253 1203.55 151.858C1203.55 160.649 1208.13 167.958 1214.63 172.462V176.891C1214.63 177.864 1214.71 178.805 1214.86 179.711V184.572C1214.86 187.515 1212.4 189.901 1209.37 189.901C1206.34 189.901 1203.89 187.515 1203.89 184.572V179.244C1203.89 176.301 1201.43 173.915 1198.4 173.915C1195.37 173.915 1192.91 176.301 1192.91 179.244V184.572C1192.91 187.515 1190.46 189.901 1187.43 189.901C1184.4 189.901 1181.94 187.515 1181.94 184.572V179.244C1181.94 176.301 1179.49 173.915 1176.46 173.915C1173.43 173.915 1170.97 176.301 1170.97 179.244V184.572C1170.97 187.515 1168.52 189.901 1165.49 189.901C1162.46 189.901 1160 187.515 1160 184.572V115.3C1160 94.6999 1177.19 78 1198.4 78ZM1225.83 179.615V179.244C1225.83 178.34 1225.6 177.488 1225.19 176.742V166.023C1218.73 163.962 1214.1 158.398 1214.1 151.858C1214.1 143.563 1221.55 136.838 1230.73 136.838C1231.7 136.838 1232.66 136.914 1233.59 137.059C1234.7 137.233 1235.77 137.507 1236.8 137.871V183.567H1232.58C1229.57 183.567 1226.98 181.944 1225.83 179.615ZM1197.03 132.618C1201.57 132.618 1205.26 126.654 1205.26 119.297C1205.26 111.94 1201.57 105.975 1197.03 105.975C1192.48 105.975 1188.8 111.94 1188.8 119.297C1188.8 126.654 1192.48 132.618 1197.03 132.618Z" fill="white"/>
</g>
<g opacity="0.5" filter="url(#filter7_di_245_825)">
<path d="M414.289 249.825C423.472 249.825 430.916 256.549 430.916 264.845C430.916 269.158 428.903 273.046 425.681 275.785C427.271 277.644 427.221 279.802 427.221 282.09L442 273.189V306.567L427.221 297.666V299.891C427.221 303.578 423.912 306.567 419.831 306.567H386.577C382.496 306.567 379.188 303.578 379.188 299.891V289.023C372.73 286.961 368.103 281.398 368.103 274.858C368.103 266.563 375.547 259.838 384.73 259.838C389.96 259.838 394.627 262.02 397.674 265.43C397.564 262.821 398.22 260.204 399.518 257.942C402.285 253.12 407.861 249.825 414.289 249.825Z" fill="white"/>
<path fill-rule="evenodd" clip-rule="evenodd" d="M352.4 201C373.608 201 390.8 217.7 390.8 238.3V249.923C389.068 249.551 387.281 249.336 385.462 249.291C386.238 247.258 386.686 244.862 386.686 242.297C386.686 234.94 383.002 228.975 378.457 228.975C373.913 228.975 370.229 234.94 370.229 242.297C370.229 246.079 371.202 249.492 372.766 251.917C364.053 255.934 357.547 264.253 357.547 274.858C357.547 283.649 362.128 290.958 368.631 295.462V299.891C368.631 300.864 368.709 301.805 368.857 302.711V307.572C368.857 310.515 366.401 312.901 363.372 312.901C360.342 312.901 357.886 310.515 357.886 307.572V302.244C357.886 299.301 355.43 296.915 352.4 296.915C349.371 296.915 346.915 299.301 346.915 302.244V307.572C346.915 310.515 344.458 312.901 341.429 312.901C338.399 312.901 335.943 310.515 335.943 307.572V302.244C335.943 299.301 333.487 296.915 330.457 296.915C327.428 296.915 324.972 299.301 324.972 302.244V307.572C324.972 310.515 322.516 312.901 319.486 312.901C316.456 312.901 314 310.515 314 307.572V238.3C314 217.7 331.193 201 352.4 201ZM379.829 302.615V302.244C379.829 301.34 379.597 300.488 379.188 299.742V289.023C372.73 286.962 368.103 281.398 368.103 274.858C368.103 266.563 375.547 259.838 384.73 259.838C385.704 259.838 386.659 259.914 387.587 260.059C388.7 260.233 389.775 260.507 390.8 260.871V306.567H386.578C383.57 306.567 380.982 304.944 379.829 302.615ZM351.029 255.618C355.573 255.618 359.257 249.654 359.257 242.297C359.257 234.94 355.573 228.975 351.029 228.975C346.484 228.975 342.8 234.94 342.8 242.297C342.8 249.654 346.484 255.618 351.029 255.618Z" fill="white"/>
</g>
<g opacity="0.5" filter="url(#filter8_di_245_825)">
<path d="M234.289 520.825C243.471 520.825 250.915 527.549 250.915 535.845C250.915 540.158 248.903 544.046 245.681 546.785C247.271 548.644 247.221 550.802 247.221 553.09L262 544.189V577.567L247.221 568.666V570.891C247.221 574.578 243.912 577.567 239.831 577.567H206.577C202.496 577.567 199.188 574.578 199.188 570.891V560.023C192.73 557.961 188.103 552.398 188.103 545.858C188.103 537.563 195.547 530.838 204.73 530.838C209.96 530.838 214.626 533.02 217.674 536.43C217.563 533.821 218.219 531.204 219.518 528.942C222.285 524.12 227.861 520.825 234.289 520.825Z" fill="white"/>
<path fill-rule="evenodd" clip-rule="evenodd" d="M172.4 472C193.608 472 210.8 488.7 210.8 509.3V520.923C209.068 520.551 207.281 520.336 205.462 520.291C206.238 518.258 206.686 515.862 206.686 513.297C206.686 505.939 203.002 499.975 198.457 499.975C193.913 499.975 190.229 505.939 190.229 513.297C190.229 517.079 191.202 520.492 192.765 522.917C184.053 526.934 177.546 535.253 177.546 545.858C177.546 554.649 182.128 561.958 188.631 566.462V570.891C188.631 571.864 188.709 572.805 188.857 573.711V578.572C188.857 581.515 186.401 583.901 183.371 583.901C180.342 583.901 177.886 581.515 177.886 578.572V573.244C177.886 570.301 175.43 567.915 172.4 567.915C169.37 567.915 166.914 570.301 166.914 573.244V578.572C166.914 581.515 164.458 583.901 161.429 583.901C158.399 583.901 155.943 581.515 155.943 578.572V573.244C155.943 570.301 153.487 567.915 150.457 567.915C147.427 567.915 144.971 570.301 144.971 573.244V578.572C144.971 581.515 142.515 583.901 139.486 583.901C136.456 583.901 134 581.515 134 578.572V509.3C134 488.7 151.192 472 172.4 472ZM199.829 573.615V573.244C199.829 572.34 199.597 571.488 199.188 570.742V560.023C192.73 557.962 188.103 552.398 188.103 545.858C188.103 537.563 195.547 530.838 204.73 530.838C205.704 530.838 206.659 530.914 207.587 531.059C208.7 531.233 209.775 531.507 210.8 531.871V577.567H206.577C203.57 577.567 200.982 575.944 199.829 573.615ZM171.029 526.618C175.573 526.618 179.257 520.654 179.257 513.297C179.257 505.939 175.573 499.975 171.029 499.975C166.484 499.975 162.8 505.939 162.8 513.297C162.8 520.654 166.484 526.618 171.029 526.618Z" fill="white"/>
</g>
<g opacity="0.5" filter="url(#filter9_di_245_825)">
<path d="M208.289 772.825C217.471 772.825 224.915 779.549 224.915 787.845C224.915 792.158 222.903 796.046 219.681 798.785C221.271 800.644 221.221 802.802 221.221 805.09L236 796.189V829.567L221.221 820.666V822.891C221.221 826.578 217.912 829.567 213.831 829.567H180.577C176.496 829.567 173.188 826.578 173.188 822.891V812.023C166.73 809.961 162.103 804.398 162.103 797.858C162.103 789.563 169.547 782.838 178.73 782.838C183.96 782.838 188.626 785.02 191.674 788.43C191.563 785.821 192.219 783.204 193.518 780.942C196.285 776.12 201.861 772.825 208.289 772.825Z" fill="white"/>
<path fill-rule="evenodd" clip-rule="evenodd" d="M146.4 724C167.608 724 184.8 740.7 184.8 761.3V772.923C183.068 772.551 181.281 772.336 179.462 772.291C180.238 770.258 180.686 767.862 180.686 765.297C180.686 757.94 177.002 751.975 172.457 751.975C167.913 751.975 164.229 757.94 164.229 765.297C164.229 769.079 165.202 772.492 166.765 774.917C158.053 778.934 151.546 787.253 151.546 797.858C151.546 806.649 156.128 813.958 162.631 818.462V822.891C162.631 823.864 162.709 824.805 162.857 825.711V830.572C162.857 833.515 160.401 835.901 157.371 835.901C154.342 835.901 151.886 833.515 151.886 830.572V825.244C151.886 822.301 149.43 819.915 146.4 819.915C143.37 819.915 140.914 822.301 140.914 825.244V830.572C140.914 833.515 138.458 835.901 135.429 835.901C132.399 835.901 129.943 833.515 129.943 830.572V825.244C129.943 822.301 127.487 819.915 124.457 819.915C121.427 819.915 118.971 822.301 118.971 825.244V830.572C118.971 833.515 116.515 835.901 113.486 835.901C110.456 835.901 108 833.515 108 830.572V761.3C108 740.7 125.192 724 146.4 724ZM173.829 825.615V825.244C173.829 824.34 173.597 823.488 173.188 822.742V812.023C166.73 809.962 162.103 804.398 162.103 797.858C162.103 789.563 169.547 782.838 178.73 782.838C179.704 782.838 180.659 782.914 181.587 783.059C182.7 783.233 183.775 783.507 184.8 783.871V829.567H180.577C177.57 829.567 174.982 827.944 173.829 825.615ZM145.029 778.618C149.573 778.618 153.257 772.654 153.257 765.297C153.257 757.94 149.573 751.975 145.029 751.975C140.484 751.975 136.8 757.94 136.8 765.297C136.8 772.654 140.484 778.618 145.029 778.618Z" fill="white"/>
</g>
<g opacity="0.5" filter="url(#filter10_di_245_825)">
<path d="M683.289 81.8247C692.471 81.8247 699.915 88.5494 699.915 96.8447C699.915 101.158 697.903 105.046 694.681 107.785C696.271 109.644 696.221 111.802 696.221 114.09L711 105.189V138.567L696.221 129.666V131.891C696.221 135.578 692.912 138.567 688.831 138.567H655.577C651.496 138.567 648.188 135.578 648.188 131.891V121.023C641.73 118.961 637.103 113.398 637.103 106.858C637.103 98.5627 644.547 91.838 653.73 91.838C658.96 91.838 663.626 94.0197 666.674 97.4305C666.563 94.8212 667.219 92.2044 668.518 89.9419C671.285 85.1197 676.861 81.8247 683.289 81.8247Z" fill="white"/>
<path fill-rule="evenodd" clip-rule="evenodd" d="M621.4 33C642.608 33 659.8 49.6999 659.8 70.3003V81.9226C658.068 81.5509 656.281 81.3361 654.462 81.2906C655.238 79.2578 655.686 76.862 655.686 74.2968C655.686 66.9395 652.002 60.9753 647.457 60.9753C642.913 60.9753 639.229 66.9395 639.229 74.2968C639.229 78.0787 640.202 81.4924 641.765 83.9173C633.053 87.9341 626.546 96.2526 626.546 106.858C626.546 115.649 631.128 122.958 637.631 127.462V131.891C637.631 132.864 637.709 133.805 637.857 134.711V139.572C637.857 142.515 635.401 144.901 632.371 144.901C629.342 144.901 626.886 142.515 626.886 139.572V134.244C626.886 131.301 624.43 128.915 621.4 128.915C618.37 128.915 615.914 131.301 615.914 134.244V139.572C615.914 142.515 613.458 144.901 610.429 144.901C607.399 144.901 604.943 142.515 604.943 139.572V134.244C604.943 131.301 602.487 128.915 599.457 128.915C596.427 128.915 593.971 131.301 593.971 134.244V139.572C593.971 142.515 591.515 144.901 588.486 144.901C585.456 144.901 583 142.515 583 139.572V70.3003C583 49.6999 600.192 33 621.4 33ZM648.829 134.615V134.244C648.829 133.34 648.597 132.488 648.188 131.742V121.023C641.73 118.962 637.103 113.398 637.103 106.858C637.103 98.5628 644.547 91.8381 653.73 91.8381C654.704 91.8381 655.659 91.9138 656.587 92.059C657.7 92.2331 658.775 92.5072 659.8 92.8706V138.567H655.577C652.57 138.567 649.982 136.944 648.829 134.615ZM620.029 87.6184C624.573 87.6184 628.257 81.6541 628.257 74.2968C628.257 66.9395 624.573 60.9753 620.029 60.9753C615.484 60.9753 611.8 66.9395 611.8 74.2968C611.8 81.6541 615.484 87.6184 620.029 87.6184Z" fill="white"/>
</g>
<g opacity="0.5" filter="url(#filter11_di_245_825)">
<path d="M1065.29 733.825C1074.47 733.825 1081.92 740.549 1081.92 748.845C1081.92 753.158 1079.9 757.046 1076.68 759.785C1078.27 761.644 1078.22 763.802 1078.22 766.09L1093 757.189V790.567L1078.22 781.666V783.891C1078.22 787.578 1074.91 790.567 1070.83 790.567H1037.58C1033.5 790.567 1030.19 787.578 1030.19 783.891V773.023C1023.73 770.961 1019.1 765.398 1019.1 758.858C1019.1 750.563 1026.55 743.838 1035.73 743.838C1040.96 743.838 1045.63 746.02 1048.67 749.43C1048.56 746.821 1049.22 744.204 1050.52 741.942C1053.28 737.12 1058.86 733.825 1065.29 733.825Z" fill="white"/>
<path fill-rule="evenodd" clip-rule="evenodd" d="M1003.4 685C1024.61 685 1041.8 701.7 1041.8 722.3V733.923C1040.07 733.551 1038.28 733.336 1036.46 733.291C1037.24 731.258 1037.69 728.862 1037.69 726.297C1037.69 718.94 1034 712.975 1029.46 712.975C1024.91 712.975 1021.23 718.94 1021.23 726.297C1021.23 730.079 1022.2 733.492 1023.77 735.917C1015.05 739.934 1008.55 748.253 1008.55 758.858C1008.55 767.649 1013.13 774.958 1019.63 779.462V783.891C1019.63 784.864 1019.71 785.805 1019.86 786.711V791.572C1019.86 794.515 1017.4 796.901 1014.37 796.901C1011.34 796.901 1008.89 794.515 1008.89 791.572V786.244C1008.89 783.301 1006.43 780.915 1003.4 780.915C1000.37 780.915 997.914 783.301 997.914 786.244V791.572C997.914 794.515 995.458 796.901 992.429 796.901C989.399 796.901 986.943 794.515 986.943 791.572V786.244C986.943 783.301 984.487 780.915 981.457 780.915C978.427 780.915 975.971 783.301 975.971 786.244V791.572C975.971 794.515 973.515 796.901 970.486 796.901C967.456 796.901 965 794.515 965 791.572V722.3C965 701.7 982.192 685 1003.4 685ZM1030.83 786.615V786.244C1030.83 785.34 1030.6 784.488 1030.19 783.742V773.023C1023.73 770.962 1019.1 765.398 1019.1 758.858C1019.1 750.563 1026.55 743.838 1035.73 743.838C1036.7 743.838 1037.66 743.914 1038.59 744.059C1039.7 744.233 1040.77 744.507 1041.8 744.871V790.567H1037.58C1034.57 790.567 1031.98 788.944 1030.83 786.615ZM1002.03 739.618C1006.57 739.618 1010.26 733.654 1010.26 726.297C1010.26 718.94 1006.57 712.975 1002.03 712.975C997.484 712.975 993.8 718.94 993.8 726.297C993.8 733.654 997.484 739.618 1002.03 739.618Z" fill="white"/>
</g>
<g opacity="0.5" filter="url(#filter12_di_245_825)">
<path d="M646.289 758.825C655.471 758.825 662.915 765.549 662.915 773.845C662.915 778.158 660.903 782.046 657.681 784.785C659.271 786.644 659.221 788.802 659.221 791.09L674 782.189V815.567L659.221 806.666V808.891C659.221 812.578 655.912 815.567 651.831 815.567H618.577C614.496 815.567 611.188 812.578 611.188 808.891V798.023C604.73 795.961 600.103 790.398 600.103 783.858C600.103 775.563 607.547 768.838 616.73 768.838C621.96 768.838 626.626 771.02 629.674 774.43C629.563 771.821 630.219 769.204 631.518 766.942C634.285 762.12 639.861 758.825 646.289 758.825Z" fill="white"/>
<path fill-rule="evenodd" clip-rule="evenodd" d="M584.4 710C605.608 710 622.8 726.7 622.8 747.3V758.923C621.068 758.551 619.281 758.336 617.462 758.291C618.238 756.258 618.686 753.862 618.686 751.297C618.686 743.94 615.002 737.975 610.457 737.975C605.913 737.975 602.229 743.94 602.229 751.297C602.229 755.079 603.202 758.492 604.765 760.917C596.053 764.934 589.546 773.253 589.546 783.858C589.546 792.649 594.128 799.958 600.631 804.462V808.891C600.631 809.864 600.709 810.805 600.857 811.711V816.572C600.857 819.515 598.401 821.901 595.371 821.901C592.342 821.901 589.886 819.515 589.886 816.572V811.244C589.886 808.301 587.43 805.915 584.4 805.915C581.37 805.915 578.914 808.301 578.914 811.244V816.572C578.914 819.515 576.458 821.901 573.429 821.901C570.399 821.901 567.943 819.515 567.943 816.572V811.244C567.943 808.301 565.487 805.915 562.457 805.915C559.427 805.915 556.971 808.301 556.971 811.244V816.572C556.971 819.515 554.515 821.901 551.486 821.901C548.456 821.901 546 819.515 546 816.572V747.3C546 726.7 563.192 710 584.4 710ZM611.829 811.615V811.244C611.829 810.34 611.597 809.488 611.188 808.742V798.023C604.73 795.962 600.103 790.398 600.103 783.858C600.103 775.563 607.547 768.838 616.73 768.838C617.704 768.838 618.659 768.914 619.587 769.059C620.7 769.233 621.775 769.507 622.8 769.871V815.567H618.577C615.57 815.567 612.982 813.944 611.829 811.615ZM583.029 764.618C587.573 764.618 591.257 758.654 591.257 751.297C591.257 743.94 587.573 737.975 583.029 737.975C578.484 737.975 574.8 743.94 574.8 751.297C574.8 758.654 578.484 764.618 583.029 764.618Z" fill="white"/>
</g>
<g opacity="0.5" filter="url(#filter13_di_245_825)">
<path d="M1524.29 758.825C1533.47 758.825 1540.92 765.549 1540.92 773.845C1540.92 778.158 1538.9 782.046 1535.68 784.785C1537.27 786.644 1537.22 788.802 1537.22 791.09L1552 782.189V815.567L1537.22 806.666V808.891C1537.22 812.578 1533.91 815.567 1529.83 815.567H1496.58C1492.5 815.567 1489.19 812.578 1489.19 808.891V798.023C1482.73 795.961 1478.1 790.398 1478.1 783.858C1478.1 775.563 1485.55 768.838 1494.73 768.838C1499.96 768.838 1504.63 771.02 1507.67 774.43C1507.56 771.821 1508.22 769.204 1509.52 766.942C1512.28 762.12 1517.86 758.825 1524.29 758.825Z" fill="white"/>
<path fill-rule="evenodd" clip-rule="evenodd" d="M1462.4 710C1483.61 710 1500.8 726.7 1500.8 747.3V758.923C1499.07 758.551 1497.28 758.336 1495.46 758.291C1496.24 756.258 1496.69 753.862 1496.69 751.297C1496.69 743.94 1493 737.975 1488.46 737.975C1483.91 737.975 1480.23 743.94 1480.23 751.297C1480.23 755.079 1481.2 758.492 1482.77 760.917C1474.05 764.934 1467.55 773.253 1467.55 783.858C1467.55 792.649 1472.13 799.958 1478.63 804.462V808.891C1478.63 809.864 1478.71 810.805 1478.86 811.711V816.572C1478.86 819.515 1476.4 821.901 1473.37 821.901C1470.34 821.901 1467.89 819.515 1467.89 816.572V811.244C1467.89 808.301 1465.43 805.915 1462.4 805.915C1459.37 805.915 1456.91 808.301 1456.91 811.244V816.572C1456.91 819.515 1454.46 821.901 1451.43 821.901C1448.4 821.901 1445.94 819.515 1445.94 816.572V811.244C1445.94 808.301 1443.49 805.915 1440.46 805.915C1437.43 805.915 1434.97 808.301 1434.97 811.244V816.572C1434.97 819.515 1432.52 821.901 1429.49 821.901C1426.46 821.901 1424 819.515 1424 816.572V747.3C1424 726.7 1441.19 710 1462.4 710ZM1489.83 811.615V811.244C1489.83 810.34 1489.6 809.488 1489.19 808.742V798.023C1482.73 795.962 1478.1 790.398 1478.1 783.858C1478.1 775.563 1485.55 768.838 1494.73 768.838C1495.7 768.838 1496.66 768.914 1497.59 769.059C1498.7 769.233 1499.77 769.507 1500.8 769.871V815.567H1496.58C1493.57 815.567 1490.98 813.944 1489.83 811.615ZM1461.03 764.618C1465.57 764.618 1469.26 758.654 1469.26 751.297C1469.26 743.94 1465.57 737.975 1461.03 737.975C1456.48 737.975 1452.8 743.94 1452.8 751.297C1452.8 758.654 1456.48 764.618 1461.03 764.618Z" fill="white"/>
</g>
</g>
<defs>
<filter id="filter0_di_245_825" x="780" y="149.5" width="360" height="360" filterUnits="userSpaceOnUse" color-interpolation-filters="sRGB">
<feFlood flood-opacity="0" result="BackgroundImageFix"/>
<feColorMatrix in="SourceAlpha" type="matrix" values="0 0 0 0 0 0 0 0 0 0 0 0 0 0 0 0 0 0 127 0" result="hardAlpha"/>
<feOffset/>
<feGaussianBlur stdDeviation="15"/>
<feComposite in2="hardAlpha" operator="out"/>
<feColorMatrix type="matrix" values="0 0 0 0 0.354809 0 0 0 0 0.795833 0 0 0 0 0.691818 0 0 0 0.75 0"/>
<feBlend mode="normal" in2="BackgroundImageFix" result="effect1_dropShadow_245_825"/>
<feBlend mode="normal" in="SourceGraphic" in2="effect1_dropShadow_245_825" result="shape"/>
<feColorMatrix in="SourceAlpha" type="matrix" values="0 0 0 0 0 0 0 0 0 0 0 0 0 0 0 0 0 0 127 0" result="hardAlpha"/>
<feOffset/>
<feGaussianBlur stdDeviation="15"/>
<feComposite in2="hardAlpha" operator="arithmetic" k2="-1" k3="1"/>
<feColorMatrix type="matrix" values="0 0 0 0 0.187361 0 0 0 0 0.599372 0 0 0 0 0.633333 0 0 0 0.5 0"/>
<feBlend mode="normal" in2="shape" result="effect2_innerShadow_245_825"/>
</filter>
<filter id="filter1_di_245_825" x="369.284" y="466.26" width="1184.31" height="131.78" filterUnits="userSpaceOnUse" color-interpolation-filters="sRGB">
<feFlood flood-opacity="0" result="BackgroundImageFix"/>
<feColorMatrix in="SourceAlpha" type="matrix" values="0 0 0 0 0 0 0 0 0 0 0 0 0 0 0 0 0 0 127 0" result="hardAlpha"/>
<feOffset/>
<feGaussianBlur stdDeviation="7.5"/>
<feComposite in2="hardAlpha" operator="out"/>
<feColorMatrix type="matrix" values="0 0 0 0 0.354809 0 0 0 0 0.795833 0 0 0 0 0.691818 0 0 0 0.75 0"/>
<feBlend mode="normal" in2="BackgroundImageFix" result="effect1_dropShadow_245_825"/>
<feBlend mode="normal" in="SourceGraphic" in2="effect1_dropShadow_245_825" result="shape"/>
<feColorMatrix in="SourceAlpha" type="matrix" values="0 0 0 0 0 0 0 0 0 0 0 0 0 0 0 0 0 0 127 0" result="hardAlpha"/>
<feOffset/>
<feGaussianBlur stdDeviation="10"/>
<feComposite in2="hardAlpha" operator="arithmetic" k2="-1" k3="1"/>
<feColorMatrix type="matrix" values="0 0 0 0 0.352941 0 0 0 0 0.796078 0 0 0 0 0.690196 0 0 0 0.5 0"/>
<feBlend mode="normal" in2="shape" result="effect2_innerShadow_245_825"/>
</filter>
<filter id="filter2_di_245_825" x="40" y="25" width="188" height="188" filterUnits="userSpaceOnUse" color-interpolation-filters="sRGB">
<feFlood flood-opacity="0" result="BackgroundImageFix"/>
<feColorMatrix in="SourceAlpha" type="matrix" values="0 0 0 0 0 0 0 0 0 0 0 0 0 0 0 0 0 0 127 0" result="hardAlpha"/>
<feOffset/>
<feGaussianBlur stdDeviation="15"/>
<feComposite in2="hardAlpha" operator="out"/>
<feColorMatrix type="matrix" values="0 0 0 0 0.354809 0 0 0 0 0.795833 0 0 0 0 0.691818 0 0 0 0.75 0"/>
<feBlend mode="normal" in2="BackgroundImageFix" result="effect1_dropShadow_245_825"/>
<feBlend mode="normal" in="SourceGraphic" in2="effect1_dropShadow_245_825" result="shape"/>
<feColorMatrix in="SourceAlpha" type="matrix" values="0 0 0 0 0 0 0 0 0 0 0 0 0 0 0 0 0 0 127 0" result="hardAlpha"/>
<feOffset/>
<feGaussianBlur stdDeviation="15"/>
<feComposite in2="hardAlpha" operator="arithmetic" k2="-1" k3="1"/>
<feColorMatrix type="matrix" values="0 0 0 0 0.187361 0 0 0 0 0.599372 0 0 0 0 0.633333 0 0 0 0.5 0"/>
<feBlend mode="normal" in2="shape" result="effect2_innerShadow_245_825"/>
</filter>
<filter id="filter3_di_245_825" x="1655" y="514" width="188" height="188" filterUnits="userSpaceOnUse" color-interpolation-filters="sRGB">
<feFlood flood-opacity="0" result="BackgroundImageFix"/>
<feColorMatrix in="SourceAlpha" type="matrix" values="0 0 0 0 0 0 0 0 0 0 0 0 0 0 0 0 0 0 127 0" result="hardAlpha"/>
<feOffset/>
<feGaussianBlur stdDeviation="15"/>
<feComposite in2="hardAlpha" operator="out"/>
<feColorMatrix type="matrix" values="0 0 0 0 0.354809 0 0 0 0 0.795833 0 0 0 0 0.691818 0 0 0 0.75 0"/>
<feBlend mode="normal" in2="BackgroundImageFix" result="effect1_dropShadow_245_825"/>
<feBlend mode="normal" in="SourceGraphic" in2="effect1_dropShadow_245_825" result="shape"/>
<feColorMatrix in="SourceAlpha" type="matrix" values="0 0 0 0 0 0 0 0 0 0 0 0 0 0 0 0 0 0 127 0" result="hardAlpha"/>
<feOffset/>
<feGaussianBlur stdDeviation="15"/>
<feComposite in2="hardAlpha" operator="arithmetic" k2="-1" k3="1"/>
<feColorMatrix type="matrix" values="0 0 0 0 0.187361 0 0 0 0 0.599372 0 0 0 0 0.633333 0 0 0 0.5 0"/>
<feBlend mode="normal" in2="shape" result="effect2_innerShadow_245_825"/>
</filter>
<filter id="filter4_di_245_825" x="1445" y="213" width="188" height="188" filterUnits="userSpaceOnUse" color-interpolation-filters="sRGB">
<feFlood flood-opacity="0" result="BackgroundImageFix"/>
<feColorMatrix in="SourceAlpha" type="matrix" values="0 0 0 0 0 0 0 0 0 0 0 0 0 0 0 0 0 0 127 0" result="hardAlpha"/>
<feOffset/>
<feGaussianBlur stdDeviation="15"/>
<feComposite in2="hardAlpha" operator="out"/>
<feColorMatrix type="matrix" values="0 0 0 0 0.354809 0 0 0 0 0.795833 0 0 0 0 0.691818 0 0 0 0.75 0"/>
<feBlend mode="normal" in2="BackgroundImageFix" result="effect1_dropShadow_245_825"/>
<feBlend mode="normal" in="SourceGraphic" in2="effect1_dropShadow_245_825" result="shape"/>
<feColorMatrix in="SourceAlpha" type="matrix" values="0 0 0 0 0 0 0 0 0 0 0 0 0 0 0 0 0 0 127 0" result="hardAlpha"/>
<feOffset/>
<feGaussianBlur stdDeviation="15"/>
<feComposite in2="hardAlpha" operator="arithmetic" k2="-1" k3="1"/>
<feColorMatrix type="matrix" values="0 0 0 0 0.187361 0 0 0 0 0.599372 0 0 0 0 0.633333 0 0 0 0.5 0"/>
<feBlend mode="normal" in2="shape" result="effect2_innerShadow_245_825"/>
</filter>
<filter id="filter5_di_245_825" x="1681" y="28" width="188" height="188" filterUnits="userSpaceOnUse" color-interpolation-filters="sRGB">
<feFlood flood-opacity="0" result="BackgroundImageFix"/>
<feColorMatrix in="SourceAlpha" type="matrix" values="0 0 0 0 0 0 0 0 0 0 0 0 0 0 0 0 0 0 127 0" result="hardAlpha"/>
<feOffset/>
<feGaussianBlur stdDeviation="15"/>
<feComposite in2="hardAlpha" operator="out"/>
<feColorMatrix type="matrix" values="0 0 0 0 0.354809 0 0 0 0 0.795833 0 0 0 0 0.691818 0 0 0 0.75 0"/>
<feBlend mode="normal" in2="BackgroundImageFix" result="effect1_dropShadow_245_825"/>
<feBlend mode="normal" in="SourceGraphic" in2="effect1_dropShadow_245_825" result="shape"/>
<feColorMatrix in="SourceAlpha" type="matrix" values="0 0 0 0 0 0 0 0 0 0 0 0 0 0 0 0 0 0 127 0" result="hardAlpha"/>
<feOffset/>
<feGaussianBlur stdDeviation="15"/>
<feComposite in2="hardAlpha" operator="arithmetic" k2="-1" k3="1"/>
<feColorMatrix type="matrix" values="0 0 0 0 0.187361 0 0 0 0 0.599372 0 0 0 0 0.633333 0 0 0 0.5 0"/>
<feBlend mode="normal" in2="shape" result="effect2_innerShadow_245_825"/>
</filter>
<filter id="filter6_di_245_825" x="1130" y="40" width="188" height="188" filterUnits="userSpaceOnUse" color-interpolation-filters="sRGB">
<feFlood flood-opacity="0" result="BackgroundImageFix"/>
<feColorMatrix in="SourceAlpha" type="matrix" values="0 0 0 0 0 0 0 0 0 0 0 0 0 0 0 0 0 0 127 0" result="hardAlpha"/>
<feOffset/>
<feGaussianBlur stdDeviation="15"/>
<feComposite in2="hardAlpha" operator="out"/>
<feColorMatrix type="matrix" values="0 0 0 0 0.354809 0 0 0 0 0.795833 0 0 0 0 0.691818 0 0 0 0.75 0"/>
<feBlend mode="normal" in2="BackgroundImageFix" result="effect1_dropShadow_245_825"/>
<feBlend mode="normal" in="SourceGraphic" in2="effect1_dropShadow_245_825" result="shape"/>
<feColorMatrix in="SourceAlpha" type="matrix" values="0 0 0 0 0 0 0 0 0 0 0 0 0 0 0 0 0 0 127 0" result="hardAlpha"/>
<feOffset/>
<feGaussianBlur stdDeviation="15"/>
<feComposite in2="hardAlpha" operator="arithmetic" k2="-1" k3="1"/>
<feColorMatrix type="matrix" values="0 0 0 0 0.187361 0 0 0 0 0.599372 0 0 0 0 0.633333 0 0 0 0.5 0"/>
<feBlend mode="normal" in2="shape" result="effect2_innerShadow_245_825"/>
</filter>
<filter id="filter7_di_245_825" x="284" y="163" width="188" height="188" filterUnits="userSpaceOnUse" color-interpolation-filters="sRGB">
<feFlood flood-opacity="0" result="BackgroundImageFix"/>
<feColorMatrix in="SourceAlpha" type="matrix" values="0 0 0 0 0 0 0 0 0 0 0 0 0 0 0 0 0 0 127 0" result="hardAlpha"/>
<feOffset/>
<feGaussianBlur stdDeviation="15"/>
<feComposite in2="hardAlpha" operator="out"/>
<feColorMatrix type="matrix" values="0 0 0 0 0.354809 0 0 0 0 0.795833 0 0 0 0 0.691818 0 0 0 0.75 0"/>
<feBlend mode="normal" in2="BackgroundImageFix" result="effect1_dropShadow_245_825"/>
<feBlend mode="normal" in="SourceGraphic" in2="effect1_dropShadow_245_825" result="shape"/>
<feColorMatrix in="SourceAlpha" type="matrix" values="0 0 0 0 0 0 0 0 0 0 0 0 0 0 0 0 0 0 127 0" result="hardAlpha"/>
<feOffset/>
<feGaussianBlur stdDeviation="15"/>
<feComposite in2="hardAlpha" operator="arithmetic" k2="-1" k3="1"/>
<feColorMatrix type="matrix" values="0 0 0 0 0.187361 0 0 0 0 0.599372 0 0 0 0 0.633333 0 0 0 0.5 0"/>
<feBlend mode="normal" in2="shape" result="effect2_innerShadow_245_825"/>
</filter>
<filter id="filter8_di_245_825" x="104" y="434" width="188" height="188" filterUnits="userSpaceOnUse" color-interpolation-filters="sRGB">
<feFlood flood-opacity="0" result="BackgroundImageFix"/>
<feColorMatrix in="SourceAlpha" type="matrix" values="0 0 0 0 0 0 0 0 0 0 0 0 0 0 0 0 0 0 127 0" result="hardAlpha"/>
<feOffset/>
<feGaussianBlur stdDeviation="15"/>
<feComposite in2="hardAlpha" operator="out"/>
<feColorMatrix type="matrix" values="0 0 0 0 0.354809 0 0 0 0 0.795833 0 0 0 0 0.691818 0 0 0 0.75 0"/>
<feBlend mode="normal" in2="BackgroundImageFix" result="effect1_dropShadow_245_825"/>
<feBlend mode="normal" in="SourceGraphic" in2="effect1_dropShadow_245_825" result="shape"/>
<feColorMatrix in="SourceAlpha" type="matrix" values="0 0 0 0 0 0 0 0 0 0 0 0 0 0 0 0 0 0 127 0" result="hardAlpha"/>
<feOffset/>
<feGaussianBlur stdDeviation="15"/>
<feComposite in2="hardAlpha" operator="arithmetic" k2="-1" k3="1"/>
<feColorMatrix type="matrix" values="0 0 0 0 0.187361 0 0 0 0 0.599372 0 0 0 0 0.633333 0 0 0 0.5 0"/>
<feBlend mode="normal" in2="shape" result="effect2_innerShadow_245_825"/>
</filter>
<filter id="filter9_di_245_825" x="78" y="686" width="188" height="188" filterUnits="userSpaceOnUse" color-interpolation-filters="sRGB">
<feFlood flood-opacity="0" result="BackgroundImageFix"/>
<feColorMatrix in="SourceAlpha" type="matrix" values="0 0 0 0 0 0 0 0 0 0 0 0 0 0 0 0 0 0 127 0" result="hardAlpha"/>
<feOffset/>
<feGaussianBlur stdDeviation="15"/>
<feComposite in2="hardAlpha" operator="out"/>
<feColorMatrix type="matrix" values="0 0 0 0 0.354809 0 0 0 0 0.795833 0 0 0 0 0.691818 0 0 0 0.75 0"/>
<feBlend mode="normal" in2="BackgroundImageFix" result="effect1_dropShadow_245_825"/>
<feBlend mode="normal" in="SourceGraphic" in2="effect1_dropShadow_245_825" result="shape"/>
<feColorMatrix in="SourceAlpha" type="matrix" values="0 0 0 0 0 0 0 0 0 0 0 0 0 0 0 0 0 0 127 0" result="hardAlpha"/>
<feOffset/>
<feGaussianBlur stdDeviation="15"/>
<feComposite in2="hardAlpha" operator="arithmetic" k2="-1" k3="1"/>
<feColorMatrix type="matrix" values="0 0 0 0 0.187361 0 0 0 0 0.599372 0 0 0 0 0.633333 0 0 0 0.5 0"/>
<feBlend mode="normal" in2="shape" result="effect2_innerShadow_245_825"/>
</filter>
<filter id="filter10_di_245_825" x="553" y="-5" width="188" height="188" filterUnits="userSpaceOnUse" color-interpolation-filters="sRGB">
<feFlood flood-opacity="0" result="BackgroundImageFix"/>
<feColorMatrix in="SourceAlpha" type="matrix" values="0 0 0 0 0 0 0 0 0 0 0 0 0 0 0 0 0 0 127 0" result="hardAlpha"/>
<feOffset/>
<feGaussianBlur stdDeviation="15"/>
<feComposite in2="hardAlpha" operator="out"/>
<feColorMatrix type="matrix" values="0 0 0 0 0.354809 0 0 0 0 0.795833 0 0 0 0 0.691818 0 0 0 0.75 0"/>
<feBlend mode="normal" in2="BackgroundImageFix" result="effect1_dropShadow_245_825"/>
<feBlend mode="normal" in="SourceGraphic" in2="effect1_dropShadow_245_825" result="shape"/>
<feColorMatrix in="SourceAlpha" type="matrix" values="0 0 0 0 0 0 0 0 0 0 0 0 0 0 0 0 0 0 127 0" result="hardAlpha"/>
<feOffset/>
<feGaussianBlur stdDeviation="15"/>
<feComposite in2="hardAlpha" operator="arithmetic" k2="-1" k3="1"/>
<feColorMatrix type="matrix" values="0 0 0 0 0.187361 0 0 0 0 0.599372 0 0 0 0 0.633333 0 0 0 0.5 0"/>
<feBlend mode="normal" in2="shape" result="effect2_innerShadow_245_825"/>
</filter>
<filter id="filter11_di_245_825" x="935" y="647" width="188" height="188" filterUnits="userSpaceOnUse" color-interpolation-filters="sRGB">
<feFlood flood-opacity="0" result="BackgroundImageFix"/>
<feColorMatrix in="SourceAlpha" type="matrix" values="0 0 0 0 0 0 0 0 0 0 0 0 0 0 0 0 0 0 127 0" result="hardAlpha"/>
<feOffset/>
<feGaussianBlur stdDeviation="15"/>
<feComposite in2="hardAlpha" operator="out"/>
<feColorMatrix type="matrix" values="0 0 0 0 0.354809 0 0 0 0 0.795833 0 0 0 0 0.691818 0 0 0 0.75 0"/>
<feBlend mode="normal" in2="BackgroundImageFix" result="effect1_dropShadow_245_825"/>
<feBlend mode="normal" in="SourceGraphic" in2="effect1_dropShadow_245_825" result="shape"/>
<feColorMatrix in="SourceAlpha" type="matrix" values="0 0 0 0 0 0 0 0 0 0 0 0 0 0 0 0 0 0 127 0" result="hardAlpha"/>
<feOffset/>
<feGaussianBlur stdDeviation="15"/>
<feComposite in2="hardAlpha" operator="arithmetic" k2="-1" k3="1"/>
<feColorMatrix type="matrix" values="0 0 0 0 0.187361 0 0 0 0 0.599372 0 0 0 0 0.633333 0 0 0 0.5 0"/>
<feBlend mode="normal" in2="shape" result="effect2_innerShadow_245_825"/>
</filter>
<filter id="filter12_di_245_825" x="516" y="672" width="188" height="188" filterUnits="userSpaceOnUse" color-interpolation-filters="sRGB">
<feFlood flood-opacity="0" result="BackgroundImageFix"/>
<feColorMatrix in="SourceAlpha" type="matrix" values="0 0 0 0 0 0 0 0 0 0 0 0 0 0 0 0 0 0 127 0" result="hardAlpha"/>
<feOffset/>
<feGaussianBlur stdDeviation="15"/>
<feComposite in2="hardAlpha" operator="out"/>
<feColorMatrix type="matrix" values="0 0 0 0 0.354809 0 0 0 0 0.795833 0 0 0 0 0.691818 0 0 0 0.75 0"/>
<feBlend mode="normal" in2="BackgroundImageFix" result="effect1_dropShadow_245_825"/>
<feBlend mode="normal" in="SourceGraphic" in2="effect1_dropShadow_245_825" result="shape"/>
<feColorMatrix in="SourceAlpha" type="matrix" values="0 0 0 0 0 0 0 0 0 0 0 0 0 0 0 0 0 0 127 0" result="hardAlpha"/>
<feOffset/>
<feGaussianBlur stdDeviation="15"/>
<feComposite in2="hardAlpha" operator="arithmetic" k2="-1" k3="1"/>
<feColorMatrix type="matrix" values="0 0 0 0 0.187361 0 0 0 0 0.599372 0 0 0 0 0.633333 0 0 0 0.5 0"/>
<feBlend mode="normal" in2="shape" result="effect2_innerShadow_245_825"/>
</filter>
<filter id="filter13_di_245_825" x="1394" y="672" width="188" height="188" filterUnits="userSpaceOnUse" color-interpolation-filters="sRGB">
<feFlood flood-opacity="0" result="BackgroundImageFix"/>
<feColorMatrix in="SourceAlpha" type="matrix" values="0 0 0 0 0 0 0 0 0 0 0 0 0 0 0 0 0 0 127 0" result="hardAlpha"/>
<feOffset/>
<feGaussianBlur stdDeviation="15"/>
<feComposite in2="hardAlpha" operator="out"/>
<feColorMatrix type="matrix" values="0 0 0 0 0.354809 0 0 0 0 0.795833 0 0 0 0 0.691818 0 0 0 0.75 0"/>
<feBlend mode="normal" in2="BackgroundImageFix" result="effect1_dropShadow_245_825"/>
<feBlend mode="normal" in="SourceGraphic" in2="effect1_dropShadow_245_825" result="shape"/>
<feColorMatrix in="SourceAlpha" type="matrix" values="0 0 0 0 0 0 0 0 0 0 0 0 0 0 0 0 0 0 127 0" result="hardAlpha"/>
<feOffset/>
<feGaussianBlur stdDeviation="15"/>
<feComposite in2="hardAlpha" operator="arithmetic" k2="-1" k3="1"/>
<feColorMatrix type="matrix" values="0 0 0 0 0.187361 0 0 0 0 0.599372 0 0 0 0 0.633333 0 0 0 0.5 0"/>
<feBlend mode="normal" in2="shape" result="effect2_innerShadow_245_825"/>
</filter>
<linearGradient id="paint0_linear_245_825" x1="936" y1="61.5476" x2="977.113" y2="879.139" gradientUnits="userSpaceOnUse">
<stop stop-color="#3AB99A"/>
<stop offset="1" stop-color="#1B9E7F"/>
</linearGradient>
<clipPath id="clip0_245_825">
<rect width="1920" height="880" fill="white"/>
</clipPath>
</defs>
</svg>
