<svg width="64" height="64" viewBox="0 0 64 64" fill="none" xmlns="http://www.w3.org/2000/svg">
<path fill-rule="evenodd" clip-rule="evenodd" d="M30 25H36C39.3137 25 42 27.6863 42 31V37C42 40.3137 39.3137 43 36 43H30C26.6863 43 24 40.3137 24 37V31C24 27.6863 26.6863 25 30 25ZM30 29C28.8954 29 28 29.8954 28 31V37C28 38.1046 28.8954 39 30 39H36C37.1046 39 38 38.1046 38 37V31C38 29.8954 37.1046 29 36 29H30Z" fill="url(#paint0_linear_609_3058)"/>
<path d="M44.4736 59C44.4736 59.5523 44.9213 60 45.4736 60C46.0259 60 46.4736 59.5523 46.4736 59V56.9091C46.4736 56.3568 46.0259 55.9091 45.4736 55.9091C44.9213 55.9091 44.4736 56.3568 44.4736 56.9091V59Z" fill="url(#paint1_linear_609_3058)"/>
<path d="M44.4736 49.5909C44.4736 50.1432 44.9213 50.5909 45.4736 50.5909C46.0259 50.5909 46.4736 50.1432 46.4736 49.5909V48.4473H47.5909C48.1432 48.4473 48.5909 47.9996 48.5909 47.4473C48.5909 46.895 48.1432 46.4473 47.5909 46.4473H46.4736V45.4091C46.4736 44.8568 46.0259 44.4091 45.4736 44.4091C44.9213 44.4091 44.4736 44.8568 44.4736 45.4091V46.4473H43.4091C42.8568 46.4473 42.4091 46.895 42.4091 47.4473C42.4091 47.9996 42.8568 48.4473 43.4091 48.4473H44.4736V49.5909Z" fill="url(#paint2_linear_609_3058)"/>
<path d="M44.4736 38.0909C44.4736 38.6432 44.9213 39.0909 45.4736 39.0909C46.0259 39.0909 46.4736 38.6432 46.4736 38.0909V33.9091C46.4736 33.3568 46.0259 32.9091 45.4736 32.9091C44.9213 32.9091 44.4736 33.3568 44.4736 33.9091V38.0909Z" fill="url(#paint3_linear_609_3058)"/>
<path d="M44.4736 26.5909C44.4736 27.1432 44.9213 27.5909 45.4736 27.5909C46.0259 27.5909 46.4736 27.1432 46.4736 26.5909V22.4091C46.4736 21.8568 46.0259 21.4091 45.4736 21.4091C44.9213 21.4091 44.4736 21.8568 44.4736 22.4091V26.5909Z" fill="url(#paint4_linear_609_3058)"/>
<path d="M44.4736 15.0909C44.4736 15.6432 44.9213 16.0909 45.4736 16.0909C46.0259 16.0909 46.4736 15.6432 46.4736 15.0909V13C46.4736 12.4477 46.0259 12 45.4736 12C44.9213 12 44.4736 12.4477 44.4736 13V15.0909Z" fill="url(#paint5_linear_609_3058)"/>
<path d="M11 46.4473C10.4477 46.4473 10 46.895 10 47.4473C10 47.9996 10.4477 48.4473 11 48.4473H13.0909C13.6432 48.4473 14.0909 47.9996 14.0909 47.4473C14.0909 46.895 13.6432 46.4473 13.0909 46.4473H11Z" fill="url(#paint6_linear_609_3058)"/>
<path d="M20.4091 46.4473C19.8568 46.4473 19.4091 46.895 19.4091 47.4473C19.4091 47.9996 19.8568 48.4473 20.4091 48.4473H24.5909C25.1432 48.4473 25.5909 47.9996 25.5909 47.4473C25.5909 46.895 25.1432 46.4473 24.5909 46.4473H20.4091Z" fill="url(#paint7_linear_609_3058)"/>
<path d="M31.9091 46.4473C31.3568 46.4473 30.9091 46.895 30.9091 47.4473C30.9091 47.9996 31.3568 48.4473 31.9091 48.4473H36.0909C36.6432 48.4473 37.0909 47.9996 37.0909 47.4473C37.0909 46.895 36.6432 46.4473 36.0909 46.4473H31.9091Z" fill="url(#paint8_linear_609_3058)"/>
<path d="M54.9091 46.4473C54.3568 46.4473 53.9091 46.895 53.9091 47.4473C53.9091 47.9996 54.3568 48.4473 54.9091 48.4473H57C57.5523 48.4473 58 47.9996 58 47.4473C58 46.895 57.5523 46.4473 57 46.4473H54.9091Z" fill="url(#paint9_linear_609_3058)"/>
<path fill-rule="evenodd" clip-rule="evenodd" d="M10.8563 8.43116C10.15 7.80696 9.06627 7.86767 8.43566 8.56677C7.80504 9.26586 7.86638 10.3386 8.57265 10.9628L11.445 13.5014C12.3458 14.2975 12.3458 15.7026 11.445 16.4986L8.5726 19.0372C7.86632 19.6614 7.80497 20.7341 8.43558 21.4332C9.06619 22.1323 10.15 22.193 10.8562 21.5689L16.1405 16.8988C17.2857 15.8867 17.2857 14.1134 16.1405 13.1013L10.8563 8.43116ZM19.8569 8.43116C19.1507 7.80696 18.0669 7.86767 17.4363 8.56677C16.8057 9.26586 16.867 10.3386 17.5733 10.9628L20.4457 13.5014C21.3464 14.2975 21.3464 15.7026 20.4456 16.4986L17.5732 19.0372C16.8669 19.6614 16.8056 20.7341 17.4362 21.4332C18.0668 22.1323 19.1506 22.193 19.8569 21.5689L25.1411 16.8988C26.2863 15.8867 26.2863 14.1134 25.1411 13.1013L19.8569 8.43116Z" fill="url(#paint10_linear_609_3058)"/>
<defs>
<linearGradient id="paint0_linear_609_3058" x1="33.4" y1="15.3571" x2="38.2468" y2="59.5341" gradientUnits="userSpaceOnUse">
<stop stop-color="#3AB99A"/>
<stop offset="1" stop-color="#1B9E7F"/>
</linearGradient>
<linearGradient id="paint1_linear_609_3058" x1="33.4" y1="15.3571" x2="38.2468" y2="59.5341" gradientUnits="userSpaceOnUse">
<stop stop-color="#3AB99A"/>
<stop offset="1" stop-color="#1B9E7F"/>
</linearGradient>
<linearGradient id="paint2_linear_609_3058" x1="33.4" y1="15.3571" x2="38.2468" y2="59.5341" gradientUnits="userSpaceOnUse">
<stop stop-color="#3AB99A"/>
<stop offset="1" stop-color="#1B9E7F"/>
</linearGradient>
<linearGradient id="paint3_linear_609_3058" x1="33.4" y1="15.3571" x2="38.2468" y2="59.5341" gradientUnits="userSpaceOnUse">
<stop stop-color="#3AB99A"/>
<stop offset="1" stop-color="#1B9E7F"/>
</linearGradient>
<linearGradient id="paint4_linear_609_3058" x1="33.4" y1="15.3571" x2="38.2468" y2="59.5341" gradientUnits="userSpaceOnUse">
<stop stop-color="#3AB99A"/>
<stop offset="1" stop-color="#1B9E7F"/>
</linearGradient>
<linearGradient id="paint5_linear_609_3058" x1="33.4" y1="15.3571" x2="38.2468" y2="59.5341" gradientUnits="userSpaceOnUse">
<stop stop-color="#3AB99A"/>
<stop offset="1" stop-color="#1B9E7F"/>
</linearGradient>
<linearGradient id="paint6_linear_609_3058" x1="33.4" y1="15.3571" x2="38.2468" y2="59.5341" gradientUnits="userSpaceOnUse">
<stop stop-color="#3AB99A"/>
<stop offset="1" stop-color="#1B9E7F"/>
</linearGradient>
<linearGradient id="paint7_linear_609_3058" x1="33.4" y1="15.3571" x2="38.2468" y2="59.5341" gradientUnits="userSpaceOnUse">
<stop stop-color="#3AB99A"/>
<stop offset="1" stop-color="#1B9E7F"/>
</linearGradient>
<linearGradient id="paint8_linear_609_3058" x1="33.4" y1="15.3571" x2="38.2468" y2="59.5341" gradientUnits="userSpaceOnUse">
<stop stop-color="#3AB99A"/>
<stop offset="1" stop-color="#1B9E7F"/>
</linearGradient>
<linearGradient id="paint9_linear_609_3058" x1="33.4" y1="15.3571" x2="38.2468" y2="59.5341" gradientUnits="userSpaceOnUse">
<stop stop-color="#3AB99A"/>
<stop offset="1" stop-color="#1B9E7F"/>
</linearGradient>
<linearGradient id="paint10_linear_609_3058" x1="16.775" y1="8.97917" x2="17.8797" y2="21.9249" gradientUnits="userSpaceOnUse">
<stop stop-color="#3AB99A"/>
<stop offset="1" stop-color="#1B9E7F"/>
</linearGradient>
</defs>
</svg>
