<svg width="64" height="64" viewBox="0 0 64 64" fill="none" xmlns="http://www.w3.org/2000/svg">
<path fill-rule="evenodd" clip-rule="evenodd" d="M32 7.5C32.8284 7.5 33.5 8.17157 33.5 9V10.7692C33.5 11.5977 32.8284 12.2692 32 12.2692C31.1716 12.2692 30.5 11.5977 30.5 10.7692V9C30.5 8.17157 31.1716 7.5 32 7.5ZM32 17.2308C32.8284 17.2308 33.5 17.9023 33.5 18.7308V22.2692C33.5 23.0977 32.8284 23.7692 32 23.7692C31.1716 23.7692 30.5 23.0977 30.5 22.2692V18.7308C30.5 17.9023 31.1716 17.2308 32 17.2308ZM32 28.7308C32.8284 28.7308 33.5 29.4023 33.5 30.2308V33.7692C33.5 34.5977 32.8284 35.2692 32 35.2692C31.1716 35.2692 30.5 34.5977 30.5 33.7692V30.2308C30.5 29.4023 31.1716 28.7308 32 28.7308ZM32 40.2308C32.8284 40.2308 33.5 40.9023 33.5 41.7308V45.2692C33.5 46.0977 32.8284 46.7692 32 46.7692C31.1716 46.7692 30.5 46.0977 30.5 45.2692V41.7308C30.5 40.9023 31.1716 40.2308 32 40.2308ZM32 51.7308C32.8284 51.7308 33.5 52.4023 33.5 53.2308V55C33.5 55.8284 32.8284 56.5 32 56.5C31.1716 56.5 30.5 55.8284 30.5 55V53.2308C30.5 52.4023 31.1716 51.7308 32 51.7308Z" fill="url(#paint0_linear_703_2950)"/>
<path fill-rule="evenodd" clip-rule="evenodd" d="M56.5 32C56.5 32.8284 55.8284 33.5 55 33.5H53.2308C52.4023 33.5 51.7308 32.8284 51.7308 32C51.7308 31.1716 52.4023 30.5 53.2308 30.5H55C55.8284 30.5 56.5 31.1716 56.5 32ZM49.7692 32C49.7692 32.8284 49.0977 33.5 48.2692 33.5H44.7308C43.9023 33.5 43.2308 32.8284 43.2308 32C43.2308 31.1716 43.9023 30.5 44.7308 30.5H48.2692C49.0977 30.5 49.7692 31.1716 49.7692 32ZM20.7692 32C20.7692 32.8284 20.0977 33.5 19.2692 33.5H15.7308C14.9023 33.5 14.2308 32.8284 14.2308 32C14.2308 31.1716 14.9023 30.5 15.7308 30.5H19.2692C20.0977 30.5 20.7692 31.1716 20.7692 32ZM12.2692 32C12.2692 32.8284 11.5977 33.5 10.7692 33.5H9C8.17157 33.5 7.5 32.8284 7.5 32C7.5 31.1716 8.17157 30.5 9 30.5H10.7692C11.5977 30.5 12.2692 31.1716 12.2692 32Z" fill="url(#paint1_linear_703_2950)"/>
<path d="M44 18C43.941 23.1852 42.2857 32 32 32C21.7143 32 20 38.7407 20 46" stroke="url(#paint2_linear_703_2950)" stroke-width="4"/>
<circle cx="44" cy="18" r="6" fill="url(#paint3_linear_703_2950)"/>
<circle cx="20" cy="46" r="6" fill="url(#paint4_linear_703_2950)"/>
<path fill-rule="evenodd" clip-rule="evenodd" d="M10.8563 8.43116C10.15 7.80696 9.06627 7.86767 8.43566 8.56677C7.80504 9.26586 7.86638 10.3386 8.57265 10.9628L11.445 13.5014C12.3458 14.2975 12.3458 15.7026 11.445 16.4986L8.5726 19.0372C7.86632 19.6614 7.80497 20.7341 8.43558 21.4332C9.06619 22.1323 10.15 22.193 10.8562 21.5689L16.1405 16.8988C17.2857 15.8867 17.2857 14.1134 16.1405 13.1013L10.8563 8.43116ZM19.8569 8.43116C19.1507 7.80696 18.0669 7.86767 17.4363 8.56677C16.8057 9.26586 16.867 10.3386 17.5733 10.9628L20.4457 13.5014C21.3464 14.2975 21.3464 15.7026 20.4456 16.4986L17.5732 19.0372C16.8669 19.6614 16.8056 20.7341 17.4362 21.4332C18.0668 22.1323 19.1506 22.193 19.8569 21.5689L25.1411 16.8988C26.2863 15.8867 26.2863 14.1134 25.1411 13.1013L19.8569 8.43116Z" fill="url(#paint5_linear_703_2950)"/>
<defs>
<linearGradient id="paint0_linear_703_2950" x1="31.9875" y1="11.3222" x2="40.1756" y2="12.8934" gradientUnits="userSpaceOnUse">
<stop stop-color="#3AB99A"/>
<stop offset="1" stop-color="#1B9E7F"/>
</linearGradient>
<linearGradient id="paint1_linear_703_2950" x1="51.7827" y1="32.4875" x2="50.1641" y2="40.6564" gradientUnits="userSpaceOnUse">
<stop stop-color="#3AB99A"/>
<stop offset="1" stop-color="#1B9E7F"/>
</linearGradient>
<linearGradient id="paint2_linear_703_2950" x1="31.7" y1="19.9583" x2="34.9844" y2="45.618" gradientUnits="userSpaceOnUse">
<stop stop-color="#3AB99A"/>
<stop offset="1" stop-color="#1B9E7F"/>
</linearGradient>
<linearGradient id="paint3_linear_703_2950" x1="43.85" y1="12.8393" x2="45.0617" y2="23.8835" gradientUnits="userSpaceOnUse">
<stop stop-color="#3AB99A"/>
<stop offset="1" stop-color="#1B9E7F"/>
</linearGradient>
<linearGradient id="paint4_linear_703_2950" x1="19.85" y1="40.8393" x2="21.0617" y2="51.8835" gradientUnits="userSpaceOnUse">
<stop stop-color="#3AB99A"/>
<stop offset="1" stop-color="#1B9E7F"/>
</linearGradient>
<linearGradient id="paint5_linear_703_2950" x1="16.775" y1="8.97917" x2="17.8797" y2="21.9249" gradientUnits="userSpaceOnUse">
<stop stop-color="#3AB99A"/>
<stop offset="1" stop-color="#1B9E7F"/>
</linearGradient>
</defs>
</svg>
