<svg width="64" height="64" viewBox="0 0 64 64" fill="none" xmlns="http://www.w3.org/2000/svg">
<path fill-rule="evenodd" clip-rule="evenodd" d="M32 8C32.5523 8 33 8.44772 33 9V11.0909C33 11.6432 32.5523 12.0909 32 12.0909C31.4477 12.0909 31 11.6432 31 11.0909V9C31 8.44772 31.4477 8 32 8ZM32 17.4091C32.5523 17.4091 33 17.8568 33 18.4091V22.5909C33 23.1432 32.5523 23.5909 32 23.5909C31.4477 23.5909 31 23.1432 31 22.5909V18.4091C31 17.8568 31.4477 17.4091 32 17.4091ZM32 28.9091C32.5523 28.9091 33 29.3568 33 29.9091V34.0909C33 34.6432 32.5523 35.0909 32 35.0909C31.4477 35.0909 31 34.6432 31 34.0909V29.9091C31 29.3568 31.4477 28.9091 32 28.9091ZM32 40.4091C32.5523 40.4091 33 40.8568 33 41.4091V45.5909C33 46.1432 32.5523 46.5909 32 46.5909C31.4477 46.5909 31 46.1432 31 45.5909V41.4091C31 40.8568 31.4477 40.4091 32 40.4091ZM32 51.9091C32.5523 51.9091 33 52.3568 33 52.9091V55C33 55.5523 32.5523 56 32 56C31.4477 56 31 55.5523 31 55V52.9091C31 52.3568 31.4477 51.9091 32 51.9091Z" fill="url(#paint0_linear_609_3043)"/>
<path fill-rule="evenodd" clip-rule="evenodd" d="M56 32C56 32.5523 55.5523 33 55 33H52.9091C52.3568 33 51.9091 32.5523 51.9091 32C51.9091 31.4477 52.3568 31 52.9091 31H55C55.5523 31 56 31.4477 56 32ZM46.5909 32C46.5909 32.5523 46.1432 33 45.5909 33H41.4091C40.8568 33 40.4091 32.5523 40.4091 32C40.4091 31.4477 40.8568 31 41.4091 31H45.5909C46.1432 31 46.5909 31.4477 46.5909 32ZM35.0909 32C35.0909 32.5523 34.6432 33 34.0909 33H29.9091C29.3568 33 28.9091 32.5523 28.9091 32C28.9091 31.4477 29.3568 31 29.9091 31H34.0909C34.6432 31 35.0909 31.4477 35.0909 32ZM23.5909 32C23.5909 32.5523 23.1432 33 22.5909 33H18.4091C17.8568 33 17.4091 32.5523 17.4091 32C17.4091 31.4477 17.8568 31 18.4091 31H22.5909C23.1432 31 23.5909 31.4477 23.5909 32ZM12.0909 32C12.0909 32.5523 11.6432 33 11.0909 33H9C8.44772 33 8 32.5523 8 32C8 31.4477 8.44772 31 9 31H11.0909C11.6432 31 12.0909 31.4477 12.0909 32Z" fill="url(#paint1_linear_609_3043)"/>
<path fill-rule="evenodd" clip-rule="evenodd" d="M29 23H35C38.3137 23 41 25.6863 41 29V35C41 38.3137 38.3137 41 35 41H29C25.6863 41 23 38.3137 23 35V29C23 25.6863 25.6863 23 29 23ZM29 27C27.8954 27 27 27.8954 27 29V35C27 36.1046 27.8954 37 29 37H35C36.1046 37 37 36.1046 37 35V29C37 27.8954 36.1046 27 35 27H29Z" fill="url(#paint2_linear_609_3043)"/>
<path fill-rule="evenodd" clip-rule="evenodd" d="M10.8563 8.43116C10.15 7.80696 9.06627 7.86767 8.43566 8.56677C7.80504 9.26586 7.86638 10.3386 8.57265 10.9628L11.445 13.5014C12.3458 14.2975 12.3458 15.7026 11.445 16.4986L8.5726 19.0372C7.86632 19.6614 7.80497 20.7341 8.43558 21.4332C9.06619 22.1323 10.15 22.193 10.8562 21.5689L16.1405 16.8988C17.2857 15.8867 17.2857 14.1134 16.1405 13.1013L10.8563 8.43116ZM19.8569 8.43116C19.1507 7.80696 18.0669 7.86767 17.4363 8.56677C16.8057 9.26586 16.867 10.3386 17.5733 10.9628L20.4457 13.5014C21.3464 14.2975 21.3464 15.7026 20.4456 16.4986L17.5732 19.0372C16.8669 19.6614 16.8056 20.7341 17.4362 21.4332C18.0668 22.1323 19.1506 22.193 19.8569 21.5689L25.1411 16.8988C26.2863 15.8867 26.2863 14.1134 25.1411 13.1013L19.8569 8.43116Z" fill="url(#paint3_linear_609_3043)"/>
<defs>
<linearGradient id="paint0_linear_609_3043" x1="31.4" y1="11.3571" x2="36.2468" y2="55.5341" gradientUnits="userSpaceOnUse">
<stop stop-color="#3AB99A"/>
<stop offset="1" stop-color="#1B9E7F"/>
</linearGradient>
<linearGradient id="paint1_linear_609_3043" x1="31.4" y1="11.3571" x2="36.2468" y2="55.5341" gradientUnits="userSpaceOnUse">
<stop stop-color="#3AB99A"/>
<stop offset="1" stop-color="#1B9E7F"/>
</linearGradient>
<linearGradient id="paint2_linear_609_3043" x1="31.4" y1="11.3571" x2="36.2468" y2="55.5341" gradientUnits="userSpaceOnUse">
<stop stop-color="#3AB99A"/>
<stop offset="1" stop-color="#1B9E7F"/>
</linearGradient>
<linearGradient id="paint3_linear_609_3043" x1="16.775" y1="8.97917" x2="17.8797" y2="21.9249" gradientUnits="userSpaceOnUse">
<stop stop-color="#3AB99A"/>
<stop offset="1" stop-color="#1B9E7F"/>
</linearGradient>
</defs>
</svg>
