<svg width="64" height="64" viewBox="0 0 64 64" fill="none" xmlns="http://www.w3.org/2000/svg">
<path fill-rule="evenodd" clip-rule="evenodd" d="M2 20C0.895431 20 0 19.1046 0 18V10C0 8.89543 0.895431 8 2 8H14C15.1046 8 16 8.89543 16 10V10C16 11.1046 15.1046 12 14 12H6C4.89543 12 4 12.8954 4 14V18C4 19.1046 3.10457 20 2 20V20ZM62 20C63.1046 20 64 19.1046 64 18V10C64 8.89543 63.1046 8 62 8H50C48.8954 8 48 8.89543 48 10V10C48 11.1046 48.8954 12 50 12H58C59.1046 12 60 12.8954 60 14V18C60 19.1046 60.8954 20 62 20V20ZM64 46C64 44.8954 63.1046 44 62 44V44C60.8954 44 60 44.8954 60 46V50C60 51.1046 59.1046 52 58 52H50C48.8954 52 48 52.8954 48 54V54C48 55.1046 48.8954 56 50 56H62C63.1046 56 64 55.1046 64 54V46ZM14 56C15.1046 56 16 55.1046 16 54V54C16 52.8954 15.1046 52 14 52H6C4.89543 52 4 51.1046 4 50V46C4 44.8954 3.10457 44 2 44V44C0.895431 44 0 44.8954 0 46V54C0 55.1046 0.895431 56 2 56H14ZM30 35C30 34.4477 29.5523 34 29 34H28C27.4477 34 27 33.5523 27 33V31C27 30.4477 27.4477 30 28 30H29C29.5523 30 30 29.5523 30 29V28C30 27.4477 30.4477 27 31 27H33C33.5523 27 34 27.4477 34 28V29C34 29.5523 34.4477 30 35 30H36C36.5523 30 37 30.4477 37 31V33C37 33.5523 36.5523 34 36 34H35C34.4477 34 34 34.4477 34 35V36C34 36.5523 33.5523 37 33 37H31C30.4477 37 30 36.5523 30 36V35Z" fill="url(#paint0_linear_1112_3406)"/>
<defs>
<linearGradient id="paint0_linear_1112_3406" x1="31.2" y1="11.3571" x2="34.8541" y2="55.7651" gradientUnits="userSpaceOnUse">
<stop stop-color="#3AB99A"/>
<stop offset="1" stop-color="#1B9E7F"/>
</linearGradient>
</defs>
</svg>
