<svg width="64" height="64" viewBox="0 0 64 64" fill="none" xmlns="http://www.w3.org/2000/svg">
<path fill-rule="evenodd" clip-rule="evenodd" d="M32 17.4092C32.5523 17.4092 33 17.8569 33 18.4092V22.591C33 23.1433 32.5523 23.591 32 23.591C31.4477 23.591 31 23.1433 31 22.591V18.4092C31 17.8569 31.4477 17.4092 32 17.4092ZM32 28.9092C32.5523 28.9092 33 29.3569 33 29.9092V34.091C33 34.6433 32.5523 35.091 32 35.091C31.4477 35.091 31 34.6433 31 34.091V29.9092C31 29.3569 31.4477 28.9092 32 28.9092ZM32 40.4092C32.5523 40.4092 33 40.8569 33 41.4092V45.591C33 46.1433 32.5523 46.591 32 46.591C31.4477 46.591 31 46.1433 31 45.591V41.4092C31 40.8569 31.4477 40.4092 32 40.4092ZM32 51.9092C32.5523 51.9092 33 52.3569 33 52.9092V55.0001C33 55.5524 32.5523 56.0001 32 56.0001C31.4477 56.0001 31 55.5524 31 55.0001V52.9092C31 52.3569 31.4477 51.9092 32 51.9092Z" fill="url(#paint0_linear_614_3227)"/>
<path fill-rule="evenodd" clip-rule="evenodd" d="M56 32.0001C56 32.5524 55.5523 33.0001 55 33.0001H52.9091C52.3568 33.0001 51.9091 32.5524 51.9091 32.0001C51.9091 31.4478 52.3568 31.0001 52.9091 31.0001H55C55.5523 31.0001 56 31.4478 56 32.0001ZM46.5909 32.0001C46.5909 32.5524 46.1432 33.0001 45.5909 33.0001H41.4091C40.8568 33.0001 40.4091 32.5524 40.4091 32.0001C40.4091 31.4478 40.8568 31.0001 41.4091 31.0001H45.5909C46.1432 31.0001 46.5909 31.4478 46.5909 32.0001ZM35.0909 32.0001C35.0909 32.5524 34.6432 33.0001 34.0909 33.0001H29.9091C29.3568 33.0001 28.9091 32.5524 28.9091 32.0001C28.9091 31.4478 29.3568 31.0001 29.9091 31.0001H34.0909C34.6432 31.0001 35.0909 31.4478 35.0909 32.0001ZM23.5909 32.0001C23.5909 32.5524 23.1432 33.0001 22.5909 33.0001H18.4091C17.8568 33.0001 17.4091 32.5524 17.4091 32.0001C17.4091 31.4478 17.8568 31.0001 18.4091 31.0001H22.5909C23.1432 31.0001 23.5909 31.4478 23.5909 32.0001ZM12.0909 32.0001C12.0909 32.5524 11.6432 33.0001 11.0909 33.0001H9C8.44772 33.0001 8 32.5524 8 32.0001C8 31.4478 8.44772 31.0001 9 31.0001H11.0909C11.6432 31.0001 12.0909 31.4478 12.0909 32.0001Z" fill="url(#paint1_linear_614_3227)"/>
<path fill-rule="evenodd" clip-rule="evenodd" d="M29 23.0001H35C38.3137 23.0001 41 25.6864 41 29.0001V35.0001C41 38.3138 38.3137 41.0001 35 41.0001H29C25.6863 41.0001 23 38.3138 23 35.0001V29.0001C23 25.6864 25.6863 23.0001 29 23.0001ZM29 27.0001C27.8954 27.0001 27 27.8955 27 29.0001V35.0001C27 36.1047 27.8954 37.0001 29 37.0001H35C36.1046 37.0001 37 36.1047 37 35.0001V29.0001C37 27.8955 36.1046 27.0001 35 27.0001H29Z" fill="url(#paint2_linear_614_3227)"/>
<path fill-rule="evenodd" clip-rule="evenodd" d="M23.9519 6.46992L19.4221 9.08516C18.9951 9.33174 18.7723 9.79629 18.8132 10.2572L18.7148 10.314L22.2686 16.4694L22.3668 16.4127C22.7455 16.6789 23.2595 16.7183 23.6867 16.4717L28.2165 13.8564C28.5503 14.1417 29.0406 14.2012 29.4426 13.9691C29.9485 13.677 30.1245 13.0328 29.8396 12.5246L25.9167 5.72987C25.619 5.22911 24.9732 5.05939 24.4672 5.3515C24.0652 5.58363 23.8715 6.03809 23.9519 6.46992ZM27.4801 5.59476L30.7383 11.2381C31.5511 10.1356 31.6846 8.61231 30.9559 7.35022C30.2272 6.08813 28.8413 5.44207 27.4801 5.59476ZM21.0376 17.1801L17.4837 11.0247L14.8531 12.5435C14.4258 12.7902 14.2031 13.255 14.2441 13.716L14.1458 13.7727L16.9889 18.6971L17.0873 18.6402C17.466 18.9062 17.9798 18.9456 18.4069 18.699L21.0376 17.1801ZM15.7578 19.4078L12.9148 14.4835L10.2841 16.0023C9.85703 16.2489 9.63425 16.7134 9.67519 17.1743L9.57683 17.2311L11.7091 20.9244L11.8073 20.8677C12.186 21.1338 12.7 21.1733 13.1272 20.9266L15.7578 19.4078ZM10.478 21.6351L8.34574 17.9419L4.65247 20.0742L4.24852 19.3746C4.0791 19.0811 3.70386 18.9806 3.41041 19.15L3.24201 19.2472C2.94856 19.4166 2.84801 19.7919 3.01744 20.0853L4.03321 21.8447L4.03492 21.8477L4.94014 23.4156L4.94186 23.4185L5.95773 25.1781C6.12715 25.4715 6.50239 25.5721 6.79584 25.4026L6.96424 25.3054C7.25769 25.136 7.35824 24.7607 7.18881 24.4673L6.78477 23.7675L10.478 21.6351Z" fill="url(#paint3_linear_614_3227)"/>
<defs>
<linearGradient id="paint0_linear_614_3227" x1="31.4" y1="20.1082" x2="34.5461" y2="55.7755" gradientUnits="userSpaceOnUse">
<stop stop-color="#3AB99A"/>
<stop offset="1" stop-color="#1B9E7F"/>
</linearGradient>
<linearGradient id="paint1_linear_614_3227" x1="31.4" y1="20.1082" x2="34.5461" y2="55.7755" gradientUnits="userSpaceOnUse">
<stop stop-color="#3AB99A"/>
<stop offset="1" stop-color="#1B9E7F"/>
</linearGradient>
<linearGradient id="paint2_linear_614_3227" x1="31.4" y1="20.1082" x2="34.5461" y2="55.7755" gradientUnits="userSpaceOnUse">
<stop stop-color="#3AB99A"/>
<stop offset="1" stop-color="#1B9E7F"/>
</linearGradient>
<linearGradient id="paint3_linear_614_3227" x1="29.0425" y1="8.31137" x2="11.2105" y2="28.5541" gradientUnits="userSpaceOnUse">
<stop stop-color="#3AB99A"/>
<stop offset="1" stop-color="#1B9E7F"/>
</linearGradient>
</defs>
</svg>
