<svg width="64" height="64" viewBox="0 0 64 64" fill="none" xmlns="http://www.w3.org/2000/svg">
<path fill-rule="evenodd" clip-rule="evenodd" d="M14 38H20C23.3137 38 26 40.6863 26 44V50C26 53.3137 23.3137 56 20 56H14C10.6863 56 8 53.3137 8 50V44C8 40.6863 10.6863 38 14 38ZM14 42C12.8954 42 12 42.8954 12 44V50C12 51.1046 12.8954 52 14 52H20C21.1046 52 22 51.1046 22 50V44C22 42.8954 21.1046 42 20 42H14Z" fill="url(#paint0_linear_614_3236)"/>
<path fill-rule="evenodd" clip-rule="evenodd" d="M44 8H50C53.3137 8 56 10.6863 56 14V20C56 23.3137 53.3137 26 50 26H44C40.6863 26 38 23.3137 38 20V14C38 10.6863 40.6863 8 44 8ZM44 12C42.8954 12 42 12.8954 42 14V20C42 21.1046 42.8954 22 44 22H50C51.1046 22 52 21.1046 52 20V14C52 12.8954 51.1046 12 50 12H44Z" fill="url(#paint1_linear_614_3236)"/>
<path fill-rule="evenodd" clip-rule="evenodd" d="M32 17.2308C32.8284 17.2308 33.5 17.9023 33.5 18.7308V22.2692C33.5 23.0977 32.8284 23.7692 32 23.7692C31.1716 23.7692 30.5 23.0977 30.5 22.2692V18.7308C30.5 17.9023 31.1716 17.2308 32 17.2308ZM32 28.7308C32.8284 28.7308 33.5 29.4023 33.5 30.2308V33.7692C33.5 34.5977 32.8284 35.2692 32 35.2692C31.1716 35.2692 30.5 34.5977 30.5 33.7692V30.2308C30.5 29.4023 31.1716 28.7308 32 28.7308ZM32 40.2308C32.8284 40.2308 33.5 40.9023 33.5 41.7308V45.2692C33.5 46.0977 32.8284 46.7692 32 46.7692C31.1716 46.7692 30.5 46.0977 30.5 45.2692V41.7308C30.5 40.9023 31.1716 40.2308 32 40.2308ZM32 51.7308C32.8284 51.7308 33.5 52.4023 33.5 53.2308V55C33.5 55.8284 32.8284 56.5 32 56.5C31.1716 56.5 30.5 55.8284 30.5 55V53.2308C30.5 52.4023 31.1716 51.7308 32 51.7308Z" fill="url(#paint2_linear_614_3236)"/>
<path fill-rule="evenodd" clip-rule="evenodd" d="M56.5 32C56.5 32.8284 55.8284 33.5 55 33.5H53.2308C52.4023 33.5 51.7308 32.8284 51.7308 32C51.7308 31.1716 52.4023 30.5 53.2308 30.5H55C55.8284 30.5 56.5 31.1716 56.5 32ZM46.7692 32C46.7692 32.8284 46.0977 33.5 45.2692 33.5H41.7308C40.9023 33.5 40.2308 32.8284 40.2308 32C40.2308 31.1716 40.9023 30.5 41.7308 30.5H45.2692C46.0977 30.5 46.7692 31.1716 46.7692 32ZM35.2692 32C35.2692 32.8284 34.5977 33.5 33.7692 33.5H30.2308C29.4023 33.5 28.7308 32.8284 28.7308 32C28.7308 31.1716 29.4023 30.5 30.2308 30.5H33.7692C34.5977 30.5 35.2692 31.1716 35.2692 32ZM23.7692 32C23.7692 32.8284 23.0977 33.5 22.2692 33.5H18.7308C17.9023 33.5 17.2308 32.8284 17.2308 32C17.2308 31.1716 17.9023 30.5 18.7308 30.5H22.2692C23.0977 30.5 23.7692 31.1716 23.7692 32ZM12.2692 32C12.2692 32.8284 11.5977 33.5 10.7692 33.5H9C8.17157 33.5 7.5 32.8284 7.5 32C7.5 31.1716 8.17157 30.5 9 30.5H10.7692C11.5977 30.5 12.2692 31.1716 12.2692 32Z" fill="url(#paint3_linear_614_3236)"/>
<path fill-rule="evenodd" clip-rule="evenodd" d="M23.9519 6.46992L19.4221 9.08516C18.9951 9.33174 18.7723 9.79629 18.8132 10.2572L18.7148 10.314L22.2686 16.4694L22.3668 16.4127C22.7455 16.6789 23.2595 16.7183 23.6867 16.4717L28.2165 13.8564C28.5503 14.1417 29.0406 14.2012 29.4426 13.9691C29.9485 13.677 30.1245 13.0328 29.8396 12.5246L25.9167 5.72987C25.619 5.22911 24.9732 5.05939 24.4672 5.3515C24.0652 5.58363 23.8715 6.03809 23.9519 6.46992ZM27.4801 5.59476L30.7383 11.2381C31.5511 10.1356 31.6846 8.61231 30.9559 7.35022C30.2272 6.08813 28.8413 5.44207 27.4801 5.59476ZM21.0376 17.1801L17.4837 11.0247L14.8531 12.5435C14.4258 12.7902 14.2031 13.255 14.2441 13.716L14.1458 13.7727L16.9889 18.6971L17.0873 18.6402C17.466 18.9062 17.9798 18.9456 18.4069 18.699L21.0376 17.1801ZM15.7578 19.4078L12.9148 14.4835L10.2841 16.0023C9.85703 16.2489 9.63425 16.7134 9.67519 17.1743L9.57683 17.2311L11.7091 20.9244L11.8073 20.8677C12.186 21.1338 12.7 21.1733 13.1272 20.9266L15.7578 19.4078ZM10.478 21.6351L8.34574 17.9419L4.65247 20.0742L4.24852 19.3746C4.0791 19.0811 3.70386 18.9806 3.41041 19.15L3.24201 19.2472C2.94856 19.4166 2.84801 19.7919 3.01744 20.0853L4.03321 21.8447L4.03492 21.8477L4.94014 23.4156L4.94186 23.4185L5.95773 25.1781C6.12715 25.4715 6.50239 25.5721 6.79584 25.4026L6.96424 25.3054C7.25769 25.136 7.35824 24.7607 7.18881 24.4673L6.78477 23.7675L10.478 21.6351Z" fill="url(#paint4_linear_614_3236)"/>
<defs>
<linearGradient id="paint0_linear_614_3236" x1="31.3875" y1="11.3921" x2="36.236" y2="56.04" gradientUnits="userSpaceOnUse">
<stop stop-color="#3AB99A"/>
<stop offset="1" stop-color="#1B9E7F"/>
</linearGradient>
<linearGradient id="paint1_linear_614_3236" x1="31.3875" y1="11.3921" x2="36.236" y2="56.04" gradientUnits="userSpaceOnUse">
<stop stop-color="#3AB99A"/>
<stop offset="1" stop-color="#1B9E7F"/>
</linearGradient>
<linearGradient id="paint2_linear_614_3236" x1="31.3875" y1="11.3921" x2="36.236" y2="56.04" gradientUnits="userSpaceOnUse">
<stop stop-color="#3AB99A"/>
<stop offset="1" stop-color="#1B9E7F"/>
</linearGradient>
<linearGradient id="paint3_linear_614_3236" x1="31.3875" y1="11.3921" x2="36.236" y2="56.04" gradientUnits="userSpaceOnUse">
<stop stop-color="#3AB99A"/>
<stop offset="1" stop-color="#1B9E7F"/>
</linearGradient>
<linearGradient id="paint4_linear_614_3236" x1="29.0425" y1="8.31137" x2="11.2105" y2="28.5541" gradientUnits="userSpaceOnUse">
<stop stop-color="#3AB99A"/>
<stop offset="1" stop-color="#1B9E7F"/>
</linearGradient>
</defs>
</svg>
