<svg width="64" height="64" viewBox="0 0 64 64" fill="none" xmlns="http://www.w3.org/2000/svg">
<path fill-rule="evenodd" clip-rule="evenodd" d="M44.6211 15.8191L36.0186 20.7857C35.2075 21.254 34.7844 22.1362 34.8622 23.0115L34.6753 23.1193L41.4244 34.8092L41.6109 34.7015C42.3301 35.207 43.3062 35.282 44.1176 34.8135L52.7202 29.8468C53.3541 30.3887 54.2852 30.5016 55.0486 30.0608C56.0095 29.5061 56.3436 28.2827 55.8026 27.3177L48.3525 14.4136C47.7873 13.4626 46.5607 13.1403 45.5998 13.6951C44.8363 14.1359 44.4685 14.999 44.6211 15.8191ZM51.3216 14.157L57.5092 24.8743C59.0529 22.7805 59.3064 19.8877 57.9226 17.4908C56.5387 15.094 53.9067 13.8671 51.3216 14.157ZM39.0865 36.159L32.3373 24.4692L27.3414 27.3536C26.5301 27.822 26.107 28.7046 26.185 29.5802L25.9983 29.6879L31.3976 39.0398L31.5845 38.9319C32.3037 39.437 33.2794 39.5118 34.0905 39.0434L39.0865 36.159ZM29.0597 40.3896L23.6604 31.0378L18.6645 33.9221C17.8534 34.3904 17.4303 35.2727 17.508 36.148L17.3212 36.2558L21.3707 43.2698L21.5572 43.1621C22.2764 43.6675 23.2524 43.7425 24.0638 43.274L29.0597 40.3896ZM19.0327 44.6196L14.9833 37.6057L7.9693 41.6552L7.20216 40.3265C6.8804 39.7692 6.16779 39.5782 5.61049 39.9L5.29067 40.0846C4.73337 40.4064 4.54243 41.119 4.86418 41.6763L6.79325 45.0175L6.79649 45.0232L8.51562 48.0008L8.51888 48.0064L10.4481 51.348C10.7699 51.9053 11.4825 52.0962 12.0398 51.7745L12.3596 51.5898C12.9169 51.2681 13.1079 50.5554 12.7861 49.9981L12.0188 48.6691L19.0327 44.6196Z" fill="url(#paint0_linear_604_2755)"/>
<defs>
<linearGradient id="paint0_linear_604_2755" x1="54.2889" y1="19.3162" x2="20.4238" y2="57.7594" gradientUnits="userSpaceOnUse">
<stop stop-color="#3AB99A"/>
<stop offset="1" stop-color="#1B9E7F"/>
</linearGradient>
</defs>
</svg>
