<svg width="64" height="64" viewBox="0 0 64 64" fill="none" xmlns="http://www.w3.org/2000/svg">
<path fill-rule="evenodd" clip-rule="evenodd" d="M10.8563 8.43116C10.15 7.80696 9.06627 7.86767 8.43566 8.56677C7.80504 9.26586 7.86638 10.3386 8.57265 10.9628L11.445 13.5014C12.3458 14.2975 12.3458 15.7026 11.445 16.4986L8.5726 19.0372C7.86632 19.6614 7.80497 20.7341 8.43558 21.4332C9.06619 22.1323 10.15 22.193 10.8562 21.5689L16.1405 16.8988C17.2857 15.8867 17.2857 14.1134 16.1405 13.1013L10.8563 8.43116ZM19.8569 8.43116C19.1507 7.80696 18.0669 7.86767 17.4363 8.56677C16.8057 9.26586 16.867 10.3386 17.5733 10.9628L20.4457 13.5014C21.3464 14.2975 21.3464 15.7026 20.4456 16.4986L17.5732 19.0372C16.8669 19.6614 16.8056 20.7341 17.4362 21.4332C18.0668 22.1323 19.1506 22.193 19.8569 21.5689L25.1411 16.8988C26.2863 15.8867 26.2863 14.1134 25.1411 13.1013L19.8569 8.43116Z" fill="url(#paint0_linear_609_3064)"/>
<path fill-rule="evenodd" clip-rule="evenodd" d="M48.7938 25.4645C50.7465 27.4171 50.7465 30.5829 48.7938 32.5355L22.2773 59.052C20.3247 61.0047 17.1589 61.0047 15.2063 59.052C13.2536 57.0994 13.2536 53.9336 15.2063 51.981L41.7228 25.4645C43.6754 23.5118 46.8412 23.5118 48.7938 25.4645Z" fill="url(#paint1_linear_609_3064)"/>
<path fill-rule="evenodd" clip-rule="evenodd" d="M15.2062 25.4645C13.2535 27.4171 13.2535 30.5829 15.2062 32.5355L41.7227 59.052C43.6753 61.0047 46.8411 61.0047 48.7937 59.052C50.7464 57.0994 50.7464 53.9336 48.7937 51.981L22.2772 25.4645C20.3246 23.5118 17.1588 23.5118 15.2062 25.4645Z" fill="url(#paint2_linear_609_3064)"/>
<defs>
<linearGradient id="paint0_linear_609_3064" x1="28.6009" y1="11.673" x2="35.1487" y2="59.6958" gradientUnits="userSpaceOnUse">
<stop stop-color="#3AB99A"/>
<stop offset="1" stop-color="#1B9E7F"/>
</linearGradient>
<linearGradient id="paint1_linear_609_3064" x1="28.6009" y1="11.673" x2="35.1487" y2="59.6958" gradientUnits="userSpaceOnUse">
<stop stop-color="#3AB99A"/>
<stop offset="1" stop-color="#1B9E7F"/>
</linearGradient>
<linearGradient id="paint2_linear_609_3064" x1="28.6009" y1="11.673" x2="35.1487" y2="59.6958" gradientUnits="userSpaceOnUse">
<stop stop-color="#3AB99A"/>
<stop offset="1" stop-color="#1B9E7F"/>
</linearGradient>
</defs>
</svg>
