<svg width="64" height="64" viewBox="0 0 64 64" fill="none" xmlns="http://www.w3.org/2000/svg">
<path fill-rule="evenodd" clip-rule="evenodd" d="M12 12C12 9.23858 14.2386 7 17 7H47C49.7614 7 52 9.23858 52 12V52C52 54.7614 49.7614 57 47 57H17C14.2386 57 12 54.7614 12 52V12ZM23.4741 16.6195C23.9604 16.8814 24.1423 17.4878 23.8805 17.9741L21.0177 23.2907C20.3825 24.4703 18.7899 24.7041 17.8425 23.7567L16.2929 22.2071C15.9024 21.8166 15.9024 21.1834 16.2929 20.7929C16.6834 20.4024 17.3166 20.4024 17.7071 20.7929L19.2567 22.3425L22.1195 17.0259C22.3814 16.5396 22.9878 16.3577 23.4741 16.6195ZM23.8805 28.4741C24.1423 27.9878 23.9604 27.3814 23.4741 27.1195C22.9878 26.8577 22.3814 27.0396 22.1195 27.5259L19.2567 32.8425L17.7071 31.2929C17.3166 30.9024 16.6834 30.9024 16.2929 31.2929C15.9024 31.6834 15.9024 32.3166 16.2929 32.7071L17.8425 34.2567C18.7899 35.2041 20.3825 34.9703 21.0177 33.7907L23.8805 28.4741ZM25 20C25 19.4477 25.4477 19 26 19H47C47.5523 19 48 19.4477 48 20V22C48 22.5523 47.5523 23 47 23H26C25.4477 23 25 22.5523 25 22V20ZM26 30C25.4477 30 25 30.4477 25 31V33C25 33.5523 25.4477 34 26 34H47C47.5523 34 48 33.5523 48 33V31C48 30.4477 47.5523 30 47 30H26ZM25 41C25 40.4477 25.4477 40 26 40H47C47.5523 40 48 40.4477 48 41V43C48 43.5523 47.5523 44 47 44H26C25.4477 44 25 43.5523 25 43V41ZM19 39C17.8954 39 17 39.8954 17 41V43C17 44.1046 17.8954 45 19 45H21C22.1046 45 23 44.1046 23 43V41C23 39.8954 22.1046 39 21 39H19Z" fill="url(#paint0_linear_556_2685)"/>
<defs>
<linearGradient id="paint0_linear_556_2685" x1="31.5" y1="10.497" x2="37.769" y2="56.2088" gradientUnits="userSpaceOnUse">
<stop stop-color="#3AB99A"/>
<stop offset="1" stop-color="#1B9E7F"/>
</linearGradient>
</defs>
</svg>
