<svg width="64" height="64" viewBox="0 0 64 64" fill="none" xmlns="http://www.w3.org/2000/svg">
<path fill-rule="evenodd" clip-rule="evenodd" d="M10.5698 9.92735C13.6223 8.61218 17.3228 8.7938 20.8123 9.8587C24.2996 10.9229 27.4253 12.8248 29.2745 14.7455C29.7563 15.246 30 15.9857 30 16.8359V50.7421C30 51.4979 29.151 52.0329 28.4198 51.6367C22.9542 48.6749 18.7204 47.335 13.4208 47.1296C10.9701 47.0346 9 45.1658 9 42.874V12.7733C9 11.4495 9.59895 10.3457 10.5698 9.92735ZM30.177 53.5076C29.3469 53.869 28.3537 53.8756 27.4669 53.3951C22.2009 50.5415 18.2659 49.3189 13.3433 49.1281C9.98317 48.9978 7 46.3973 7 42.874V13.86C5.79957 14.7604 5 16.1944 5 17.86V48.9454C5 52.4636 8.53325 54.8309 11.949 53.988C17.8112 52.5414 22.8557 52.74 30.5 54.2597L30.177 53.5076ZM43.1877 9.8587C46.6772 8.7938 50.3777 8.61218 53.4302 9.92735C54.4011 10.3457 55 11.4495 55 12.7733V42.874C55 45.1658 53.0299 47.0346 50.5792 47.1296C45.2796 47.335 41.0458 48.6749 35.5802 51.6367C34.849 52.0329 34 51.4979 34 50.7421V16.8359C34 15.9857 34.2437 15.246 34.7255 14.7455C36.5747 12.8248 39.7004 10.9229 43.1877 9.8587ZM33 54.2597L33.4151 53.2932C34.3124 53.8527 35.4956 53.9573 36.5331 53.3951C41.7991 50.5415 45.7341 49.3189 50.6567 49.1281C54.0168 48.9978 57 46.3973 57 42.874V14.2886C57.9173 15.1851 58.5 16.4382 58.5 17.86V48.9454C58.5 52.4636 54.9667 54.8309 51.551 53.988C45.6888 52.5414 40.6443 52.74 33 54.2597Z" fill="url(#paint0_linear_556_2668)"/>
<defs>
<linearGradient id="paint0_linear_556_2668" x1="31.0812" y1="12.1655" x2="34.9606" y2="53.9617" gradientUnits="userSpaceOnUse">
<stop stop-color="#3AB99A"/>
<stop offset="1" stop-color="#1B9E7F"/>
</linearGradient>
</defs>
</svg>
