<svg width="64" height="64" viewBox="0 0 64 64" fill="none" xmlns="http://www.w3.org/2000/svg">
<path d="M34.2699 7.10166C35.002 7.16755 35.6984 6.73796 35.926 6.03899V6.03899C36.2139 5.15472 35.644 4.21945 34.7184 4.13027C33.8239 4.04409 32.9171 4 32 4C16.536 4 4 16.536 4 32C4 47.464 16.536 60 32 60C47.464 60 60 47.464 60 32C60 28.1467 59.2216 24.4752 57.8136 21.1342C57.472 20.3236 56.4895 20.0344 55.7336 20.484V20.484C55.0625 20.8832 54.812 21.7269 55.1105 22.4484C56.3281 25.3912 57 28.6172 57 32C57 45.8071 45.8071 57 32 57C18.1929 57 7 45.8071 7 32C7 18.1929 18.1929 7 32 7C32.7651 7 33.5223 7.03437 34.2699 7.10166Z" fill="url(#paint0_linear_803_3716)"/>
<path d="M47.5 31.134C48.1667 31.5189 48.1667 32.4811 47.5 32.866L25 45.8564C24.3333 46.2413 23.5 45.7602 23.5 44.9904L23.5 19.0096C23.5 18.2398 24.3333 17.7587 25 18.1436L47.5 31.134Z" fill="url(#paint1_linear_803_3716)"/>
<path d="M44.2072 7.26757C44.0472 7.31045 43.9522 7.47495 43.9951 7.63499L44.3574 8.98729C44.4003 9.14733 44.5648 9.2423 44.7249 9.19942L46.0772 8.83707C46.2372 8.79419 46.3322 8.62969 46.2893 8.46965L45.9269 7.11735C45.8841 6.95731 45.7196 6.86234 45.5595 6.90522L44.2072 7.26757Z" fill="url(#paint2_linear_803_3716)"/>
<path d="M50.153 7.43437C50.1959 7.59441 50.1009 7.75892 49.9409 7.8018L48.5886 8.16414C48.4285 8.20703 48.264 8.11205 48.2211 7.95201L47.8588 6.59972C47.8159 6.43968 47.9109 6.27518 48.0709 6.23229L49.4232 5.86995C49.5833 5.82706 49.7478 5.92204 49.7907 6.08208L50.153 7.43437Z" fill="url(#paint3_linear_803_3716)"/>
<path d="M52.0848 6.91674C52.1277 7.07678 52.2922 7.17175 52.4523 7.12887L53.8046 6.76652C53.9646 6.72364 54.0596 6.55914 54.0167 6.3991L53.6544 5.0468C53.6115 4.88676 53.447 4.79179 53.2869 4.83467L51.9346 5.19702C51.7746 5.2399 51.6796 5.4044 51.7225 5.56444L52.0848 6.91674Z" fill="url(#paint4_linear_803_3716)"/>
<path d="M43 8.5C43 8.22386 42.7761 8 42.5 8H40.5C40.2239 8 40 8.22386 40 8.5V18.5C40 18.7761 40.2239 19 40.5 19H53.5C53.7761 19 54 18.7761 54 18.5V11.5C54 11.2239 53.7761 11 53.5 11H43.5C43.2239 11 43 10.7761 43 10.5V8.5Z" fill="url(#paint5_linear_803_3716)"/>
<defs>
<linearGradient id="paint0_linear_803_3716" x1="31.3" y1="7.91667" x2="36.9546" y2="59.4564" gradientUnits="userSpaceOnUse">
<stop stop-color="#3AB99A"/>
<stop offset="1" stop-color="#1B9E7F"/>
</linearGradient>
<linearGradient id="paint1_linear_803_3716" x1="46.622" y1="31.575" x2="15.33" y2="35.0082" gradientUnits="userSpaceOnUse">
<stop stop-color="#3AB99A"/>
<stop offset="1" stop-color="#1B9E7F"/>
</linearGradient>
<linearGradient id="paint2_linear_803_3716" x1="48.6625" y1="6.21859" x2="49.1839" y2="8.00653" gradientUnits="userSpaceOnUse">
<stop stop-color="#3AB99A"/>
<stop offset="1" stop-color="#1B9E7F"/>
</linearGradient>
<linearGradient id="paint3_linear_803_3716" x1="48.6625" y1="6.21859" x2="49.1839" y2="8.00653" gradientUnits="userSpaceOnUse">
<stop stop-color="#3AB99A"/>
<stop offset="1" stop-color="#1B9E7F"/>
</linearGradient>
<linearGradient id="paint4_linear_803_3716" x1="48.6625" y1="6.21859" x2="49.1839" y2="8.00653" gradientUnits="userSpaceOnUse">
<stop stop-color="#3AB99A"/>
<stop offset="1" stop-color="#1B9E7F"/>
</linearGradient>
<linearGradient id="paint5_linear_803_3716" x1="46.825" y1="8.76935" x2="47.7017" y2="18.9395" gradientUnits="userSpaceOnUse">
<stop stop-color="#3AB99A"/>
<stop offset="1" stop-color="#1B9E7F"/>
</linearGradient>
</defs>
</svg>
