<svg width="64" height="64" viewBox="0 0 64 64" fill="none" xmlns="http://www.w3.org/2000/svg">
<rect x="9.625" y="5" width="0.75" height="2.625" rx="0.375" fill="url(#paint0_linear_719_4419)"/>
<rect x="9.625" y="19.625" width="0.75" height="2.625" rx="0.375" fill="url(#paint1_linear_719_4419)"/>
<rect x="13.9877" y="5.96826" width="0.75" height="2.625" rx="0.375" transform="rotate(30 13.9877 5.96826)" fill="url(#paint2_linear_719_4419)"/>
<rect x="6.67523" y="18.6338" width="0.75" height="2.625" rx="0.375" transform="rotate(30 6.67523 18.6338)" fill="url(#paint3_linear_719_4419)"/>
<rect x="18.625" y="13.25" width="0.75" height="2.625" rx="0.375" transform="rotate(90 18.625 13.25)" fill="url(#paint4_linear_719_4419)"/>
<rect x="4" y="13.25" width="0.75" height="2.625" rx="0.375" transform="rotate(90 4 13.25)" fill="url(#paint5_linear_719_4419)"/>
<rect x="2.71799" y="18.2617" width="0.75" height="2.625" rx="0.375" transform="rotate(-120 2.71799 18.2617)" fill="url(#paint6_linear_719_4419)"/>
<rect x="15.3836" y="10.9492" width="0.75" height="2.625" rx="0.375" transform="rotate(-120 15.3836 10.9492)" fill="url(#paint7_linear_719_4419)"/>
<rect x="2.34296" y="9.63672" width="0.75" height="2.625" rx="0.375" transform="rotate(-60 2.34296 9.63672)" fill="url(#paint8_linear_719_4419)"/>
<rect x="15.0086" y="16.9492" width="0.75" height="2.625" rx="0.375" transform="rotate(-60 15.0086 16.9492)" fill="url(#paint9_linear_719_4419)"/>
<rect x="5.3627" y="6.34277" width="0.75" height="2.625" rx="0.375" transform="rotate(-30 5.3627 6.34277)" fill="url(#paint10_linear_719_4419)"/>
<rect x="12.6752" y="19.0083" width="0.75" height="2.625" rx="0.375" transform="rotate(-30 12.6752 19.0083)" fill="url(#paint11_linear_719_4419)"/>
<rect x="8.5" y="3.125" width="3" height="1.875" fill="url(#paint12_linear_719_4419)"/>
<rect x="2.875" y="5.75" width="3" height="2.25" transform="rotate(-30 2.875 5.75)" fill="url(#paint13_linear_719_4419)"/>
<rect x="7.75" y="2" width="4.5" height="1.875" fill="url(#paint14_linear_719_4419)"/>
<path fill-rule="evenodd" clip-rule="evenodd" d="M10 20.75C13.935 20.75 17.125 17.56 17.125 13.625C17.125 9.68997 13.935 6.5 10 6.5C6.06497 6.5 2.875 9.68997 2.875 13.625C2.875 17.56 6.06497 20.75 10 20.75ZM10 22.625C14.9706 22.625 19 18.5956 19 13.625C19 8.65444 14.9706 4.625 10 4.625C5.02944 4.625 1 8.65444 1 13.625C1 18.5956 5.02944 22.625 10 22.625Z" fill="url(#paint15_linear_719_4419)"/>
<path d="M12.2387 9.43741C12.3834 9.28345 12.6369 9.42983 12.5759 9.63211L11.0981 14.5336L8.73279 13.168L12.2387 9.43741Z" fill="url(#paint16_linear_719_4419)"/>
<circle cx="10" cy="13.625" r="1.5" fill="url(#paint17_linear_719_4419)"/>
<path fill-rule="evenodd" clip-rule="evenodd" d="M48.7938 25.4645C50.7464 27.4171 50.7464 30.5829 48.7938 32.5355L22.2773 59.052C20.3247 61.0047 17.1589 61.0047 15.2062 59.052C13.2536 57.0994 13.2536 53.9336 15.2062 51.981L41.7227 25.4645C43.6754 23.5118 46.8412 23.5118 48.7938 25.4645Z" fill="url(#paint18_linear_719_4419)"/>
<path fill-rule="evenodd" clip-rule="evenodd" d="M15.2061 25.4645C13.2535 27.4171 13.2535 30.5829 15.2061 32.5355L41.7226 59.052C43.6753 61.0047 46.8411 61.0047 48.7937 59.052C50.7463 57.0994 50.7463 53.9336 48.7937 51.981L22.2772 25.4645C20.3246 23.5118 17.1588 23.5118 15.2061 25.4645Z" fill="url(#paint19_linear_719_4419)"/>
<defs>
<linearGradient id="paint0_linear_719_4419" x1="9.99062" y1="5.18359" x2="10.8089" y2="7.3144" gradientUnits="userSpaceOnUse">
<stop stop-color="#3AB99A"/>
<stop offset="1" stop-color="#1B9E7F"/>
</linearGradient>
<linearGradient id="paint1_linear_719_4419" x1="9.99062" y1="19.8086" x2="10.8089" y2="21.9394" gradientUnits="userSpaceOnUse">
<stop stop-color="#3AB99A"/>
<stop offset="1" stop-color="#1B9E7F"/>
</linearGradient>
<linearGradient id="paint2_linear_719_4419" x1="14.3534" y1="6.15186" x2="15.1716" y2="8.28266" gradientUnits="userSpaceOnUse">
<stop stop-color="#3AB99A"/>
<stop offset="1" stop-color="#1B9E7F"/>
</linearGradient>
<linearGradient id="paint3_linear_719_4419" x1="7.04086" y1="18.8174" x2="7.85909" y2="20.9482" gradientUnits="userSpaceOnUse">
<stop stop-color="#3AB99A"/>
<stop offset="1" stop-color="#1B9E7F"/>
</linearGradient>
<linearGradient id="paint4_linear_719_4419" x1="18.9906" y1="13.4336" x2="19.8089" y2="15.5644" gradientUnits="userSpaceOnUse">
<stop stop-color="#3AB99A"/>
<stop offset="1" stop-color="#1B9E7F"/>
</linearGradient>
<linearGradient id="paint5_linear_719_4419" x1="4.36562" y1="13.4336" x2="5.18385" y2="15.5644" gradientUnits="userSpaceOnUse">
<stop stop-color="#3AB99A"/>
<stop offset="1" stop-color="#1B9E7F"/>
</linearGradient>
<linearGradient id="paint6_linear_719_4419" x1="3.08361" y1="18.4453" x2="3.90184" y2="20.5761" gradientUnits="userSpaceOnUse">
<stop stop-color="#3AB99A"/>
<stop offset="1" stop-color="#1B9E7F"/>
</linearGradient>
<linearGradient id="paint7_linear_719_4419" x1="15.7492" y1="11.1328" x2="16.5675" y2="13.2636" gradientUnits="userSpaceOnUse">
<stop stop-color="#3AB99A"/>
<stop offset="1" stop-color="#1B9E7F"/>
</linearGradient>
<linearGradient id="paint8_linear_719_4419" x1="2.70858" y1="9.82031" x2="3.52681" y2="11.9511" gradientUnits="userSpaceOnUse">
<stop stop-color="#3AB99A"/>
<stop offset="1" stop-color="#1B9E7F"/>
</linearGradient>
<linearGradient id="paint9_linear_719_4419" x1="15.3742" y1="17.1328" x2="16.1925" y2="19.2636" gradientUnits="userSpaceOnUse">
<stop stop-color="#3AB99A"/>
<stop offset="1" stop-color="#1B9E7F"/>
</linearGradient>
<linearGradient id="paint10_linear_719_4419" x1="5.72833" y1="6.52637" x2="6.54656" y2="8.65717" gradientUnits="userSpaceOnUse">
<stop stop-color="#3AB99A"/>
<stop offset="1" stop-color="#1B9E7F"/>
</linearGradient>
<linearGradient id="paint11_linear_719_4419" x1="13.0408" y1="19.1919" x2="13.8591" y2="21.3227" gradientUnits="userSpaceOnUse">
<stop stop-color="#3AB99A"/>
<stop offset="1" stop-color="#1B9E7F"/>
</linearGradient>
<linearGradient id="paint12_linear_719_4419" x1="9.9625" y1="3.25614" x2="10.0817" y2="4.9944" gradientUnits="userSpaceOnUse">
<stop stop-color="#3AB99A"/>
<stop offset="1" stop-color="#1B9E7F"/>
</linearGradient>
<linearGradient id="paint13_linear_719_4419" x1="4.3375" y1="5.90737" x2="4.50879" y2="7.98899" gradientUnits="userSpaceOnUse">
<stop stop-color="#3AB99A"/>
<stop offset="1" stop-color="#1B9E7F"/>
</linearGradient>
<linearGradient id="paint14_linear_719_4419" x1="9.94375" y1="2.13114" x2="10.0234" y2="3.87393" gradientUnits="userSpaceOnUse">
<stop stop-color="#3AB99A"/>
<stop offset="1" stop-color="#1B9E7F"/>
</linearGradient>
<linearGradient id="paint15_linear_719_4419" x1="9.775" y1="5.88393" x2="11.5926" y2="22.4503" gradientUnits="userSpaceOnUse">
<stop stop-color="#3AB99A"/>
<stop offset="1" stop-color="#1B9E7F"/>
</linearGradient>
<linearGradient id="paint16_linear_719_4419" x1="12.5888" y1="9.15206" x2="11.06" y2="14.1977" gradientUnits="userSpaceOnUse">
<stop stop-color="#3AB99A"/>
<stop offset="1" stop-color="#1B9E7F"/>
</linearGradient>
<linearGradient id="paint17_linear_719_4419" x1="9.9625" y1="12.3348" x2="10.2654" y2="15.0959" gradientUnits="userSpaceOnUse">
<stop stop-color="#3AB99A"/>
<stop offset="1" stop-color="#1B9E7F"/>
</linearGradient>
<linearGradient id="paint18_linear_719_4419" x1="20.0891" y1="30.3295" x2="15.74" y2="37.3563" gradientUnits="userSpaceOnUse">
<stop stop-color="#3AB99A"/>
<stop offset="1" stop-color="#1B9E7F"/>
</linearGradient>
<linearGradient id="paint19_linear_719_4419" x1="20.0891" y1="30.3295" x2="15.74" y2="37.3563" gradientUnits="userSpaceOnUse">
<stop stop-color="#3AB99A"/>
<stop offset="1" stop-color="#1B9E7F"/>
</linearGradient>
</defs>
</svg>
