<svg width="64" height="64" viewBox="0 0 64 64" fill="none" xmlns="http://www.w3.org/2000/svg">
<path fill-rule="evenodd" clip-rule="evenodd" d="M5.75 21.5C4.7835 21.5 4 20.7165 4 19.75V13C4 11.8954 4.89543 11 6 11H16.25C17.2165 11 18 11.7835 18 12.75C18 13.7165 17.2165 14.5 16.25 14.5H9.5C8.39543 14.5 7.5 15.3954 7.5 16.5V19.75C7.5 20.7165 6.7165 21.5 5.75 21.5ZM58.25 21.5C59.2165 21.5 60 20.7165 60 19.75V13C60 11.8954 59.1046 11 58 11H47.75C46.7835 11 46 11.7835 46 12.75C46 13.7165 46.7835 14.5 47.75 14.5H54.5C55.6046 14.5 56.5 15.3954 56.5 16.5V19.75C56.5 20.7165 57.2835 21.5 58.25 21.5ZM60 44.25C60 43.2835 59.2165 42.5 58.25 42.5C57.2835 42.5 56.5 43.2835 56.5 44.25V47.5C56.5 48.6046 55.6046 49.5 54.5 49.5H47.75C46.7835 49.5 46 50.2835 46 51.25C46 52.2165 46.7835 53 47.75 53H58C59.1046 53 60 52.1046 60 51V44.25ZM16.25 53C17.2165 53 18 52.2165 18 51.25C18 50.2835 17.2165 49.5 16.25 49.5H9.5C8.39543 49.5 7.5 48.6046 7.5 47.5V44.25C7.5 43.2835 6.7165 42.5 5.75 42.5C4.7835 42.5 4 43.2835 4 44.25V51C4 52.1046 4.89543 53 6 53H16.25ZM30.25 34.75C30.25 34.1977 29.8023 33.75 29.25 33.75H28.625C28.0727 33.75 27.625 33.3023 27.625 32.75V31.25C27.625 30.6977 28.0727 30.25 28.625 30.25H29.25C29.8023 30.25 30.25 29.8023 30.25 29.25V28.625C30.25 28.0727 30.6977 27.625 31.25 27.625H32.75C33.3023 27.625 33.75 28.0727 33.75 28.625V29.25C33.75 29.8023 34.1977 30.25 34.75 30.25H35.375C35.9273 30.25 36.375 30.6977 36.375 31.25V32.75C36.375 33.3023 35.9273 33.75 35.375 33.75H34.75C34.1977 33.75 33.75 34.1977 33.75 34.75V35.375C33.75 35.9273 33.3023 36.375 32.75 36.375H31.25C30.6977 36.375 30.25 35.9273 30.25 35.375V34.75Z" fill="url(#paint0_linear_1112_3406)"/>
<defs>
<linearGradient id="paint0_linear_1112_3406" x1="31.3" y1="13.9375" x2="34.4974" y2="52.7945" gradientUnits="userSpaceOnUse">
<stop stop-color="#3AB99A"/>
<stop offset="1" stop-color="#1B9E7F"/>
</linearGradient>
</defs>
</svg>
