<svg width="64" height="64" viewBox="0 0 64 64" fill="none" xmlns="http://www.w3.org/2000/svg">
<path fill-rule="evenodd" clip-rule="evenodd" d="M33.5 9C33.5 8.17157 32.8284 7.5 32 7.5C31.1716 7.5 30.5 8.17157 30.5 9V10.7692C30.5 11.5977 31.1716 12.2692 32 12.2692C32.8284 12.2692 33.5 11.5977 33.5 10.7692V9ZM33.5 18.7308C33.5 17.9023 32.8284 17.2308 32 17.2308C31.1716 17.2308 30.5 17.9023 30.5 18.7308V22.2692C30.5 23.0977 31.1716 23.7692 32 23.7692C32.8284 23.7692 33.5 23.0977 33.5 22.2692V18.7308ZM33.5 41.7308C33.5 40.9023 32.8284 40.2308 32 40.2308C31.1716 40.2308 30.5 40.9023 30.5 41.7308V45.2692C30.5 46.0977 31.1716 46.7692 32 46.7692C32.8284 46.7692 33.5 46.0977 33.5 45.2692V41.7308ZM33.5 53.2308C33.5 52.4023 32.8284 51.7308 32 51.7308C31.1716 51.7308 30.5 52.4023 30.5 53.2308V55C30.5 55.8284 31.1716 56.5 32 56.5C32.8284 56.5 33.5 55.8284 33.5 55V53.2308ZM55 33.5C55.8284 33.5 56.5 32.8284 56.5 32C56.5 31.1716 55.8284 30.5 55 30.5H53.2308C52.4023 30.5 51.7308 31.1716 51.7308 32C51.7308 32.8284 52.4023 33.5 53.2308 33.5H55ZM45.2692 33.5C46.0977 33.5 46.7692 32.8284 46.7692 32C46.7692 31.1716 46.0977 30.5 45.2692 30.5H41.7308C40.9023 30.5 40.2308 31.1716 40.2308 32C40.2308 32.8284 40.9023 33.5 41.7308 33.5H45.2692ZM22.2692 33.5C23.0977 33.5 23.7692 32.8284 23.7692 32C23.7692 31.1716 23.0977 30.5 22.2692 30.5H18.7308C17.9023 30.5 17.2308 31.1716 17.2308 32C17.2308 32.8284 17.9023 33.5 18.7308 33.5H22.2692ZM10.7692 33.5C11.5977 33.5 12.2692 32.8284 12.2692 32C12.2692 31.1716 11.5977 30.5 10.7692 30.5H9C8.17157 30.5 7.5 31.1716 7.5 32C7.5 32.8284 8.17157 33.5 9 33.5H10.7692ZM8.43566 8.56677C9.06627 7.86767 10.15 7.80696 10.8563 8.43116L16.1405 13.1013C17.2857 14.1134 17.2857 15.8867 16.1405 16.8988L10.8562 21.5689C10.15 22.193 9.06619 22.1323 8.43558 21.4332C7.80497 20.7341 7.86632 19.6614 8.5726 19.0372L11.445 16.4986C12.3458 15.7026 12.3458 14.2975 11.445 13.5014L8.57265 10.9628C7.86638 10.3386 7.80504 9.26586 8.43566 8.56677ZM17.4363 8.56677C18.0669 7.86767 19.1507 7.80696 19.8569 8.43116L25.1411 13.1013C26.2863 14.1134 26.2863 15.8867 25.1411 16.8988L19.8569 21.5689C19.1506 22.193 18.0668 22.1323 17.4362 21.4332C16.8056 20.7341 16.8669 19.6614 17.5732 19.0372L20.4456 16.4986C21.3464 15.7026 21.3464 14.2975 20.4457 13.5014L17.5733 10.9628C16.867 10.3386 16.8057 9.26586 17.4363 8.56677ZM30.5857 30.5859C31.3668 29.8048 32.6331 29.8048 33.4142 30.5859L46.257 43.4287L45.9039 38.1328C45.8304 37.0307 46.6643 36.0777 47.7664 36.0042C48.8686 35.9308 49.8216 36.7646 49.8951 37.8668L50.4501 46.1927C50.6111 48.6075 48.6076 50.6109 46.1929 50.4499L37.8669 49.8949C36.7648 49.8214 35.9309 48.8684 36.0044 47.7663C36.0779 46.6641 37.0309 45.8303 38.133 45.9037L43.4282 46.2567L30.5857 33.4143C29.8047 32.6333 29.8047 31.3669 30.5857 30.5859ZM44.5858 60.4142C43.8047 59.6332 43.8047 58.3668 44.5858 57.5858L57.3137 44.8579C58.0948 44.0768 59.3611 44.0768 60.1421 44.8579C60.9232 45.6389 60.9232 46.9052 60.1421 47.6863L47.4142 60.4142C46.6332 61.1953 45.3668 61.1953 44.5858 60.4142Z" fill="url(#paint0_linear_1179_3716)"/>
<defs>
<linearGradient id="paint0_linear_1179_3716" x1="33.4486" y1="11.2418" x2="38.8778" y2="60.4747" gradientUnits="userSpaceOnUse">
<stop stop-color="#3AB99A"/>
<stop offset="1" stop-color="#1B9E7F"/>
</linearGradient>
</defs>
</svg>
