<svg width="64" height="64" viewBox="0 0 64 64" fill="none" xmlns="http://www.w3.org/2000/svg">
<path d="M14.5474 30C14.5474 28.8954 15.4428 28 16.5474 28H47.453C48.5576 28 49.453 28.8954 49.453 30V34C49.453 35.1046 48.5576 36 47.453 36H16.5474C15.4428 36 14.5474 35.1046 14.5474 34V30Z" fill="url(#paint0_linear_1180_3884)"/>
<path opacity="0.4" fill-rule="evenodd" clip-rule="evenodd" d="M9 12C7.89543 12 7 12.8954 7 14V18C7 19.1046 7.89543 20 9 20H55C56.1046 20 57 19.1046 57 18V14C57 12.8954 56.1046 12 55 12H9ZM21.2639 44C20.1593 44 19.2639 44.8954 19.2639 46V50C19.2639 51.1046 20.1593 52 21.2639 52H42.7356C43.8402 52 44.7356 51.1046 44.7356 50V46C44.7356 44.8954 43.8402 44 42.7356 44H21.2639Z" fill="url(#paint1_linear_1180_3884)"/>
<defs>
<linearGradient id="paint0_linear_1180_3884" x1="31.5639" y1="28.5595" x2="31.7511" y2="36.0063" gradientUnits="userSpaceOnUse">
<stop stop-color="#3AB99A"/>
<stop offset="1" stop-color="#1B9E7F"/>
</linearGradient>
<linearGradient id="paint1_linear_1180_3884" x1="31.375" y1="14.7976" x2="34.6201" y2="51.77" gradientUnits="userSpaceOnUse">
<stop stop-color="#3AB99A"/>
<stop offset="1" stop-color="#1B9E7F"/>
</linearGradient>
</defs>
</svg>
