<svg width="64" height="64" viewBox="0 0 64 64" fill="none" xmlns="http://www.w3.org/2000/svg">
<path d="M39.2002 10.4004C46.3578 10.4004 52.1602 15.615 52.1602 22.0474C52.1602 25.3918 50.5917 28.4069 48.0799 30.5311C49.3195 31.9721 49.2802 33.6462 49.2802 35.42L60.8002 28.518V54.4003L49.2802 47.4984V49.2239C49.2802 52.0828 46.7013 54.4003 43.5202 54.4003H17.6002C14.419 54.4003 11.8402 52.0828 11.8402 49.2239V40.7964C6.80656 39.1976 3.2002 34.8833 3.2002 29.8121C3.2002 23.3796 9.00258 18.1651 16.1602 18.1651C20.237 18.1651 23.8741 19.8569 26.2499 22.5017C26.1635 20.4783 26.6749 18.4492 27.6869 16.6948C29.8438 12.9554 34.19 10.4004 39.2002 10.4004Z" fill="#FC7F7F"/>
</svg>
