<svg width="148" height="64" viewBox="0 0 148 64" fill="none" xmlns="http://www.w3.org/2000/svg">
<path d="M43.1201 20.605V27.7013C43.1201 29.3783 45.0599 30.3107 46.3695 29.263L59.9304 18.4143C60.9313 17.6136 60.9313 16.0914 59.9304 15.2908L46.3695 4.44202C45.0599 3.3944 43.1201 4.32674 43.1201 6.00375V13.1L13.1 13.1L13.1 43.1201H6.00376C4.32674 43.1201 3.3944 45.0599 4.44202 46.3695L15.2908 59.9304C16.0914 60.9313 17.6136 60.9313 18.4143 59.9304L29.2631 46.3695C30.3107 45.0599 29.3783 43.1201 27.7013 43.1201H20.605V20.605L43.1201 20.605Z" fill="#F5F5F5"/>
<path d="M104.605 21.561H111.701C113.378 21.561 114.311 19.6211 113.263 18.3116L102.414 4.75061C101.614 3.7498 100.091 3.7498 99.2908 4.75061L88.442 18.3116C87.3944 19.6211 88.3267 21.561 90.0038 21.561H97.1V53.4576H127.12V58.6773C127.12 60.3543 129.06 61.2867 130.369 60.239L143.93 49.3903C144.931 48.5896 144.931 47.0674 143.93 46.2668L130.369 35.418C129.06 34.3704 127.12 35.3027 127.12 36.9797V45.9525H109.912L129.707 26.1573L134.148 30.598C135.334 31.7838 137.365 31.0714 137.55 29.4046L139.468 12.1443C139.609 10.8705 138.533 9.79417 137.259 9.9357L119.999 11.8535C118.332 12.0387 117.62 14.0697 118.805 15.2555L124.4 20.8504L104.605 40.6457V21.561Z" fill="#F5F5F5"/>
</svg>
