<svg width="24" height="24" viewBox="0 0 24 24" fill="none" xmlns="http://www.w3.org/2000/svg">
<path fill-rule="evenodd" clip-rule="evenodd" d="M10.5 0H13.5V3.12444C17.2688 3.75672 20.2433 6.73124 20.8756 10.5H24V13.5H20.8756C20.2433 17.2688 17.2688 20.2433 13.5 20.8756V24H10.5V20.8756C6.73124 20.2433 3.75672 17.2688 3.12444 13.5H0V10.5H3.12444C3.75672 6.73124 6.73124 3.75672 10.5 3.12444V0ZM18 12C18 15.3137 15.3137 18 12 18C8.68629 18 6 15.3137 6 12C6 8.68629 8.68629 6 12 6C15.3137 6 18 8.68629 18 12ZM12 15C13.6569 15 15 13.6569 15 12C15 10.3431 13.6569 9 12 9C10.3431 9 9 10.3431 9 12C9 13.6569 10.3431 15 12 15Z" fill="#F5F5F5"/>
</svg>
