<svg width="64" height="64" viewBox="0 0 64 64" fill="none" xmlns="http://www.w3.org/2000/svg">
<path fill-rule="evenodd" clip-rule="evenodd" d="M44.6212 15.8193L36.0187 20.7859C35.2077 21.2542 34.7846 22.1365 34.8623 23.0117L34.6754 23.1196L41.4246 34.8094L41.611 34.7018C42.3302 35.2073 43.3063 35.2822 44.1177 34.8138L52.7203 29.847C53.3542 30.389 54.2853 30.5018 55.0487 30.0611C56.0096 29.5063 56.3437 28.2829 55.8028 27.3179L48.3526 14.4139C47.7874 13.4629 46.5608 13.1405 45.5999 13.6953C44.8364 14.1361 44.4686 14.9992 44.6212 15.8193ZM51.3217 14.1573L57.5094 24.8746C59.0531 22.7808 59.3065 19.8879 57.9227 17.4911C56.5388 15.0942 53.9069 13.8673 51.3217 14.1573ZM39.0866 36.1593L32.3375 24.4694L27.3415 27.3538C26.5302 27.8223 26.1071 28.7049 26.1851 29.5804L25.9984 29.6882L31.3978 39.0401L31.5846 38.9322C32.3038 39.4372 33.2795 39.512 34.0907 39.0437L39.0866 36.1593ZM29.0598 40.3899L23.6605 31.038L18.6646 33.9224C17.8535 34.3907 17.4304 35.273 17.5082 36.1482L17.3213 36.2561L21.3708 43.27L21.5573 43.1623C22.2765 43.6678 23.2525 43.7427 24.0639 43.2742L29.0598 40.3899ZM19.0329 44.6198L14.9834 37.6059L7.96942 41.6554L7.20228 40.3267C6.88052 39.7694 6.16791 39.5785 5.61061 39.9002L5.29079 40.0849C4.73349 40.4066 4.54255 41.1192 4.86431 41.6765L6.79337 45.0178L6.79662 45.0234L8.51574 48.001L8.519 48.0067L10.4483 51.3482C10.77 51.9055 11.4826 52.0965 12.0399 51.7747L12.3597 51.5901C12.917 51.2683 13.108 50.5557 12.7862 49.9984L12.0189 48.6693L19.0329 44.6198Z" fill="url(#paint0_linear_628_3593)"/>
<defs>
<linearGradient id="paint0_linear_628_3593" x1="54.289" y1="19.3164" x2="20.4239" y2="57.7596" gradientUnits="userSpaceOnUse">
<stop stop-color="#3AB99A"/>
<stop offset="1" stop-color="#1B9E7F"/>
</linearGradient>
</defs>
</svg>
