<svg width="64" height="64" viewBox="0 0 64 64" fill="none" xmlns="http://www.w3.org/2000/svg">
<path d="M16.2852 22L20.0472 17.428L16.5192 13.144H20.2452L21.8652 15.232L23.4852 13.144H27.1932L23.6652 17.428L27.4632 22H23.7192L21.8472 19.642L19.9932 22H16.2852Z" fill="url(#paint0_linear_628_3591)"/>
<path d="M53.9159 39.1981C52.5719 39.1981 51.5759 38.8861 50.9279 38.2621C50.2799 37.6381 49.9559 36.6961 49.9559 35.4361V32.5021H48.2999V30.1441H49.9559V27.5701H53.1599V30.1441H55.6799V32.5021H53.1599V35.3281C53.1599 36.1921 53.5979 36.6241 54.4739 36.6241C54.6179 36.6241 54.7739 36.6121 54.9419 36.5881C55.1219 36.5521 55.3199 36.5041 55.5359 36.4441L55.9679 38.7481C55.6919 38.8921 55.3679 39.0001 54.9959 39.0721C54.6239 39.1561 54.2639 39.1981 53.9159 39.1981Z" fill="url(#paint1_linear_628_3591)"/>
<path fill-rule="evenodd" clip-rule="evenodd" d="M9 12.5C10.933 12.5 12.5 14.067 12.5 16V43.4357C19.8423 42.9779 23.2638 40.159 25.0921 37.4773C26.8216 34.9406 27.3486 32.4098 27.8163 30.1634C27.9707 29.422 28.1186 28.7116 28.3012 28.0422C28.8771 25.9304 30.0569 21.8718 34.0139 18.4543C37.9767 15.0319 44.2051 12.6779 54 12.6779C55.933 12.6779 57.5 14.2449 57.5 16.1779C57.5 18.1108 55.933 19.6779 54 19.6779C45.2949 19.6779 40.8957 21.7601 38.5893 23.7521C36.277 25.749 35.5457 28.083 35.0545 29.884C34.9991 30.0871 34.9344 30.4142 34.8502 30.84C34.4303 32.9618 33.5255 37.534 30.8759 41.4205C30.3605 42.1763 29.7852 42.9072 29.144 43.604H54C55.933 43.604 57.5 45.171 57.5 47.104C57.5 49.037 55.933 50.604 54 50.604H11C7.96243 50.604 5.5 48.1416 5.5 45.104V16C5.5 14.067 7.067 12.5 9 12.5Z" fill="url(#paint2_linear_628_3591)"/>
<defs>
<linearGradient id="paint0_linear_628_3591" x1="21.7345" y1="13.7634" x2="22.4461" y2="21.9503" gradientUnits="userSpaceOnUse">
<stop stop-color="#3AB99A"/>
<stop offset="1" stop-color="#1B9E7F"/>
</linearGradient>
<linearGradient id="paint1_linear_628_3591" x1="52.0381" y1="28.3833" x2="53.7915" y2="38.9223" gradientUnits="userSpaceOnUse">
<stop stop-color="#3AB99A"/>
<stop offset="1" stop-color="#1B9E7F"/>
</linearGradient>
<linearGradient id="paint2_linear_628_3591" x1="30.8375" y1="15.5251" x2="33.3369" y2="48.9667" gradientUnits="userSpaceOnUse">
<stop stop-color="#3AB99A"/>
<stop offset="1" stop-color="#1B9E7F"/>
</linearGradient>
</defs>
</svg>
